<?xml version="1.0" encoding="utf-8"?>
<!-- Generator: Adobe Illustrator 28.2.0, SVG Export Plug-In . SVG Version: 6.00 Build 0)  -->
<svg version="1.1" xmlns="http://www.w3.org/2000/svg" xmlns:xlink="http://www.w3.org/1999/xlink" x="0px" y="0px"
	 viewBox="0 0 500 500" style="enable-background:new 0 0 500 500;" xml:space="preserve">
<style type="text/css">
	.st0{fill:#9ED4D8;}
	.st1{fill:#C5EDE7;}
	.st2{fill:#189A9A;}
	.st3{fill:#F3AD02;}
	.st4{fill:#D19205;}
	.st5{fill:#FFBE2E;}
	.st6{fill:#EAA00A;}
	.st7{fill:#121013;}
	.st8{opacity:0.42;fill:#FFFFFF;}
	.st9{fill:#44C6C2;}
	.st10{fill:#FFFFFF;}
	.st11{fill:#068E5A;}
	.st12{fill:#1AB57D;}
	.st13{fill:#5B3220;}
	.st14{fill:#4C2A19;}
	.st15{fill:#FFFFFF;stroke:#384B51;stroke-width:0.25;stroke-miterlimit:10;}
	.st16{fill:none;stroke:#85F9F3;stroke-linecap:round;stroke-linejoin:round;stroke-miterlimit:10;}
	.st17{fill:none;stroke:#1AB57D;stroke-linecap:round;stroke-linejoin:round;stroke-miterlimit:10;}
	.st18{fill:#D65151;}
	.st19{fill:#68543C;}
	.st20{fill:#7C674A;}
	.st21{fill:#FCBBA7;}
	.st22{fill:#F2DBB1;}
	.st23{fill:#3F3123;}
	.st24{fill:none;stroke:#D8AE77;stroke-linecap:round;stroke-linejoin:round;stroke-miterlimit:10;}
	.st25{fill:#E7C28D;}
</style>
<g id="BACKGROUND">
	<rect class="st0" width="500" height="500"/>
</g>
<g id="OBJECTS">
	<path class="st1" d="M450.4,192.76c-5.36-23.95-12.29-41.11-21.18-52.47c-11.2-14.31-23.52-16.86-31.86-16.48
		c-4.05,0.17-7.85,1.04-11.38,2.49c-7.54,3.08-15.44-3.21-13.92-11.21c0.02-0.13,0.05-0.25,0.07-0.38
		c4.63-24.59,2.5-43.97-6.36-57.58c-10.19-15.67-28.03-22.59-50.26-19.5c-19.75,2.75-28.98,12.73-33.24,20.62
		c-7.1,13.15,0.71,43.23,8.64,66.47c1.47,4.3-3.62,7.75-7.14,4.87c-0.08-0.07-0.17-0.14-0.25-0.21
		c-20.01-16.2-51.25-16.45-75.54-1.02c-13.65,8.67-24.27,22.97-30.79,41.42c-5.06-2.55-11.17-2.37-16.04,0.59l-6.36,3.86
		c-1.65,1-3.09,2.25-4.28,3.73c-1.6-0.47-3.26-0.69-4.95-0.66l-7,0.12c-4.35,0.07-8.6,1.67-11.7,4.71c-1.22,1.19-2.23,2.54-3.01,4
		c-1.17-4.64-4.33-8.74-8.98-10.92l-6.74-3.16c-3.99-1.88-8.47-2.08-12.62-0.59c-4.15,1.5-7.46,4.52-9.33,8.51
		c-25.56,54.44-13.55,90.73,1.02,111.59l0.06,0.08c2.15,3.07-0.21,7.23-3.95,7.02c-1.66-0.09-3.29-0.15-4.9-0.17
		c-4.35-0.03-8.66,1.68-11.74,4.69c-3.15,3.08-4.92,7.2-4.98,11.61l-0.08,6.54c-0.05,4.29,1.18,8.62,3.98,11.87
		c3.13,3.63,0.05,9.67-9.05,9.67h-7.44c-9.12,0-16.51,7.46-16.5,16.58c0.02,14.75,5.55,27.04,16,35.56
		c7.63,6.22,17.46,10.08,29.84,11.68c7.84,1.01,14.46,6.18,17.75,13.37c0.83,1.82,1.74,3.58,2.72,5.28
		c8.93,15.49,27.44,32.04,52.64,32.04c7.42,0,14.82-1.49,22-4.44c9.96-4.08,18.59-9.89,25.8-17.35c3.11-3.21,8.38-2.19,10.12,1.93
		c0.19,0.44,0.38,0.88,0.59,1.31c4.03,8.5,13.29,18.62,34.59,18.62c1.6,0,3.3-0.06,5.05-0.18c21.94-1.51,39.39-12.42,46.69-29.2
		c3.46-7.96,4.24-16.62,2.47-25.02c-1.65-7.8,4.15-15.21,12.12-15.53c19.74-0.8,35.78-4.48,46.79-7.93
		c5.85-1.83,11.59-3.99,17.12-6.43c9.9-4.37,21.41-4.26,30.89,0.97c2.37,1.31,5.1,2.06,7.98,2.06l7.74-0.18
		c4.4-0.1,8.5-1.92,11.55-5.11c3.05-3.19,4.67-7.37,4.56-11.77c-0.18-7.57-1.1-15.41-2.86-24.09c-1.43-7.09-0.58-14.44,2.41-21.02
		C459.25,265.49,453.33,205.86,450.4,192.76z"/>
	<g>
		<path class="st2" d="M500,351.19c-14.74-5.73-30.76-8.88-47.53-8.88c-72.47,0-131.22,58.75-131.22,131.22
			c0,9.07,0.92,17.92,2.67,26.47H500V351.19z"/>
		<g>
			<g>
				<path class="st3" d="M453.35,451.84h-65.23c-2.86,0-5.17-2.32-5.17-5.17v-2.59c0-2.86,2.32-5.17,5.17-5.17h65.23
					c2.86,0,5.17,2.32,5.17,5.17v2.59C458.52,449.52,456.21,451.84,453.35,451.84z"/>
				<path class="st4" d="M458.7,438.91h-75.94c-2.86,0-5.17-2.32-5.17-5.17v-2.59c0-2.86,2.32-5.17,5.17-5.17h75.94
					c2.86,0,5.17,2.32,5.17,5.17v2.59C463.87,436.59,461.56,438.91,458.7,438.91z"/>
				<path class="st3" d="M388.11,387.17h65.23c2.86,0,5.17,2.32,5.17,5.17v2.59c0,2.86-2.32,5.17-5.17,5.17h-65.23
					c-2.86,0-5.17-2.32-5.17-5.17v-2.59C382.94,389.49,385.26,387.17,388.11,387.17z"/>
				<path class="st5" d="M400.32,374.24h40.82c2.86,0,5.17,2.32,5.17,5.17V382c0,2.86-2.32,5.17-5.17,5.17h-40.82
					c-2.86,0-5.17-2.32-5.17-5.17v-2.59C395.15,376.56,397.46,374.24,400.32,374.24z"/>
				<path class="st5" d="M400.32,451.84h40.82c2.86,0,5.17,2.32,5.17,5.17v2.59c0,2.86-2.32,5.17-5.17,5.17h-40.82
					c-2.86,0-5.17-2.32-5.17-5.17v-2.59C395.15,454.15,397.46,451.84,400.32,451.84z"/>
				<path class="st4" d="M382.76,400.11h75.94c2.86,0,5.17,2.32,5.17,5.17v2.59c0,2.86-2.32,5.17-5.17,5.17h-75.94
					c-2.86,0-5.17-2.32-5.17-5.17v-2.59C377.59,402.42,379.9,400.11,382.76,400.11z"/>
				<path class="st6" d="M462.67,425.97h-83.88c-2.86,0-5.17-2.32-5.17-5.17v-2.59c0-2.86,2.32-5.17,5.17-5.17h83.88
					c2.86,0,5.17,2.32,5.17,5.17v2.59C467.84,423.66,465.53,425.97,462.67,425.97z"/>
			</g>
			<g>
				<path class="st7" d="M376.67,438.8c3.58-1.08,6.23-3.48,7.09-6.07c0.53-1.6,1.8-2.85,3.42-3.34l3.76-1.14
					c0.4-0.12,0.68-0.5,0.63-0.91c-0.07-0.52-0.58-0.84-1.07-0.69l-3.8,1.15c-1.62,0.49-3.37,0.15-4.7-0.89
					c-2.14-1.68-5.68-2.21-9.26-1.13c-5.05,1.53-8.26,5.68-7.17,9.27C366.65,438.65,371.62,440.33,376.67,438.8z"/>
				<g>
					<path class="st3" d="M374.29,425.42l3.88,12.83c0.8-0.35,1.53-0.77,2.2-1.23l-3.56-11.79
						C375.99,425.21,375.14,425.27,374.29,425.42z"/>
					<path class="st3" d="M370.86,439.17c0.83,0.16,1.71,0.22,2.62,0.18l-3.71-12.26c-0.78,0.47-1.49,1.01-2.08,1.61L370.86,439.17z
						"/>
					<path class="st3" d="M370.83,426.53l3.84,12.72c0.66-0.09,1.33-0.24,2-0.44c0.14-0.04,0.27-0.08,0.4-0.13l-3.93-13
						c-0.14,0.04-0.27,0.07-0.41,0.11C372.07,425.99,371.43,426.24,370.83,426.53z"/>
				</g>
				<g>
					<path class="st8" d="M371.3,443.27c-1.22-4.03,0.14-8,3.03-8.88c2.89-0.87,6.22,1.68,7.44,5.71c1.22,4.03-0.14,8-3.03,8.88
						C375.85,449.85,372.52,447.3,371.3,443.27z"/>
					<path class="st8" d="M375.72,442.93c-3.2-3.23-3.68-6.94-1.07-8.28c2.61-1.34,7.32,0.19,10.52,3.42
						c3.2,3.23,3.68,6.94,1.07,8.28C383.63,447.7,378.92,446.16,375.72,442.93z"/>
				</g>
				<g>
					<path class="st8" d="M366.2,426.37c1.22,4.03,4.55,6.59,7.44,5.71c2.89-0.87,4.25-4.85,3.03-8.88
						c-1.22-4.03-4.55-6.59-7.44-5.71C366.34,418.37,364.98,422.35,366.2,426.37z"/>
					<path class="st8" d="M370.06,424.21c-0.88,4.46,0.78,7.81,3.69,7.48c2.91-0.33,5.99-4.21,6.86-8.67
						c0.88-4.46-0.78-7.81-3.69-7.48C374.01,415.86,370.94,419.74,370.06,424.21z"/>
				</g>
			</g>
			<g>
				<path class="st7" d="M417.56,420.23c-0.13,2.76,0.89,5.2,2.48,6.43c0.99,0.77,1.55,1.96,1.49,3.21l-0.13,2.9
					c-0.01,0.31,0.18,0.6,0.48,0.66c0.38,0.08,0.73-0.2,0.75-0.57l0.14-2.93c0.06-1.25,0.72-2.38,1.78-3.05
					c1.7-1.08,2.94-3.42,3.07-6.18c0.18-3.89-1.92-7.16-4.69-7.28C420.13,413.29,417.74,416.34,417.56,420.23z"/>
				<g>
					<path class="st3" d="M427.47,421.87l-9.9-0.46c0.05,0.64,0.16,1.26,0.32,1.83l9.09,0.42
						C427.2,423.11,427.37,422.51,427.47,421.87z"/>
					<path class="st3" d="M418.73,416.09c-0.31,0.54-0.58,1.14-0.77,1.78l9.46,0.44c-0.14-0.66-0.34-1.29-0.61-1.85L418.73,416.09z"
						/>
					<path class="st3" d="M427.55,419.19l-9.81-0.46c-0.1,0.48-0.16,0.98-0.19,1.5c0,0.1-0.01,0.21-0.01,0.31l10.03,0.47
						c0.01-0.1,0.02-0.21,0.02-0.31C427.62,420.18,427.61,419.68,427.55,419.19z"/>
				</g>
				<g>
					<path class="st8" d="M415.77,415.39c3.11,0.14,5.54,2.07,5.44,4.3c-0.1,2.23-2.71,3.92-5.81,3.78
						c-3.11-0.14-5.54-2.07-5.44-4.3C410.06,416.94,412.66,415.25,415.77,415.39z"/>
					<path class="st8" d="M414.91,418.56c3.04-1.43,5.74-0.86,6.03,1.29c0.29,2.15-1.94,5.05-4.98,6.49
						c-3.04,1.43-5.74,0.86-6.03-1.29C409.64,422.9,411.87,419.99,414.91,418.56z"/>
				</g>
				<g>
					<path class="st8" d="M428.8,416c-3.11-0.14-5.71,1.55-5.81,3.78c-0.1,2.23,2.33,4.16,5.44,4.3c3.11,0.14,5.71-1.55,5.81-3.78
						C434.34,418.07,431.91,416.14,428.8,416z"/>
					<path class="st8" d="M429.36,419.23c-2.89-1.71-5.64-1.38-6.13,0.73c-0.49,2.11,1.46,5.21,4.36,6.92
						c2.89,1.71,5.64,1.38,6.13-0.73C434.2,424.04,432.25,420.94,429.36,419.23z"/>
				</g>
			</g>
			<g>
				<path class="st7" d="M471.62,441.79c1.87-2.03,2.66-4.56,2.23-6.52c-0.26-1.22,0.07-2.49,0.92-3.41l1.96-2.13
					c0.21-0.23,0.25-0.58,0.06-0.82c-0.24-0.31-0.69-0.32-0.94-0.04l-1.99,2.16c-0.85,0.92-2.09,1.36-3.33,1.2
					c-2-0.26-4.45,0.73-6.32,2.76c-2.64,2.87-3.13,6.72-1.08,8.6C465.19,445.46,468.98,444.66,471.62,441.79z"/>
				<g>
					<path class="st3" d="M465.08,434.16l7.29,6.71c0.38-0.52,0.69-1.06,0.93-1.61l-6.7-6.17
						C466.08,433.39,465.57,433.75,465.08,434.16z"/>
					<path class="st3" d="M468.06,444.21c0.59-0.21,1.17-0.5,1.74-0.87l-6.97-6.41c-0.32,0.6-0.56,1.2-0.72,1.81L468.06,444.21z"/>
					<path class="st3" d="M463.29,436.17l7.23,6.65c0.38-0.31,0.76-0.65,1.11-1.03c0.07-0.08,0.14-0.15,0.21-0.23l-7.39-6.8
						c-0.07,0.07-0.14,0.15-0.22,0.23C463.88,435.36,463.57,435.76,463.29,436.17z"/>
				</g>
				<g>
					<path class="st8" d="M469.88,446.65c-2.29-2.11-2.92-5.15-1.41-6.79c1.51-1.64,4.59-1.27,6.88,0.84s2.92,5.15,1.41,6.79
						S472.17,448.76,469.88,446.65z"/>
					<path class="st8" d="M472.57,444.78c-3.25-0.85-4.95-3.03-3.79-4.87c1.16-1.83,4.73-2.63,7.98-1.77
						c3.25,0.85,4.95,3.03,3.79,4.87C479.4,444.84,475.82,445.63,472.57,444.78z"/>
				</g>
				<g>
					<path class="st8" d="M460.29,437.81c2.29,2.11,5.37,2.48,6.88,0.84c1.51-1.64,0.88-4.68-1.41-6.79
						c-2.29-2.11-5.37-2.48-6.88-0.84C457.37,432.67,458,435.71,460.29,437.81z"/>
					<path class="st8" d="M461.93,434.98c1.12,3.17,3.43,4.68,5.16,3.38c1.73-1.3,2.23-4.93,1.11-8.1
						c-1.12-3.17-3.43-4.68-5.16-3.38C461.31,428.18,460.81,431.81,461.93,434.98z"/>
				</g>
			</g>
			<g>
				<path class="st7" d="M444.01,382.19c-1.83,2.07-2.56,4.61-2.1,6.57c0.29,1.22-0.02,2.49-0.85,3.43l-1.92,2.17
					c-0.2,0.23-0.23,0.58-0.04,0.82c0.25,0.3,0.69,0.3,0.94,0.02l1.94-2.2c0.83-0.94,2.06-1.41,3.3-1.27c2,0.22,4.43-0.82,6.26-2.89
					c2.58-2.92,2.98-6.78,0.9-8.62C450.37,378.39,446.59,379.27,444.01,382.19z"/>
				<g>
					<path class="st3" d="M450.72,389.68l-7.43-6.56c-0.37,0.53-0.67,1.08-0.9,1.63l6.83,6.02
						C449.73,390.47,450.24,390.11,450.72,389.68z"/>
					<path class="st3" d="M447.52,379.7c-0.58,0.22-1.16,0.52-1.72,0.91l7.1,6.27c0.31-0.6,0.54-1.22,0.69-1.82L447.52,379.7z"/>
					<path class="st3" d="M452.46,387.64l-7.36-6.5c-0.38,0.31-0.74,0.67-1.08,1.05c-0.07,0.08-0.14,0.16-0.2,0.24l7.53,6.65
						c0.07-0.08,0.14-0.15,0.21-0.23C451.89,388.46,452.19,388.05,452.46,387.64z"/>
				</g>
				<g>
					<path class="st8" d="M445.65,377.3c2.33,2.06,3.02,5.08,1.55,6.76c-1.48,1.67-4.57,1.36-6.9-0.7
						c-2.33-2.06-3.02-5.08-1.55-6.76S443.32,375.24,445.65,377.3z"/>
					<path class="st8" d="M443,379.23c3.27,0.79,5.01,2.93,3.89,4.79c-1.12,1.86-4.67,2.73-7.94,1.94
						c-3.27-0.79-5.01-2.93-3.89-4.79C436.18,379.31,439.73,378.44,443,379.23z"/>
				</g>
				<g>
					<path class="st8" d="M455.43,385.93c-2.33-2.06-5.42-2.37-6.9-0.7s-0.79,4.7,1.55,6.76c2.33,2.06,5.42,2.37,6.9,0.7
						C458.46,391.02,457.76,387.99,455.43,385.93z"/>
					<path class="st8" d="M453.84,388.8c-1.19-3.15-3.53-4.61-5.23-3.27c-1.7,1.34-2.12,4.98-0.94,8.12
						c1.19,3.15,3.53,4.61,5.23,3.27C454.61,395.58,455.03,391.94,453.84,388.8z"/>
				</g>
			</g>
		</g>
	</g>
	<path class="st9" d="M0.05,191.2c18.95,7.37,39.56,11.42,61.11,11.42c93.18,0,168.73-75.54,168.73-168.73
		c0-11.66-1.18-23.04-3.43-34.03H0.05V191.2z"/>
	<path class="st10" d="M75.83,103.41c-0.87-4.67-4.96-8.21-9.88-8.21c-0.98,0-1.92,0.15-2.81,0.41c-2.38-4.39-7.02-7.37-12.37-7.37
		c-3,0-5.78,0.94-8.07,2.55c-1.84-2.01-4.48-3.29-7.42-3.29c-3.74,0-7,2.05-8.73,5.08c-1.84-0.88-3.9-1.38-6.07-1.38
		c-7.13,0-13.02,5.32-13.93,12.2H75.83z"/>
	<path class="st10" d="M159.4,57.14c-0.62-3.34-3.54-5.87-7.06-5.87c-0.7,0-1.37,0.1-2.01,0.29c-1.7-3.14-5.02-5.27-8.84-5.27
		c-2.15,0-4.13,0.68-5.77,1.82c-1.31-1.44-3.2-2.35-5.3-2.35c-2.67,0-5,1.46-6.24,3.63c-1.31-0.63-2.79-0.98-4.34-0.98
		c-5.1,0-9.31,3.8-9.96,8.72H159.4z"/>
	<path class="st11" d="M154.5,169.4c-3.65-18.9-13.81-31.52-25.02-29.42c-5.07,0.95-9.6,4.79-13.2,10.52
		c-4.24-16.63-13.73-27.34-24.12-25.39c-7.22,1.35-13.35,8.54-17.23,18.78c-4.76-11.75-12.58-18.76-21.02-17.18
		c-8.31,1.56-15.15,11.07-18.61,24.05c-1.78-0.77-3.64-1.05-5.56-0.69c-6.43,1.21-11.65,8.95-13.98,19.33H154.5z"/>
	<g>
		<path class="st10" d="M471.16,57.92c-0.67-3.59-3.81-6.3-7.59-6.3c-0.75,0-1.47,0.11-2.16,0.31c-1.83-3.37-5.4-5.66-9.5-5.66
			c-2.31,0-4.44,0.73-6.2,1.96c-1.41-1.55-3.44-2.52-5.7-2.52c-2.87,0-5.38,1.57-6.71,3.9c-1.41-0.68-3-1.06-4.67-1.06
			c-5.48,0-10,4.08-10.7,9.38H471.16z"/>
		<g>
			<path class="st12" d="M462.8,113.37c-0.98-5.29-5.61-9.29-11.18-9.29c-1.11,0-2.17,0.17-3.19,0.46c-2.69-4.97-7.95-8.34-14-8.34
				c-3.4,0-6.55,1.07-9.14,2.89c-2.08-2.28-5.07-3.72-8.4-3.72c-4.24,0-7.93,2.32-9.89,5.75c-2.08-1-4.41-1.56-6.88-1.56
				c-8.08,0-14.75,6.02-15.77,13.82H462.8z"/>
			<g>
				<path class="st13" d="M409.47,41.97c-0.08,2.01-7.47,1.28-11.11,1.47c-3.65,0.18-6.75,0-6.75,0v2.92c0,0,8.75,0.18,11.31,0
					c2.55-0.18,6.28,2.37,6.28,2.37L409.47,41.97z"/>
				<path class="st13" d="M428.67,62.6c0.17,2.04,7.63,1.97,7.63,1.97v3.21c0,0-7.26-0.63-7.03,2.18s-2.92-3.68-2.92-3.68
					L428.67,62.6z"/>
				<path class="st13" d="M407.91,80.28c0,2.55-8.36,2.64-8.36,2.64v3.12c0,0,8.04-1.42,8.04,1.96c0,3.38,1.88-7.64,1.88-7.64
					L407.91,80.28z"/>
				<g>
					<polygon class="st14" points="406.56,113.21 410.11,26.29 425.72,26.29 432.81,113.64 					"/>
					<path class="st13" d="M413.11,26.29c-0.71,10.04-1.5,43.13-1.5,57.22s-1.58,29.7-1.58,29.7h3.07c0,0,0.24-25.2,0-35.92
						c-0.24-10.72,1.73-51,1.73-51H413.11z"/>
					<path class="st13" d="M417.68,26.29c0.16,13.62,0.63,43.21,0,55.28c-0.63,12.08-0.42,31.81-0.42,31.81H418
						c0,0-0.08-18.27,0.63-38.58c0.71-20.31,0-48.51,0-48.51H417.68z"/>
					<path class="st13" d="M422.17,26.29c0.39,14.47-0.47,18.85-0.32,37.45c0.16,18.6-0.02,49.72-0.02,49.72h3.49
						c0,0-1.44-27.59-1.74-41.82c-0.31-14.23-0.54-45.35-0.54-45.35H422.17z"/>
				</g>
				<g>
					<path class="st12" d="M394.9,41.32c-0.17,1.93-1.65,3.37-1.65,3.37s-1.21-1.68-1.04-3.61c0.17-1.93,1.65-3.37,1.65-3.37
						S395.07,39.39,394.9,41.32z"/>
					<path class="st12" d="M397.36,43.85c-1.55,1.16-3.61,1.01-3.61,1.01s0.45-2.02,1.99-3.18c1.55-1.16,3.61-1.01,3.61-1.01
						S398.91,42.69,397.36,43.85z"/>
					<path class="st12" d="M391.03,40.93c1.5,1.5,1.67,3.76,1.67,3.76s-2.26-0.17-3.76-1.66c-1.5-1.5-1.67-3.76-1.67-3.76
						S389.52,39.43,391.03,40.93z"/>
					<path class="st12" d="M391.25,48.33c0.37-1.9,2-3.18,2-3.18s1.03,1.8,0.66,3.69c-0.37,1.9-2,3.18-2,3.18
						S390.88,50.23,391.25,48.33z"/>
					<path class="st12" d="M389.07,45.56c1.66-0.99,3.7-0.63,3.7-0.63s-0.65,1.96-2.32,2.95c-1.66,0.99-3.7,0.63-3.7,0.63
						S387.41,46.55,389.07,45.56z"/>
					<path class="st12" d="M395.07,49.13c-1.34-1.65-1.27-3.92-1.27-3.92s2.23,0.4,3.57,2.05c1.34,1.65,1.27,3.92,1.27,3.92
						S396.4,50.77,395.07,49.13z"/>
				</g>
				<g>
					<path class="st12" d="M435.25,69.94c-0.22-1.71,0.81-3.26,0.81-3.26s1.37,1.24,1.59,2.95c0.22,1.71-0.81,3.26-0.81,3.26
						S435.47,71.66,435.25,69.94z"/>
					<path class="st12" d="M432.62,68.2c1.13-1.3,2.96-1.57,2.96-1.57s-0.01,1.85-1.14,3.15c-1.13,1.3-2.96,1.57-2.96,1.57
						S431.48,69.5,432.62,68.2z"/>
					<path class="st12" d="M438.71,69.55c-1.59-1.02-2.17-2.97-2.17-2.97s2.01-0.28,3.6,0.74c1.59,1.02,2.17,2.97,2.17,2.97
						S440.3,70.58,438.71,69.55z"/>
					<path class="st12" d="M437.1,63.12c0.04,1.73-1.14,3.15-1.14,3.15s-1.24-1.38-1.27-3.1c-0.04-1.73,1.14-3.15,1.14-3.15
						S437.07,61.4,437.1,63.12z"/>
					<path class="st12" d="M439.54,65.13c-1.26,1.18-3.11,1.25-3.11,1.25s0.2-1.84,1.46-3.02c1.26-1.18,3.11-1.25,3.11-1.25
						S440.8,63.95,439.54,65.13z"/>
					<path class="st12" d="M433.62,63.15c1.48,1.19,1.85,3.18,1.85,3.18s-2.03,0.07-3.51-1.11s-1.85-3.18-1.85-3.18
						S432.14,61.97,433.62,63.15z"/>
				</g>
				<g>
					<path class="st12" d="M398.88,87.71c-0.22-1.71,0.81-3.26,0.81-3.26s1.37,1.24,1.59,2.95c0.22,1.71-0.81,3.26-0.81,3.26
						S399.1,89.43,398.88,87.71z"/>
					<path class="st12" d="M396.25,85.97c1.13-1.3,2.96-1.57,2.96-1.57s-0.01,1.85-1.14,3.15c-1.13,1.3-2.96,1.57-2.96,1.57
						S395.12,87.27,396.25,85.97z"/>
					<path class="st12" d="M402.34,87.32c-1.59-1.02-2.17-2.97-2.17-2.97s2.01-0.28,3.6,0.74c1.59,1.02,2.17,2.97,2.17,2.97
						S403.93,88.35,402.34,87.32z"/>
					<path class="st12" d="M400.74,80.89c0.04,1.73-1.14,3.15-1.14,3.15s-1.24-1.38-1.27-3.1c-0.04-1.73,1.14-3.15,1.14-3.15
						S400.7,79.16,400.74,80.89z"/>
					<path class="st12" d="M403.17,82.9c-1.26,1.18-3.11,1.25-3.11,1.25s0.2-1.84,1.46-3.02c1.26-1.18,3.11-1.25,3.11-1.25
						S404.43,81.72,403.17,82.9z"/>
					<path class="st12" d="M397.26,80.92c1.48,1.19,1.85,3.18,1.85,3.18s-2.03,0.07-3.51-1.11s-1.85-3.18-1.85-3.18
						S395.78,79.74,397.26,80.92z"/>
				</g>
			</g>
		</g>
	</g>
	<g>
		<g>
			<path class="st12" d="M123.66,354.66c-1.24-5.47-7.09-9.61-14.13-9.61c-1.4,0-2.75,0.17-4.02,0.48
				c-3.4-5.14-10.05-8.63-17.69-8.63c-4.3,0-8.27,1.11-11.54,2.99c-2.63-2.36-6.41-3.85-10.61-3.85c-5.35,0-10.01,2.4-12.49,5.95
				c-2.63-1.03-5.58-1.61-8.69-1.61c-10.21,0-18.63,6.23-19.93,14.29H123.66z"/>
			<g>
				<path class="st13" d="M45.53,296.97c-0.04,1.62-3.8,1.03-5.66,1.18c-1.86,0.15-3.44,0-3.44,0v2.35c0,0,4.46,0.15,5.76,0
					c1.3-0.15,3.2,1.91,3.2,1.91L45.53,296.97z"/>
				<g>
					<path class="st12" d="M39.07,296.44c-0.14,1.55-1.33,2.71-1.33,2.71s-0.97-1.35-0.84-2.9c0.14-1.55,1.33-2.71,1.33-2.71
						S39.21,294.89,39.07,296.44z"/>
					<path class="st12" d="M40.4,298.98c-1.01,0.51-2.36,0.45-2.36,0.45s0.29-0.89,1.3-1.4c1.01-0.51,2.36-0.45,2.36-0.45
						S41.41,298.47,40.4,298.98z"/>
					<path class="st12" d="M36.26,297.69c0.98,0.66,1.09,1.65,1.09,1.65s-1.48-0.07-2.45-0.73c-0.98-0.66-1.09-1.65-1.09-1.65
						S35.29,297.04,36.26,297.69z"/>
					<path class="st12" d="M36.14,302.09c0.3-1.53,1.61-2.56,1.61-2.56s0.83,1.45,0.53,2.97c-0.3,1.53-1.61,2.56-1.61,2.56
						S35.84,303.62,36.14,302.09z"/>
					<path class="st12" d="M34.99,299.73c1.08-0.44,2.41-0.28,2.41-0.28s-0.43,0.86-1.51,1.3c-1.08,0.44-2.41,0.28-2.41,0.28
						S33.91,300.17,34.99,299.73z"/>
					<path class="st12" d="M38.9,301.3c-0.87-0.72-0.83-1.72-0.83-1.72s1.46,0.18,2.33,0.9s0.83,1.72,0.83,1.72
						S39.77,302.03,38.9,301.3z"/>
				</g>
				<path class="st13" d="M45.67,330.69c-0.04,1.62-3.8,1.03-5.66,1.18c-1.86,0.15-3.44,0-3.44,0v2.35c0,0,4.46,0.15,5.76,0
					c1.3-0.15,3.2,1.91,3.2,1.91L45.67,330.69z"/>
				<g>
					<path class="st12" d="M39.22,330.16c-0.14,1.55-1.33,2.71-1.33,2.71s-0.97-1.35-0.84-2.9c0.14-1.55,1.33-2.71,1.33-2.71
						S39.36,328.61,39.22,330.16z"/>
					<path class="st12" d="M40.54,332.7c-1.01,0.51-2.36,0.45-2.36,0.45s0.29-0.89,1.3-1.4s2.36-0.45,2.36-0.45
						S41.55,332.19,40.54,332.7z"/>
					<path class="st12" d="M36.41,331.41c0.98,0.66,1.09,1.65,1.09,1.65s-1.48-0.07-2.45-0.73c-0.98-0.66-1.09-1.65-1.09-1.65
						S35.43,330.76,36.41,331.41z"/>
					<path class="st12" d="M36.29,335.81c0.3-1.53,1.61-2.56,1.61-2.56s0.83,1.45,0.53,2.97c-0.3,1.53-1.61,2.56-1.61,2.56
						S35.99,337.34,36.29,335.81z"/>
					<path class="st12" d="M35.14,333.45c1.08-0.44,2.41-0.28,2.41-0.28s-0.43,0.86-1.51,1.3s-2.41,0.28-2.41,0.28
						S34.05,333.89,35.14,333.45z"/>
					<path class="st12" d="M39.05,335.02c-0.87-0.72-0.83-1.72-0.83-1.72s1.46,0.18,2.33,0.9c0.87,0.72,0.83,1.72,0.83,1.72
						S39.92,335.75,39.05,335.02z"/>
				</g>
				<path class="st13" d="M59.9,331.1c0.04-1.62,3.8-1.03,5.66-1.18c1.86-0.15,3.44,0,3.44,0v-2.35c0,0-4.46-0.15-5.76,0
					c-1.3,0.15-3.2-1.91-3.2-1.91L59.9,331.1z"/>
				<g>
					<path class="st12" d="M66.35,331.63c0.14-1.55,1.33-2.71,1.33-2.71s0.97,1.35,0.84,2.9c-0.14,1.55-1.33,2.71-1.33,2.71
						S66.22,333.18,66.35,331.63z"/>
					<path class="st12" d="M65.03,329.09c1.01-0.51,2.36-0.45,2.36-0.45s-0.29,0.89-1.3,1.4c-1.01,0.51-2.36,0.45-2.36,0.45
						S64.02,329.6,65.03,329.09z"/>
					<path class="st12" d="M69.16,330.38c-0.98-0.66-1.09-1.65-1.09-1.65s1.48,0.07,2.45,0.73c0.98,0.66,1.09,1.65,1.09,1.65
						S70.14,331.04,69.16,330.38z"/>
					<path class="st12" d="M69.29,325.98c-0.3,1.53-1.61,2.56-1.61,2.56s-0.83-1.45-0.53-2.97c0.3-1.53,1.61-2.56,1.61-2.56
						S69.58,324.45,69.29,325.98z"/>
					<path class="st12" d="M70.44,328.34c-1.08,0.44-2.41,0.28-2.41,0.28s0.43-0.86,1.51-1.3c1.08-0.44,2.41-0.28,2.41-0.28
						S71.52,327.9,70.44,328.34z"/>
					<path class="st12" d="M66.53,326.77c0.87,0.72,0.83,1.72,0.83,1.72s-1.46-0.18-2.33-0.9c-0.87-0.72-0.83-1.72-0.83-1.72
						S65.65,326.04,66.53,326.77z"/>
				</g>
				<path class="st13" d="M57.39,308.34c0.04-1.62,3.8-1.03,5.66-1.18c1.86-0.15,3.44,0,3.44,0v-2.35c0,0-4.46-0.15-5.76,0
					c-1.3,0.15-3.2-1.91-3.2-1.91L57.39,308.34z"/>
				<g>
					<path class="st12" d="M63.84,308.87c0.14-1.55,1.33-2.71,1.33-2.71s0.97,1.35,0.84,2.9c-0.14,1.55-1.33,2.71-1.33,2.71
						S63.7,310.42,63.84,308.87z"/>
					<path class="st12" d="M62.52,306.33c1.01-0.51,2.36-0.45,2.36-0.45s-0.29,0.89-1.3,1.4c-1.01,0.51-2.36,0.45-2.36,0.45
						S61.51,306.84,62.52,306.33z"/>
					<path class="st12" d="M66.65,307.61c-0.98-0.66-1.09-1.65-1.09-1.65s1.48,0.07,2.45,0.73c0.98,0.66,1.09,1.65,1.09,1.65
						S67.63,308.27,66.65,307.61z"/>
					<path class="st12" d="M66.77,303.22c-0.3,1.53-1.61,2.56-1.61,2.56s-0.83-1.45-0.53-2.97c0.3-1.53,1.61-2.56,1.61-2.56
						S67.07,301.69,66.77,303.22z"/>
					<path class="st12" d="M67.92,305.57c-1.08,0.44-2.41,0.28-2.41,0.28s0.43-0.86,1.51-1.3s2.41-0.28,2.41-0.28
						S69.01,305.14,67.92,305.57z"/>
					<path class="st12" d="M64.01,304.01c0.87,0.72,0.83,1.72,0.83,1.72s-1.46-0.18-2.33-0.9c-0.87-0.72-0.83-1.72-0.83-1.72
						S63.14,303.28,64.01,304.01z"/>
				</g>
				<polygon class="st14" points="42.28,354.31 45.14,284.35 57.7,284.35 63.41,354.66 				"/>
				<path class="st13" d="M46.07,284.35c-0.57,8.08-1.21,34.72-1.21,46.06c0,11.34-1.27,23.91-1.27,23.91h2.47
					c0,0,0.19-20.28,0-28.91c-0.19-8.63,1.4-41.05,1.4-41.05H46.07z"/>
				<path class="st13" d="M51.23,284.35c0.13,10.96,0.51,34.78,0,44.5c-0.51,9.72-0.34,25.6-0.34,25.6h0.6c0,0-0.07-14.71,0.5-31.05
					c0.57-16.34,0-39.05,0-39.05H51.23z"/>
				<path class="st13" d="M56.24,284.35c0.13,10.96,3.34,34.78,2.83,44.5c-0.51,9.72-0.34,25.6-0.34,25.6h0.6
					c0,0-0.07-14.71,0.5-31.05C60.4,307.06,57,284.35,57,284.35H56.24z"/>
				<path class="st13" d="M54.84,284.35c0.32,11.65-0.38,15.17-0.25,30.14c0.13,14.97-0.02,40.02-0.02,40.02h2.81
					c0,0-1.16-22.21-1.4-33.66c-0.25-11.45-0.44-36.51-0.44-36.51H54.84z"/>
				<path class="st13" d="M47.39,284.35c0.32,11.65-0.38,15.17-0.25,30.14c0.13,14.97-0.02,40.02-0.02,40.02h2.81
					c0,0-1.16-22.21-1.4-33.66c-0.25-11.45-0.44-36.51-0.44-36.51H47.39z"/>
			</g>
		</g>
		<g>
			<path class="st7" d="M53.91,256.6c1.81-1.87,2.62-4.22,2.26-6.09c-0.22-1.16,0.13-2.35,0.95-3.19l1.9-1.96
				c0.2-0.21,0.25-0.54,0.07-0.77c-0.22-0.3-0.64-0.31-0.88-0.06l-1.92,1.98c-0.82,0.84-2,1.23-3.16,1.05
				c-1.87-0.3-4.2,0.58-6.02,2.44c-2.56,2.63-3.11,6.25-1.23,8.07C47.76,259.89,51.36,259.23,53.91,256.6z"/>
			<g>
				<path class="st3" d="M47.94,249.26l6.7,6.5c0.37-0.48,0.68-0.98,0.92-1.49l-6.15-5.97C48.91,248.55,48.41,248.88,47.94,249.26z"
					/>
				<path class="st3" d="M50.5,258.79c0.56-0.18,1.12-0.44,1.66-0.78l-6.4-6.21c-0.32,0.55-0.56,1.12-0.73,1.68L50.5,258.79z"/>
				<path class="st3" d="M46.21,251.1l6.64,6.44c0.37-0.28,0.73-0.59,1.07-0.94c0.07-0.07,0.13-0.14,0.2-0.21l-6.78-6.59
					c-0.07,0.07-0.14,0.14-0.21,0.21C46.78,250.36,46.48,250.72,46.21,251.1z"/>
			</g>
			<g>
				<path class="st8" d="M52.16,261.13c-2.1-2.04-2.62-4.92-1.15-6.43c1.46-1.51,4.36-1.08,6.46,0.96c2.1,2.04,2.62,4.92,1.15,6.43
					C57.15,263.6,54.26,263.17,52.16,261.13z"/>
				<path class="st8" d="M54.73,259.43c-3.04-0.89-4.58-2.98-3.45-4.67c1.13-1.7,4.52-2.35,7.56-1.47c3.04,0.88,4.58,2.98,3.45,4.67
					S57.77,260.32,54.73,259.43z"/>
			</g>
			<g>
				<path class="st8" d="M43.34,252.57c2.1,2.04,4.99,2.47,6.46,0.96c1.46-1.51,0.95-4.39-1.15-6.43c-2.1-2.04-4.99-2.47-6.46-0.96
					C40.72,247.66,41.24,250.53,43.34,252.57z"/>
				<path class="st8" d="M44.96,249.95c0.97,3.01,3.11,4.49,4.77,3.31s2.22-4.59,1.25-7.6c-0.97-3.01-3.11-4.49-4.77-3.31
					C44.54,243.53,43.99,246.94,44.96,249.95z"/>
			</g>
		</g>
	</g>
	<g>
		<g>
			<path class="st7" d="M261.02,60.34c-3.52,0-6.56,1.44-8.04,3.54c-0.92,1.3-2.4,2.08-3.99,2.08h-3.69c-0.39,0-0.75,0.27-0.81,0.65
				c-0.08,0.49,0.3,0.91,0.77,0.91h3.74c1.59,0,3.08,0.78,3.99,2.08c1.48,2.1,4.52,3.54,8.04,3.54c4.97,0,8.99-2.87,8.99-6.4
				C270.02,63.2,265.99,60.34,261.02,60.34z"/>
			<g>
				<path class="st3" d="M259.53,73.05V60.43c-0.81,0.1-1.59,0.27-2.32,0.51v11.6C257.93,72.78,258.71,72.96,259.53,73.05z"/>
				<path class="st3" d="M266.36,61.59c-0.7-0.37-1.48-0.67-2.32-0.88v12.06c0.84-0.21,1.61-0.51,2.32-0.88V61.59z"/>
				<path class="st3" d="M262.94,73V60.48c-0.62-0.1-1.26-0.15-1.92-0.15c-0.13,0-0.26,0-0.4,0.01v12.79c0.13,0,0.26,0.01,0.4,0.01
					C261.68,73.14,262.33,73.09,262.94,73z"/>
			</g>
			<g>
				<ellipse class="st8" cx="261.93" cy="57.77" rx="5.15" ry="7.17"/>
				<path class="st8" d="M263,56.87c2,3.78,1.43,7.25-1.29,7.75c-2.72,0.5-6.54-2.17-8.55-5.95c-2-3.78-1.43-7.25,1.29-7.75
					C257.17,50.43,261,53.09,263,56.87z"/>
			</g>
			<g>
				<path class="st8" d="M267.08,74.39c0-3.96-2.31-7.17-5.15-7.17s-5.15,3.21-5.15,7.17c0,3.96,2.31,7.17,5.15,7.17
					S267.08,78.36,267.08,74.39z"/>
				<path class="st8" d="M263,75.3c2-3.78,1.43-7.25-1.29-7.75c-2.72-0.5-6.54,2.17-8.55,5.95c-2,3.78-1.43,7.25,1.29,7.75
					C257.17,81.74,261,79.08,263,75.3z"/>
			</g>
		</g>
		<g>
			<path class="st7" d="M239.33,100.21c0.87-2.45,0.61-4.93-0.48-6.48c-0.68-0.96-0.86-2.19-0.47-3.3l0.91-2.58
				c0.1-0.27,0-0.59-0.25-0.73c-0.32-0.18-0.71-0.02-0.83,0.31l-0.92,2.6c-0.39,1.11-1.3,1.95-2.43,2.27
				c-1.83,0.51-3.58,2.28-4.45,4.73c-1.22,3.46-0.22,6.97,2.25,7.84C235.12,105.77,238.11,103.67,239.33,100.21z"/>
			<g>
				<path class="st3" d="M230.84,96.04l8.8,3.11c0.13-0.59,0.2-1.18,0.21-1.74l-8.08-2.86C231.42,94.99,231.11,95.49,230.84,96.04z"
					/>
				<path class="st3" d="M237.14,103.63c0.43-0.4,0.83-0.87,1.18-1.4l-8.41-2.97c-0.06,0.64-0.04,1.25,0.04,1.83L237.14,103.63z"/>
				<path class="st3" d="M230.04,98.43l8.72,3.08c0.22-0.41,0.41-0.84,0.58-1.3c0.03-0.09,0.06-0.19,0.09-0.28l-8.92-3.15
					c-0.04,0.09-0.07,0.18-0.1,0.27C230.24,97.52,230.12,97.98,230.04,98.43z"/>
			</g>
			<g>
				<path class="st8" d="M239.63,105.07c-2.76-0.98-4.43-3.38-3.73-5.36c0.7-1.98,3.51-2.8,6.27-1.82c2.76,0.98,4.43,3.38,3.73,5.36
					C245.19,105.23,242.39,106.04,239.63,105.07z"/>
				<path class="st8" d="M241.26,102.45c-3.13,0.46-5.41-0.79-5.08-2.81c0.32-2.02,3.12-4.03,6.25-4.49
					c3.13-0.46,5.41,0.79,5.08,2.81C247.19,99.97,244.39,101.98,241.26,102.45z"/>
			</g>
			<g>
				<path class="st8" d="M228.04,100.97c2.76,0.98,5.57,0.16,6.27-1.82c0.7-1.98-0.97-4.38-3.73-5.36
					c-2.76-0.98-5.57-0.16-6.27,1.82C223.61,97.59,225.28,99.99,228.04,100.97z"/>
				<path class="st8" d="M228.42,97.91c2.14,2.33,4.7,2.78,5.72,1.01c1.02-1.77,0.1-5.09-2.04-7.42c-2.14-2.33-4.7-2.78-5.72-1.01
					C225.36,92.25,226.28,95.58,228.42,97.91z"/>
			</g>
		</g>
		<g>
			<path class="st7" d="M190.46,69.67c-2.24,1.32-3.64,3.38-3.79,5.27c-0.09,1.17-0.75,2.23-1.76,2.83l-2.35,1.39
				c-0.25,0.15-0.38,0.45-0.27,0.72c0.13,0.34,0.53,0.47,0.84,0.29l2.38-1.4c1.01-0.6,2.25-0.66,3.32-0.17
				c1.73,0.78,4.21,0.55,6.45-0.77c3.16-1.87,4.65-5.2,3.32-7.46C197.26,68.12,193.62,67.81,190.46,69.67z"/>
			<g>
				<path class="st3" d="M194.28,78.33l-4.74-8.04c-0.48,0.37-0.91,0.77-1.28,1.2l4.36,7.38C193.17,78.75,193.73,78.57,194.28,78.33
					z"/>
				<path class="st3" d="M194.33,68.46c-0.58,0.03-1.19,0.13-1.8,0.31l4.53,7.68c0.45-0.45,0.84-0.93,1.14-1.43L194.33,68.46z"/>
				<path class="st3" d="M196.44,77.01l-4.7-7.96c-0.43,0.17-0.86,0.38-1.28,0.63c-0.08,0.05-0.17,0.1-0.25,0.15l4.81,8.14
					c0.09-0.05,0.17-0.09,0.26-0.14C195.69,77.58,196.08,77.3,196.44,77.01z"/>
			</g>
			<g>
				<path class="st8" d="M193.35,65.77c1.49,2.52,1.23,5.43-0.58,6.5c-1.81,1.07-4.49-0.11-5.98-2.63c-1.49-2.52-1.23-5.43,0.58-6.5
					C189.19,62.06,191.86,63.24,193.35,65.77z"/>
				<path class="st8" d="M190.42,66.72c2.7,1.66,3.63,4.08,2.09,5.42c-1.54,1.34-4.98,1.08-7.68-0.58c-2.7-1.66-3.63-4.08-2.09-5.42
					C184.28,64.81,187.72,65.07,190.42,66.72z"/>
			</g>
			<g>
				<path class="st8" d="M199.59,76.35c-1.49-2.52-4.16-3.7-5.98-2.63c-1.81,1.07-2.07,3.98-0.58,6.5c1.49,2.52,4.16,3.7,5.98,2.63
					C200.82,81.78,201.08,78.87,199.59,76.35z"/>
				<path class="st8" d="M197.34,78.45c-0.15-3.16-1.82-5.15-3.73-4.45c-1.92,0.7-3.35,3.84-3.21,7c0.15,3.16,1.82,5.15,3.73,4.45
					C196.05,84.75,197.48,81.61,197.34,78.45z"/>
			</g>
		</g>
		<g>
			<path class="st7" d="M184.58,109.54c2.21-1.37,3.57-3.46,3.68-5.35c0.07-1.17,0.7-2.24,1.7-2.86l2.32-1.44
				c0.25-0.15,0.37-0.46,0.26-0.73c-0.14-0.34-0.54-0.46-0.84-0.27l-2.35,1.45c-1,0.62-2.24,0.71-3.32,0.24
				c-1.74-0.74-4.22-0.47-6.43,0.9c-3.12,1.93-4.54,5.3-3.16,7.52C177.81,111.23,181.46,111.47,184.58,109.54z"/>
			<g>
				<path class="st3" d="M180.58,100.96l4.91,7.94c0.47-0.38,0.89-0.79,1.26-1.22l-4.51-7.29
					C181.68,100.51,181.12,100.7,180.58,100.96z"/>
				<path class="st3" d="M180.74,110.83c0.58-0.04,1.19-0.16,1.8-0.35l-4.69-7.58c-0.44,0.46-0.82,0.95-1.11,1.45L180.74,110.83z"/>
				<path class="st3" d="M178.45,102.33l4.87,7.86c0.43-0.18,0.85-0.4,1.26-0.65c0.08-0.05,0.17-0.11,0.25-0.16l-4.98-8.04
					c-0.08,0.05-0.17,0.1-0.25,0.15C179.18,101.74,178.8,102.02,178.45,102.33z"/>
			</g>
			<g>
				<path class="st8" d="M181.77,113.5c-1.54-2.49-1.34-5.41,0.45-6.51c1.79-1.11,4.49,0.02,6.03,2.51
					c1.54,2.49,1.34,5.41-0.45,6.51S183.31,115.99,181.77,113.5z"/>
				<path class="st8" d="M184.68,112.48c-2.73-1.6-3.72-4-2.2-5.37c1.51-1.37,4.96-1.18,7.69,0.42c2.73,1.6,3.72,4,2.2,5.37
					C190.86,114.27,187.41,114.08,184.68,112.48z"/>
			</g>
			<g>
				<path class="st8" d="M175.3,103.05c1.54,2.49,4.24,3.61,6.03,2.51c1.79-1.11,1.99-4.02,0.45-6.51
					c-1.54-2.49-4.24-3.61-6.03-2.51C173.96,97.65,173.76,100.56,175.3,103.05z"/>
				<path class="st8" d="M177.52,100.9c0.21,3.16,1.92,5.11,3.83,4.37c1.9-0.74,3.27-3.91,3.06-7.06c-0.21-3.16-1.92-5.11-3.83-4.37
					C178.67,94.58,177.31,97.74,177.52,100.9z"/>
			</g>
		</g>
	</g>
	<g>
		<g>
			<path class="st12" d="M230.33,178.33c0.08,3.56-2.49,8.82-2.49,8.82s-2.41-5.15-2.49-8.71c0-0.04,0-0.07,0-0.11
				c-0.02-3.13,4.86-3.24,4.97-0.11C230.33,178.26,230.33,178.29,230.33,178.33z"/>
			<path class="st12" d="M234.25,184.57c-2.6,2.43-6.41,2.58-6.41,2.58s0.41-3.79,3.01-6.21c0.03-0.03,0.06-0.05,0.08-0.08
				c2.3-2.08,5.63,1.49,3.39,3.63C234.31,184.51,234.28,184.54,234.25,184.57z"/>
			<path class="st12" d="M224.04,180.6c3.04,2.44,3.81,6.55,3.81,6.55s-4.17,0.15-7.22-2.29c-0.64-0.51-1.18-1.1-1.63-1.71
				c-1.54-2.06,0.68-4.82,3.02-3.77C222.71,179.68,223.4,180.08,224.04,180.6z"/>
		</g>
		<g>
			<path class="st12" d="M256.4,226.32c0.03,1.48-1.03,3.67-1.03,3.67s-1-2.14-1.03-3.62c0-0.01,0-0.03,0-0.04
				c-0.01-1.3,2.02-1.35,2.07-0.04C256.39,226.29,256.39,226.3,256.4,226.32z"/>
			<path class="st12" d="M258.03,228.91c-1.08,1.01-2.66,1.07-2.66,1.07s0.17-1.57,1.25-2.58c0.01-0.01,0.02-0.02,0.04-0.03
				c0.96-0.87,2.34,0.62,1.41,1.51C258.05,228.89,258.04,228.9,258.03,228.91z"/>
			<path class="st12" d="M253.78,227.26c1.27,1.02,1.58,2.72,1.58,2.72s-1.74,0.06-3-0.95c-0.27-0.21-0.49-0.46-0.68-0.71
				c-0.64-0.86,0.28-2,1.26-1.57C253.22,226.88,253.51,227.05,253.78,227.26z"/>
		</g>
		<g>
			<path class="st12" d="M212.71,225.01c0.03,1.48-1.03,3.67-1.03,3.67s-1-2.14-1.03-3.62c0-0.01,0-0.03,0-0.04
				c-0.01-1.3,2.02-1.35,2.07-0.04C212.71,224.98,212.71,225,212.71,225.01z"/>
			<path class="st12" d="M214.35,227.61c-1.08,1.01-2.66,1.07-2.66,1.07s0.17-1.57,1.25-2.58c0.01-0.01,0.02-0.02,0.03-0.03
				c0.96-0.87,2.34,0.62,1.41,1.51C214.37,227.59,214.36,227.6,214.35,227.61z"/>
			<path class="st12" d="M210.1,225.96c1.27,1.02,1.58,2.72,1.58,2.72s-1.74,0.06-3-0.95c-0.27-0.21-0.49-0.46-0.68-0.71
				c-0.64-0.86,0.28-2,1.26-1.57C209.54,225.58,209.83,225.74,210.1,225.96z"/>
		</g>
		<g>
			<path class="st12" d="M205.15,249.83c0.03,1.48-1.03,3.67-1.03,3.67s-1-2.14-1.03-3.62c0-0.01,0-0.03,0-0.04
				c-0.01-1.3,2.02-1.35,2.07-0.04C205.15,249.8,205.15,249.81,205.15,249.83z"/>
			<path class="st12" d="M206.78,252.42c-1.08,1.01-2.66,1.07-2.66,1.07s0.17-1.57,1.25-2.58c0.01-0.01,0.02-0.02,0.04-0.03
				c0.96-0.87,2.34,0.62,1.41,1.51C206.81,252.4,206.79,252.41,206.78,252.42z"/>
			<path class="st12" d="M202.53,250.77c1.27,1.02,1.58,2.72,1.58,2.72s-1.74,0.06-3-0.95c-0.27-0.21-0.49-0.46-0.68-0.71
				c-0.64-0.86,0.28-2,1.26-1.57C201.98,250.39,202.27,250.56,202.53,250.77z"/>
		</g>
		<g>
			<path class="st12" d="M229.61,256.7c0.03,1.48-1.03,3.67-1.03,3.67s-1-2.14-1.03-3.62c0-0.01,0-0.03,0-0.04
				c-0.01-1.3,2.02-1.35,2.07-0.04C229.61,256.67,229.61,256.69,229.61,256.7z"/>
			<path class="st12" d="M231.24,259.29c-1.08,1.01-2.66,1.07-2.66,1.07s0.17-1.57,1.25-2.58c0.01-0.01,0.02-0.02,0.04-0.03
				c0.96-0.87,2.34,0.62,1.41,1.51C231.27,259.27,231.26,259.28,231.24,259.29z"/>
			<path class="st12" d="M227,257.64c1.27,1.02,1.58,2.72,1.58,2.72s-1.74,0.06-3-0.95c-0.27-0.21-0.49-0.46-0.68-0.71
				c-0.64-0.86,0.28-2,1.26-1.57C226.44,257.26,226.73,257.43,227,257.64z"/>
		</g>
		<g>
			<path class="st12" d="M251.54,254.19c0.03,1.48-1.03,3.67-1.03,3.67s-1-2.14-1.03-3.62c0-0.01,0-0.03,0-0.04
				c-0.01-1.3,2.02-1.35,2.07-0.04C251.54,254.16,251.54,254.17,251.54,254.19z"/>
			<path class="st12" d="M253.17,256.78c-1.08,1.01-2.66,1.07-2.66,1.07s0.17-1.57,1.25-2.58c0.01-0.01,0.02-0.02,0.04-0.03
				c0.96-0.87,2.34,0.62,1.41,1.51C253.19,256.76,253.18,256.77,253.17,256.78z"/>
			<path class="st12" d="M248.92,255.13c1.27,1.02,1.58,2.72,1.58,2.72s-1.74,0.06-3-0.95c-0.27-0.21-0.49-0.46-0.68-0.71
				c-0.64-0.86,0.28-2,1.26-1.57C248.37,254.75,248.65,254.92,248.92,255.13z"/>
		</g>
		<g>
			<path class="st12" d="M341.18,308.56c0.08,3.56-2.49,8.82-2.49,8.82s-2.41-5.15-2.49-8.71c0-0.04,0-0.07,0-0.11
				c-0.02-3.13,4.86-3.24,4.97-0.11C341.18,308.49,341.18,308.53,341.18,308.56z"/>
			<path class="st12" d="M345.1,314.8c-2.6,2.43-6.41,2.58-6.41,2.58s0.41-3.79,3.01-6.21c0.03-0.03,0.06-0.05,0.08-0.08
				c2.3-2.08,5.63,1.49,3.39,3.63C345.15,314.75,345.13,314.77,345.1,314.8z"/>
			<path class="st12" d="M334.88,310.83c3.04,2.44,3.81,6.55,3.81,6.55s-4.17,0.15-7.22-2.29c-0.64-0.51-1.18-1.1-1.63-1.71
				c-1.54-2.06,0.68-4.82,3.02-3.77C333.55,309.91,334.24,310.31,334.88,310.83z"/>
		</g>
		<g>
			<path class="st12" d="M260.07,336.96c0.08,3.56-2.49,8.82-2.49,8.82s-2.41-5.15-2.49-8.71c0-0.04,0-0.07,0-0.11
				c-0.02-3.13,4.86-3.24,4.97-0.11C260.07,336.89,260.07,336.92,260.07,336.96z"/>
			<path class="st12" d="M263.99,343.19c-2.6,2.43-6.41,2.58-6.41,2.58s0.41-3.79,3.01-6.21c0.03-0.03,0.06-0.05,0.08-0.08
				c2.3-2.08,5.63,1.49,3.39,3.63C264.05,343.14,264.02,343.17,263.99,343.19z"/>
			<path class="st12" d="M253.78,339.22c3.04,2.44,3.81,6.55,3.81,6.55s-4.17,0.15-7.22-2.29c-0.64-0.51-1.18-1.1-1.63-1.71
				c-1.54-2.06,0.68-4.82,3.02-3.77C252.44,338.31,253.14,338.71,253.78,339.22z"/>
		</g>
		<g>
			<path class="st12" d="M335.74,119.51c0.08,3.56-2.49,8.82-2.49,8.82s-2.41-5.15-2.49-8.71c0-0.04,0-0.07,0-0.11
				c-0.02-3.13,4.86-3.24,4.97-0.11C335.74,119.44,335.74,119.47,335.74,119.51z"/>
			<path class="st12" d="M339.66,125.75c-2.6,2.43-6.41,2.58-6.41,2.58s0.41-3.79,3.01-6.21c0.03-0.03,0.06-0.05,0.08-0.08
				c2.3-2.08,5.63,1.49,3.39,3.63C339.71,125.69,339.69,125.72,339.66,125.75z"/>
			<path class="st12" d="M329.44,121.78c3.04,2.44,3.81,6.55,3.81,6.55s-4.17,0.15-7.22-2.29c-0.64-0.51-1.18-1.1-1.64-1.71
				c-1.54-2.06,0.68-4.82,3.02-3.77C328.11,120.86,328.8,121.26,329.44,121.78z"/>
		</g>
		<g>
			<path class="st12" d="M105.57,301.86c0.08,3.56-2.49,8.82-2.49,8.82s-2.41-5.15-2.49-8.71c0-0.04,0-0.07,0-0.11
				c-0.02-3.13,4.86-3.24,4.97-0.11C105.57,301.79,105.57,301.82,105.57,301.86z"/>
			<path class="st12" d="M109.49,308.09c-2.6,2.43-6.41,2.58-6.41,2.58s0.41-3.79,3.01-6.21c0.03-0.03,0.06-0.05,0.08-0.08
				c2.3-2.08,5.63,1.49,3.39,3.63C109.54,308.04,109.52,308.07,109.49,308.09z"/>
			<path class="st12" d="M99.27,304.12c3.04,2.44,3.81,6.55,3.81,6.55s-4.17,0.15-7.22-2.29c-0.64-0.51-1.18-1.1-1.63-1.71
				c-1.54-2.06,0.68-4.82,3.02-3.77C97.94,303.21,98.63,303.61,99.27,304.12z"/>
		</g>
		<g>
			<path class="st12" d="M97.27,366.61c0.08,3.56-2.49,8.82-2.49,8.82s-2.41-5.15-2.49-8.71c0-0.04,0-0.07,0-0.11
				c-0.02-3.13,4.86-3.24,4.97-0.11C97.27,366.54,97.27,366.58,97.27,366.61z"/>
			<path class="st12" d="M101.19,372.85c-2.6,2.43-6.41,2.58-6.41,2.58s0.41-3.79,3.01-6.21c0.03-0.03,0.06-0.05,0.08-0.08
				c2.3-2.08,5.63,1.49,3.39,3.63C101.25,372.8,101.22,372.82,101.19,372.85z"/>
			<path class="st12" d="M90.98,368.88c3.04,2.44,3.81,6.55,3.81,6.55s-4.17,0.15-7.22-2.29c-0.64-0.51-1.18-1.1-1.63-1.71
				c-1.54-2.06,0.68-4.82,3.02-3.77C89.64,367.96,90.34,368.36,90.98,368.88z"/>
		</g>
		<g>
			<path class="st12" d="M308.41,156.77c0.08,3.56-2.49,8.82-2.49,8.82s-2.41-5.15-2.49-8.71c0-0.04,0-0.07,0-0.11
				c-0.02-3.13,4.86-3.24,4.97-0.11C308.41,156.7,308.41,156.74,308.41,156.77z"/>
			<path class="st12" d="M312.33,163.01c-2.6,2.43-6.41,2.58-6.41,2.58s0.41-3.79,3.01-6.21c0.03-0.03,0.06-0.05,0.08-0.08
				c2.3-2.08,5.63,1.49,3.39,3.63C312.39,162.96,312.36,162.99,312.33,163.01z"/>
			<path class="st12" d="M302.12,159.04c3.04,2.44,3.81,6.55,3.81,6.55s-4.17,0.15-7.22-2.29c-0.64-0.51-1.18-1.1-1.63-1.71
				c-1.54-2.06,0.68-4.82,3.02-3.77C300.78,158.13,301.48,158.53,302.12,159.04z"/>
		</g>
		<g>
			<path class="st12" d="M164.38,284.06c0.08,3.56-2.49,8.82-2.49,8.82s-2.41-5.15-2.49-8.71c0-0.04,0-0.07,0-0.11
				c-0.02-3.13,4.86-3.24,4.97-0.11C164.37,283.98,164.37,284.02,164.38,284.06z"/>
			<path class="st12" d="M168.3,290.29c-2.6,2.43-6.41,2.58-6.41,2.58s0.41-3.79,3.01-6.21c0.03-0.03,0.06-0.05,0.08-0.08
				c2.3-2.08,5.63,1.49,3.39,3.63C168.35,290.24,168.32,290.27,168.3,290.29z"/>
			<path class="st12" d="M158.08,286.32c3.04,2.44,3.81,6.55,3.81,6.55s-4.17,0.15-7.22-2.29c-0.64-0.51-1.18-1.1-1.63-1.71
				c-1.54-2.06,0.68-4.82,3.02-3.77C156.75,285.41,157.44,285.81,158.08,286.32z"/>
		</g>
		<g>
			<path class="st12" d="M256.95,410.69c0.08,3.56-2.49,8.82-2.49,8.82s-2.41-5.15-2.49-8.71c0-0.04,0-0.07,0-0.11
				c-0.02-3.13,4.86-3.24,4.97-0.11C256.95,410.62,256.95,410.66,256.95,410.69z"/>
			<path class="st12" d="M260.87,416.93c-2.6,2.43-6.41,2.58-6.41,2.58s0.41-3.79,3.01-6.21c0.03-0.03,0.06-0.05,0.08-0.08
				c2.3-2.08,5.63,1.49,3.39,3.63C260.93,416.88,260.9,416.9,260.87,416.93z"/>
			<path class="st12" d="M250.66,412.96c3.04,2.44,3.81,6.55,3.81,6.55s-4.17,0.15-7.22-2.29c-0.64-0.51-1.18-1.1-1.64-1.71
				c-1.53-2.06,0.68-4.82,3.02-3.77C249.32,412.04,250.02,412.44,250.66,412.96z"/>
		</g>
		<path class="st15" d="M178.68,338.83c-20.25,0-39.24-4.63-57.22-9c-13.96-3.4-27.2-6.62-39.77-7.29c-2-0.11-3.55-1.76-3.53-3.76v0
			c0.03-2.11,1.8-3.79,3.91-3.68c13.25,0.69,26.84,4,41.15,7.49c40.1,9.76,85.55,20.83,138.43-25.35
			c19.09-16.67,34.45-27.51,47.31-33.31c1.16-0.52,1.95-1.62,2.13-2.88c1.75-11.9,4.97-21.2,7.76-29.26
			c4.25-12.28,7.61-21.99,4.03-35.07c-1.45-5.31-5.53-10.09-11.49-13.46c-7.4-4.18-16.73-5.61-23.77-3.63
			c-15.86,4.47-27.85,13.06-39.45,21.38c-14.76,10.58-28.7,20.57-47.18,18.09c-12.86-1.72-24.81-10.98-35.59-27.54
			c-1.14-1.76-0.6-4.12,1.2-5.21l0,0c1.72-1.04,3.96-0.52,5.05,1.16c9.52,14.65,19.71,22.79,30.33,24.21
			c15.55,2.08,27.74-6.65,41.85-16.77c11.56-8.28,24.66-17.67,41.77-22.49c8.98-2.53,20.27-0.88,29.45,4.31
			c7.7,4.35,13.03,10.73,15.01,17.97c4.19,15.3,0.31,26.5-4.18,39.47c-2.64,7.63-5.49,15.87-7.17,26.14
			c0.53-0.14,1.05-0.28,1.56-0.4c16.45-3.92,26.22,2.94,32.88,9.36c14.08,13.56,16.3,38.11,4.84,53.61
			c-4.8,6.49-15.9,16.67-27.08,13.68c-8.22-2.19-14.19-10.98-17.74-26.1c-1.18-5.01-2.69-13.33-3.22-24.55
			c-0.13-2.77-0.18-5.43-0.16-7.98c0.03-2.89-3.07-4.7-5.58-3.27c-9.99,5.71-22.28,14.69-37.67,28.13
			C234.72,330.66,205.6,338.83,178.68,338.83z M320.19,267.65c-1.51,0.43-2.57,1.78-2.68,3.35c-0.3,4.48-0.36,9.33-0.11,14.63
			c0.88,18.55,5.45,41.15,15.45,43.82c6.75,1.8,15.35-5.74,19.17-10.92c9.35-12.65,7.51-32.72-4.02-43.82
			C341.66,268.59,334.1,263.68,320.19,267.65z"/>
		<path class="st15" d="M244.66,440.95c-10.17,0-16.79-3.08-19.68-9.19c-4.48-9.46,0.95-25,16.6-47.49l0,0
			c0.68-0.98,0.18-2.34-0.98-2.64c-3.31-0.87-6.81-1.61-10.48-2.21c-23.78-3.89-53.7-2.19-88.94,5.07l-1.02,0.21
			c-21.77,4.49-62.3,12.84-81.12-2.49c-5.64-4.59-8.89-10.89-9.71-18.75c-0.23-2.19,1.51-4.1,3.71-4.1l0,0c1.9,0,3.5,1.44,3.69,3.33
			c0.61,5.89,2.92,10.41,7.01,13.74c16.08,13.1,55.82,4.91,74.91,0.97l1.03-0.21c36.13-7.44,66.97-9.16,91.64-5.12
			c5.67,0.93,10.71,2.11,15.19,3.47c0.69,0.21,1.42-0.03,1.86-0.6c12.33-16.29,25.91-31.12,31.84-37.42
			c45.51-48.38,65.41-76.93,63.07-118.17c-0.69-12.11-4.3-25.25-9.26-38.55c-0.52-1.4-2.47-1.52-3.13-0.18
			c-6.36,12.73-13.79,26-22.22,39.58c-14.48,23.32-33.57,41.26-55.22,51.88c-20.54,10.07-42.22,12.76-61.05,7.56
			c-15.68-4.33-28.88-13.96-38.17-27.85c-9.54-14.26-14.81-32.42-15.69-54.03c-0.09-2.09,1.57-3.86,3.66-3.89l0,0
			c2.02-0.03,3.69,1.55,3.78,3.57c1.64,39.71,19.16,66.96,48.4,75.03c36.74,10.14,81.13-12.97,107.97-56.19
			c10.01-16.13,18.85-32.36,26.11-47.89c0.21-0.44,0.21-0.94,0.02-1.39c-4.15-9.71-8.72-19.33-13.08-28.53
			c-14.47-30.49-26.97-56.83-18.58-72.38c3.56-6.6,10.62-10.67,20.99-12.12c10.98-1.53,25.82-0.66,34.15,12.15
			c11.91,18.31,6.01,55.59-14.69,101.14c-0.19,0.43-0.2,0.92-0.03,1.36c7.03,17.06,12.57,34.35,13.47,50.3
			c2.5,43.98-18.06,73.7-65.08,123.69c-5.51,5.86-17.77,19.24-29.32,34.2c-0.68,0.88-0.35,2.16,0.65,2.62
			c9.85,4.45,15.84,9.73,19.45,14.18c7.03,8.66,8.8,18.82,4.85,27.89c-4.79,11.01-17.01,18.24-32.69,19.31
			C247.22,440.9,245.91,440.95,244.66,440.95z M251.61,385.27c-0.73-0.3-1.58-0.05-2.04,0.59c-0.63,0.89-1.26,1.77-1.88,2.66
			c-18.1,26.01-17.78,36.26-15.99,40.05c1.81,3.81,7.31,5.43,16.36,4.81c12.85-0.89,22.71-6.44,26.37-14.86
			c2.84-6.53,1.49-13.71-3.81-20.23C266.41,393.09,259.91,388.67,251.61,385.27z M325.67,60.84c-2.15,0-4.43,0.17-6.85,0.5
			c-8,1.11-13.06,3.82-15.46,8.28c-6.6,12.23,5.72,38.18,18.76,65.65c3.03,6.39,6.16,12.98,9.19,19.67
			c0.62,1.37,2.56,1.34,3.14-0.04c4.02-9.58,7.37-18.79,9.93-27.4c7.82-26.26,8.29-46.61,1.33-57.32
			C341.67,63.97,334.94,60.84,325.67,60.84z"/>
		<g>
			<path class="st13" d="M361.25,237.13c-0.02,0.92-2.17,0.59-3.24,0.67c-1.06,0.08-1.96,0-1.96,0v1.34c0,0,2.55,0.08,3.29,0
				c0.74-0.08,1.83,1.09,1.83,1.09L361.25,237.13z"/>
			<g>
				<path class="st12" d="M357.56,236.83c-0.08,0.89-0.76,1.55-0.76,1.55s-0.56-0.77-0.48-1.66c0.08-0.89,0.76-1.55,0.76-1.55
					S357.64,235.94,357.56,236.83z"/>
				<path class="st12" d="M358.32,238.27c-0.58,0.29-1.35,0.25-1.35,0.25s0.17-0.51,0.74-0.8c0.58-0.29,1.35-0.25,1.35-0.25
					S358.89,237.98,358.32,238.27z"/>
				<path class="st12" d="M355.96,237.54c0.56,0.38,0.62,0.95,0.62,0.95s-0.84-0.04-1.4-0.42c-0.56-0.38-0.62-0.95-0.62-0.95
					S355.4,237.16,355.96,237.54z"/>
				<path class="st12" d="M355.88,240.05c0.17-0.87,0.92-1.46,0.92-1.46s0.47,0.83,0.3,1.7c-0.17,0.87-0.92,1.46-0.92,1.46
					S355.71,240.92,355.88,240.05z"/>
				<path class="st12" d="M355.23,238.7c0.62-0.25,1.38-0.16,1.38-0.16s-0.24,0.49-0.86,0.74c-0.62,0.25-1.38,0.16-1.38,0.16
					S354.61,238.95,355.23,238.7z"/>
				<path class="st12" d="M357.46,239.6c-0.5-0.41-0.47-0.98-0.47-0.98s0.83,0.1,1.33,0.51c0.5,0.41,0.47,0.98,0.47,0.98
					S357.96,240.01,357.46,239.6z"/>
			</g>
			<path class="st13" d="M361.33,256.39c-0.02,0.92-2.17,0.59-3.24,0.67c-1.06,0.08-1.96,0-1.96,0v1.34c0,0,2.55,0.08,3.29,0
				c0.74-0.08,1.83,1.09,1.83,1.09L361.33,256.39z"/>
			<g>
				<path class="st12" d="M357.64,256.09c-0.08,0.89-0.76,1.55-0.76,1.55s-0.56-0.77-0.48-1.66c0.08-0.89,0.76-1.55,0.76-1.55
					S357.72,255.2,357.64,256.09z"/>
				<path class="st12" d="M358.4,257.54c-0.58,0.29-1.35,0.25-1.35,0.25s0.17-0.51,0.74-0.8c0.58-0.29,1.35-0.25,1.35-0.25
					S358.98,257.25,358.4,257.54z"/>
				<path class="st12" d="M356.04,256.8c0.56,0.38,0.62,0.95,0.62,0.95s-0.84-0.04-1.4-0.42c-0.56-0.38-0.62-0.95-0.62-0.95
					S355.48,256.43,356.04,256.8z"/>
				<path class="st12" d="M355.97,259.31c0.17-0.87,0.92-1.46,0.92-1.46s0.47,0.83,0.3,1.7c-0.17,0.87-0.92,1.46-0.92,1.46
					S355.8,260.19,355.97,259.31z"/>
				<path class="st12" d="M355.31,257.97c0.62-0.25,1.38-0.16,1.38-0.16s-0.24,0.49-0.86,0.74c-0.62,0.25-1.38,0.16-1.38,0.16
					S354.69,258.22,355.31,257.97z"/>
				<path class="st12" d="M357.54,258.86c-0.5-0.41-0.47-0.98-0.47-0.98s0.83,0.1,1.33,0.51c0.5,0.41,0.47,0.98,0.47,0.98
					S358.04,259.28,357.54,258.86z"/>
			</g>
			<path class="st13" d="M369.46,256.62c0.02-0.92,2.17-0.59,3.24-0.67c1.06-0.08,1.96,0,1.96,0v-1.34c0,0-2.55-0.08-3.29,0
				c-0.74,0.08-1.83-1.09-1.83-1.09L369.46,256.62z"/>
			<g>
				<path class="st12" d="M373.14,256.93c0.08-0.89,0.76-1.55,0.76-1.55s0.56,0.77,0.48,1.66c-0.08,0.89-0.76,1.55-0.76,1.55
					S373.07,257.81,373.14,256.93z"/>
				<path class="st12" d="M372.39,255.48c0.58-0.29,1.35-0.25,1.35-0.25s-0.17,0.51-0.74,0.8c-0.58,0.29-1.35,0.25-1.35,0.25
					S371.81,255.77,372.39,255.48z"/>
				<path class="st12" d="M374.75,256.21c-0.56-0.38-0.62-0.95-0.62-0.95s0.84,0.04,1.4,0.42s0.62,0.95,0.62,0.95
					S375.31,256.59,374.75,256.21z"/>
				<path class="st12" d="M374.82,253.7c-0.17,0.87-0.92,1.46-0.92,1.46s-0.47-0.83-0.3-1.7c0.17-0.87,0.92-1.46,0.92-1.46
					S374.99,252.83,374.82,253.7z"/>
				<path class="st12" d="M375.48,255.05c-0.62,0.25-1.38,0.16-1.38,0.16s0.24-0.49,0.86-0.74c0.62-0.25,1.38-0.16,1.38-0.16
					S376.1,254.8,375.48,255.05z"/>
				<path class="st12" d="M373.24,254.15c0.5,0.41,0.47,0.98,0.47,0.98s-0.83-0.1-1.33-0.51c-0.5-0.41-0.47-0.98-0.47-0.98
					S372.74,253.74,373.24,254.15z"/>
			</g>
			<path class="st13" d="M368.02,243.62c0.02-0.92,2.17-0.59,3.24-0.67c1.06-0.08,1.96,0,1.96,0v-1.34c0,0-2.55-0.08-3.29,0
				c-0.74,0.08-1.83-1.09-1.83-1.09L368.02,243.62z"/>
			<g>
				<path class="st12" d="M371.71,243.92c0.08-0.89,0.76-1.55,0.76-1.55s0.56,0.77,0.48,1.66c-0.08,0.89-0.76,1.55-0.76,1.55
					S371.63,244.81,371.71,243.92z"/>
				<path class="st12" d="M370.95,242.47c0.58-0.29,1.35-0.25,1.35-0.25s-0.17,0.51-0.74,0.8c-0.58,0.29-1.35,0.25-1.35,0.25
					S370.37,242.76,370.95,242.47z"/>
				<path class="st12" d="M373.31,243.21c-0.56-0.38-0.62-0.95-0.62-0.95s0.84,0.04,1.4,0.42c0.56,0.38,0.62,0.95,0.62,0.95
					S373.87,243.58,373.31,243.21z"/>
				<path class="st12" d="M373.38,240.7c-0.17,0.87-0.92,1.46-0.92,1.46s-0.47-0.83-0.3-1.7c0.17-0.87,0.92-1.46,0.92-1.46
					S373.55,239.82,373.38,240.7z"/>
				<path class="st12" d="M374.04,242.04c-0.62,0.25-1.38,0.16-1.38,0.16s0.24-0.49,0.86-0.74c0.62-0.25,1.38-0.16,1.38-0.16
					S374.66,241.79,374.04,242.04z"/>
				<path class="st12" d="M371.81,241.15c0.5,0.41,0.47,0.98,0.47,0.98s-0.83-0.1-1.33-0.51s-0.47-0.98-0.47-0.98
					S371.31,240.73,371.81,241.15z"/>
			</g>
			<polygon class="st14" points="359.39,269.88 361.02,229.92 368.2,229.92 371.46,270.08 			"/>
			<path class="st13" d="M361.55,229.92c-0.33,4.62-0.69,19.83-0.69,26.31c0,6.48-0.72,13.66-0.72,13.66h1.41
				c0,0,0.11-11.59,0-16.52c-0.11-4.93,0.8-23.45,0.8-23.45H361.55z"/>
			<path class="st13" d="M364.5,229.92c0.07,6.26,0.29,19.87,0,25.42c-0.29,5.55-0.19,14.63-0.19,14.63h0.34
				c0,0-0.04-8.4,0.29-17.74c0.33-9.34,0-22.31,0-22.31H364.5z"/>
			<path class="st13" d="M367.37,229.92c0.07,6.26,1.91,19.87,1.62,25.42c-0.29,5.55-0.19,14.63-0.19,14.63h0.34
				c0,0-0.04-8.4,0.29-17.74c0.33-9.34-1.62-22.31-1.62-22.31H367.37z"/>
			<path class="st13" d="M366.57,229.92c0.18,6.65-0.22,8.67-0.14,17.22c0.07,8.55-0.01,22.86-0.01,22.86h1.6
				c0,0-0.66-12.69-0.8-19.23s-0.25-20.85-0.25-20.85H366.57z"/>
			<path class="st13" d="M362.31,229.92c0.18,6.65-0.22,8.67-0.14,17.22c0.07,8.55-0.01,22.86-0.01,22.86h1.6
				c0,0-0.66-12.69-0.8-19.23c-0.14-6.54-0.25-20.85-0.25-20.85H362.31z"/>
		</g>
		<g>
			<path class="st13" d="M116.03,218.05c-0.03,1.16-2.74,0.74-4.07,0.85c-1.34,0.11-2.47,0-2.47,0v1.69c0,0,3.21,0.11,4.14,0
				c0.94-0.11,2.3,1.37,2.3,1.37L116.03,218.05z"/>
			<g>
				<path class="st12" d="M111.39,217.67c-0.1,1.12-0.96,1.95-0.96,1.95s-0.7-0.97-0.6-2.09c0.1-1.12,0.96-1.95,0.96-1.95
					S111.49,216.55,111.39,217.67z"/>
				<path class="st12" d="M112.34,219.49c-0.73,0.37-1.69,0.32-1.69,0.32s0.21-0.64,0.94-1.01c0.73-0.37,1.69-0.32,1.69-0.32
					S113.07,219.13,112.34,219.49z"/>
				<path class="st12" d="M109.37,218.57c0.7,0.47,0.78,1.19,0.78,1.19s-1.06-0.05-1.77-0.53c-0.7-0.47-0.78-1.19-0.78-1.19
					S108.66,218.1,109.37,218.57z"/>
				<path class="st12" d="M109.28,221.73c0.21-1.1,1.16-1.84,1.16-1.84s0.59,1.04,0.38,2.14c-0.21,1.1-1.16,1.84-1.16,1.84
					S109.06,222.83,109.28,221.73z"/>
				<path class="st12" d="M108.45,220.04c0.78-0.31,1.74-0.2,1.74-0.2s-0.31,0.62-1.09,0.93s-1.74,0.2-1.74,0.2
					S107.67,220.35,108.45,220.04z"/>
				<path class="st12" d="M111.26,221.16c-0.63-0.52-0.59-1.24-0.59-1.24s1.05,0.13,1.67,0.65c0.63,0.52,0.59,1.24,0.59,1.24
					S111.89,221.69,111.26,221.16z"/>
			</g>
			<path class="st13" d="M116.14,242.3c-0.03,1.16-2.74,0.74-4.07,0.85c-1.34,0.11-2.47,0-2.47,0v1.69c0,0,3.21,0.11,4.14,0
				c0.94-0.11,2.3,1.37,2.3,1.37L116.14,242.3z"/>
			<g>
				<path class="st12" d="M111.49,241.92c-0.1,1.12-0.96,1.95-0.96,1.95s-0.7-0.97-0.6-2.09c0.1-1.12,0.96-1.95,0.96-1.95
					S111.59,240.81,111.49,241.92z"/>
				<path class="st12" d="M112.45,243.75c-0.73,0.37-1.69,0.32-1.69,0.32s0.21-0.64,0.94-1.01c0.73-0.37,1.69-0.32,1.69-0.32
					S113.17,243.38,112.45,243.75z"/>
				<path class="st12" d="M109.47,242.82c0.7,0.47,0.78,1.19,0.78,1.19s-1.06-0.05-1.77-0.53c-0.7-0.47-0.78-1.19-0.78-1.19
					S108.77,242.35,109.47,242.82z"/>
				<path class="st12" d="M109.38,245.99c0.21-1.1,1.16-1.84,1.16-1.84s0.59,1.04,0.38,2.14c-0.21,1.1-1.16,1.84-1.16,1.84
					S109.17,247.08,109.38,245.99z"/>
				<path class="st12" d="M108.56,244.29c0.78-0.31,1.74-0.2,1.74-0.2s-0.31,0.62-1.09,0.93c-0.78,0.31-1.74,0.2-1.74,0.2
					S107.78,244.6,108.56,244.29z"/>
				<path class="st12" d="M111.37,245.42c-0.63-0.52-0.59-1.24-0.59-1.24s1.05,0.13,1.67,0.65s0.59,1.24,0.59,1.24
					S112,245.94,111.37,245.42z"/>
			</g>
			<path class="st13" d="M126.37,242.6c0.03-1.16,2.74-0.74,4.07-0.85c1.34-0.11,2.47,0,2.47,0v-1.69c0,0-3.21-0.11-4.14,0
				c-0.94,0.11-2.3-1.37-2.3-1.37L126.37,242.6z"/>
			<g>
				<path class="st12" d="M131.01,242.98c0.1-1.12,0.96-1.95,0.96-1.95s0.7,0.97,0.6,2.09c-0.1,1.12-0.96,1.95-0.96,1.95
					S130.91,244.09,131.01,242.98z"/>
				<path class="st12" d="M130.06,241.15c0.73-0.37,1.69-0.32,1.69-0.32s-0.21,0.64-0.94,1.01c-0.73,0.37-1.69,0.32-1.69,0.32
					S129.33,241.52,130.06,241.15z"/>
				<path class="st12" d="M133.03,242.08c-0.7-0.47-0.78-1.19-0.78-1.19s1.06,0.05,1.77,0.53c0.7,0.47,0.78,1.19,0.78,1.19
					S133.73,242.55,133.03,242.08z"/>
				<path class="st12" d="M133.12,238.92c-0.21,1.1-1.16,1.84-1.16,1.84s-0.59-1.04-0.38-2.14c0.21-1.1,1.16-1.84,1.16-1.84
					S133.33,237.82,133.12,238.92z"/>
				<path class="st12" d="M133.95,240.61c-0.78,0.31-1.74,0.2-1.74,0.2s0.31-0.62,1.09-0.93s1.74-0.2,1.74-0.2
					S134.73,240.3,133.95,240.61z"/>
				<path class="st12" d="M131.13,239.48c0.63,0.52,0.59,1.24,0.59,1.24s-1.05-0.13-1.67-0.65c-0.63-0.52-0.59-1.24-0.59-1.24
					S130.51,238.96,131.13,239.48z"/>
			</g>
			<path class="st13" d="M124.56,226.23c0.03-1.16,2.74-0.74,4.07-0.85c1.34-0.11,2.47,0,2.47,0v-1.69c0,0-3.21-0.11-4.14,0
				c-0.94,0.11-2.3-1.37-2.3-1.37L124.56,226.23z"/>
			<g>
				<path class="st12" d="M129.2,226.6c0.1-1.12,0.96-1.95,0.96-1.95s0.7,0.97,0.6,2.09c-0.1,1.12-0.96,1.95-0.96,1.95
					S129.1,227.72,129.2,226.6z"/>
				<path class="st12" d="M128.25,224.78c0.73-0.37,1.69-0.32,1.69-0.32s-0.21,0.64-0.94,1.01c-0.73,0.37-1.69,0.32-1.69,0.32
					S127.52,225.15,128.25,224.78z"/>
				<path class="st12" d="M131.22,225.7c-0.7-0.47-0.78-1.19-0.78-1.19s1.06,0.05,1.77,0.53c0.7,0.47,0.78,1.19,0.78,1.19
					S131.93,226.18,131.22,225.7z"/>
				<path class="st12" d="M131.31,222.54c-0.21,1.1-1.16,1.84-1.16,1.84s-0.59-1.04-0.38-2.14c0.21-1.1,1.16-1.84,1.16-1.84
					S131.53,221.44,131.31,222.54z"/>
				<path class="st12" d="M132.14,224.24c-0.78,0.31-1.74,0.2-1.74,0.2s0.31-0.62,1.09-0.93c0.78-0.31,1.74-0.2,1.74-0.2
					S132.92,223.92,132.14,224.24z"/>
				<path class="st12" d="M129.33,223.11c0.63,0.52,0.59,1.24,0.59,1.24s-1.05-0.13-1.67-0.65c-0.63-0.52-0.59-1.24-0.59-1.24
					S128.7,222.59,129.33,223.11z"/>
			</g>
			<polygon class="st14" points="113.7,259.3 115.75,208.97 124.79,208.97 128.89,259.55 			"/>
			<path class="st13" d="M116.42,208.97c-0.41,5.81-0.87,24.97-0.87,33.13c0,8.16-0.91,17.2-0.91,17.2h1.78c0,0,0.14-14.59,0-20.8
				c-0.14-6.21,1-29.53,1-29.53H116.42z"/>
			<path class="st13" d="M120.13,208.97c0.09,7.88,0.37,25.02,0,32.01c-0.37,6.99-0.24,18.42-0.24,18.42h0.43
				c0,0-0.05-10.58,0.36-22.34c0.41-11.76,0-28.09,0-28.09H120.13z"/>
			<path class="st13" d="M123.74,208.97c0.09,7.88,2.4,25.02,2.03,32.01c-0.37,6.99-0.24,18.42-0.24,18.42h0.43
				c0,0-0.05-10.58,0.36-22.34c0.41-11.76-2.04-28.09-2.04-28.09H123.74z"/>
			<path class="st13" d="M122.73,208.97c0.23,8.38-0.27,10.91-0.18,21.68c0.09,10.77-0.01,28.79-0.01,28.79h2.02
				c0,0-0.83-15.97-1.01-24.21c-0.18-8.24-0.31-26.26-0.31-26.26H122.73z"/>
			<path class="st13" d="M117.37,208.97c0.23,8.38-0.27,10.91-0.18,21.68c0.09,10.77-0.01,28.79-0.01,28.79h2.02
				c0,0-0.83-15.97-1.01-24.21c-0.18-8.24-0.31-26.26-0.31-26.26H117.37z"/>
		</g>
		<g>
			<path class="st7" d="M152.43,407.44c0.81-3.42,0.11-6.72-1.59-8.64c-1.06-1.19-1.47-2.82-1.1-4.36l0.85-3.6
				c0.09-0.38-0.09-0.79-0.45-0.94c-0.46-0.19-0.96,0.08-1.07,0.54l-0.86,3.64c-0.37,1.55-1.47,2.81-2.95,3.4
				c-2.38,0.95-4.49,3.58-5.3,7.01c-1.15,4.83,0.71,9.41,4.16,10.23C147.56,415.52,151.28,412.27,152.43,407.44z"/>
			<g>
				<path class="st3" d="M140.4,403.05l12.28,2.91c0.09-0.81,0.1-1.61,0.03-2.37l-11.28-2.68
					C141.03,401.56,140.68,402.28,140.4,403.05z"/>
				<path class="st3" d="M149.98,412.34c0.52-0.6,0.99-1.29,1.39-2.05l-11.74-2.78c0.01,0.86,0.12,1.69,0.32,2.46L149.98,412.34z"/>
				<path class="st3" d="M139.67,406.38l12.17,2.89c0.24-0.58,0.43-1.19,0.59-1.83c0.03-0.13,0.06-0.26,0.08-0.39l-12.45-2.95
					c-0.03,0.13-0.07,0.25-0.1,0.38C139.81,405.12,139.72,405.76,139.67,406.38z"/>
			</g>
			<g>
				<path class="st8" d="M153.52,413.92c-3.86-0.91-6.45-3.9-5.79-6.67s4.31-4.27,8.17-3.36c3.86,0.91,6.45,3.9,5.79,6.67
					C161.04,413.33,157.38,414.83,153.52,413.92z"/>
				<path class="st8" d="M155.34,410.16c-4.14,1.08-7.39-0.28-7.24-3.04s3.62-5.87,7.76-6.94c4.14-1.08,7.39,0.28,7.24,3.04
					S159.48,409.08,155.34,410.16z"/>
			</g>
			<g>
				<path class="st8" d="M137.35,410.09c3.86,0.91,7.51-0.59,8.17-3.36c0.66-2.77-1.94-5.75-5.79-6.67
					c-3.86-0.91-7.51,0.59-8.17,3.36C130.9,406.19,133.5,409.17,137.35,410.09z"/>
				<path class="st8" d="M137.42,405.91c3.22,2.82,6.73,3.06,7.84,0.53c1.11-2.53-0.6-6.87-3.82-9.69s-6.73-3.06-7.84-0.53
					C132.49,398.75,134.2,403.09,137.42,405.91z"/>
			</g>
		</g>
		<g>
			<path class="st7" d="M409.53,197.46c1.81-1.87,2.62-4.22,2.26-6.09c-0.22-1.16,0.13-2.35,0.95-3.19l1.9-1.96
				c0.2-0.21,0.25-0.54,0.07-0.77c-0.22-0.3-0.64-0.31-0.88-0.06l-1.92,1.98c-0.82,0.84-2,1.23-3.16,1.05
				c-1.87-0.3-4.2,0.58-6.02,2.44c-2.56,2.63-3.11,6.25-1.23,8.07C403.38,200.75,406.97,200.1,409.53,197.46z"/>
			<g>
				<path class="st3" d="M403.56,190.12l6.7,6.5c0.37-0.48,0.68-0.98,0.92-1.49l-6.15-5.97
					C404.52,189.41,404.03,189.74,403.56,190.12z"/>
				<path class="st3" d="M406.12,199.65c0.56-0.18,1.12-0.44,1.66-0.78l-6.4-6.21c-0.32,0.55-0.56,1.12-0.73,1.68L406.12,199.65z"/>
				<path class="st3" d="M401.83,191.96l6.64,6.44c0.37-0.28,0.73-0.59,1.07-0.94c0.07-0.07,0.13-0.14,0.2-0.21l-6.78-6.59
					c-0.07,0.07-0.14,0.14-0.21,0.21C402.4,191.22,402.1,191.58,401.83,191.96z"/>
			</g>
			<g>
				<path class="st8" d="M407.77,201.99c-2.1-2.04-2.62-4.92-1.15-6.43c1.46-1.51,4.36-1.08,6.46,0.96c2.1,2.04,2.62,4.92,1.15,6.43
					C412.77,204.46,409.87,204.03,407.77,201.99z"/>
				<path class="st8" d="M410.35,200.29c-3.04-0.89-4.58-2.98-3.45-4.67c1.13-1.7,4.52-2.35,7.56-1.47
					c3.04,0.88,4.58,2.98,3.45,4.67C416.77,200.52,413.39,201.18,410.35,200.29z"/>
			</g>
			<g>
				<path class="st8" d="M398.96,193.43c2.1,2.04,4.99,2.47,6.46,0.96c1.46-1.51,0.95-4.39-1.15-6.43c-2.1-2.04-4.99-2.47-6.46-0.96
					C396.34,188.52,396.85,191.39,398.96,193.43z"/>
				<path class="st8" d="M400.58,190.81c0.97,3.01,3.11,4.49,4.77,3.31c1.66-1.18,2.22-4.59,1.25-7.6
					c-0.97-3.01-3.11-4.49-4.77-3.31C400.16,184.4,399.6,187.8,400.58,190.81z"/>
			</g>
		</g>
		<g>
			<path class="st7" d="M413.02,229.84c-2.06-1.58-4.5-2.11-6.31-1.54c-1.12,0.35-2.34,0.14-3.28-0.57l-2.17-1.66
				c-0.23-0.18-0.56-0.18-0.77,0.02c-0.27,0.25-0.24,0.67,0.04,0.88l2.19,1.68c0.93,0.72,1.45,1.84,1.4,3.02
				c-0.08,1.89,1.06,4.11,3.12,5.69c2.91,2.23,6.56,2.36,8.15,0.29C417,235.56,415.93,232.07,413.02,229.84z"/>
			<g>
				<path class="st3" d="M406.42,236.62l5.68-7.41c-0.52-0.31-1.06-0.56-1.59-0.74l-5.22,6.8
					C405.61,235.75,405.98,236.2,406.42,236.62z"/>
				<path class="st3" d="M415.58,232.97c-0.25-0.53-0.57-1.06-0.96-1.56l-5.43,7.08c0.59,0.25,1.18,0.43,1.75,0.53L415.58,232.97z"
					/>
				<path class="st3" d="M408.45,238.12l5.63-7.34c-0.32-0.33-0.67-0.65-1.06-0.95c-0.08-0.06-0.16-0.12-0.24-0.17l-5.75,7.5
					c0.08,0.06,0.15,0.12,0.23,0.18C407.64,237.64,408.04,237.9,408.45,238.12z"/>
			</g>
			<g>
				<path class="st8" d="M417.72,231.06c-1.78,2.32-4.58,3.17-6.25,1.89c-1.67-1.28-1.58-4.2,0.21-6.53
					c1.78-2.32,4.58-3.17,6.25-1.89C419.6,225.81,419.5,228.73,417.72,231.06z"/>
				<path class="st8" d="M415.74,228.69c-0.53,3.12-2.43,4.9-4.24,3.97c-1.82-0.93-2.86-4.21-2.34-7.34
					c0.53-3.12,2.43-4.9,4.24-3.97C415.22,222.29,416.26,225.57,415.74,228.69z"/>
			</g>
			<g>
				<path class="st8" d="M410.24,240.81c1.78-2.32,1.88-5.25,0.21-6.53c-1.67-1.28-4.47-0.43-6.25,1.89
					c-1.78,2.32-1.88,5.25-0.21,6.53C405.66,243.98,408.46,243.13,410.24,240.81z"/>
				<path class="st8" d="M407.45,239.5c2.88-1.32,4.1-3.61,2.73-5.13c-1.37-1.51-4.81-1.67-7.69-0.36c-2.88,1.32-4.1,3.61-2.73,5.13
					C401.13,240.66,404.57,240.82,407.45,239.5z"/>
			</g>
		</g>
		<g>
			<ellipse class="st9" cx="230.57" cy="239.98" rx="31.79" ry="11.57"/>
			<g>
				<path class="st16" d="M228.14,239.32l2.24-1.39c1.44-0.9,3.05-0.93,4.51-0.1l0.64,0.37c1.28,0.73,2.68,0.79,3.98,0.18l1.81-0.85
					c1.38-0.64,2.86-0.54,4.19,0.31l0.75,0.48c1.58,1,3.35,0.96,4.91-0.11l0,0c1.56-1.07,3.33-1.11,4.91-0.11l2.81,1.78"/>
				<path class="st16" d="M203.5,243.68l2.24-1.39c1.44-0.9,3.05-0.93,4.51-0.1l0.64,0.37c1.28,0.73,2.68,0.79,3.98,0.18l1.81-0.85
					c1.38-0.64,2.86-0.54,4.19,0.31l0.75,0.48c1.58,1,3.35,0.96,4.91-0.11l0,0c1.56-1.07,3.33-1.11,4.91-0.11l2.81,1.78"/>
				<path class="st16" d="M212.76,234.51l2.24-1.39c1.44-0.9,3.05-0.93,4.51-0.1l0.64,0.37c1.28,0.73,2.68,0.79,3.98,0.18l1.81-0.85
					c1.38-0.64,2.86-0.54,4.19,0.31l0.75,0.48c1.58,1,3.35,0.96,4.91-0.11l0,0c1.56-1.07,3.33-1.11,4.91-0.11l2.81,1.78"/>
			</g>
		</g>
		<g>
			<line class="st17" x1="169.18" y1="227.41" x2="169.18" y2="249.16"/>
			<line class="st17" x1="164.97" y1="236.35" x2="169.18" y2="241.28"/>
			<line class="st17" x1="173.89" y1="230.49" x2="169.18" y2="235.27"/>
			<line class="st17" x1="173.07" y1="243.07" x2="169.18" y2="246.8"/>
			<path class="st18" d="M166.25,235.95c0,1.11-0.9,2.01-2.01,2.01c-1.11,0-2.01-0.9-2.01-2.01c0-1.11,0.9-2.01,2.01-2.01
				C165.36,233.94,166.25,234.84,166.25,235.95z"/>
			<path class="st18" d="M175.99,230.39c0,1.11-0.9,2.01-2.01,2.01c-1.11,0-2.01-0.9-2.01-2.01c0-1.11,0.9-2.01,2.01-2.01
				C175.1,228.39,175.99,229.29,175.99,230.39z"/>
			<path class="st18" d="M171.18,227c0,1.11-0.9,2.01-2.01,2.01c-1.11,0-2.01-0.9-2.01-2.01c0-1.11,0.9-2.01,2.01-2.01
				C170.29,225,171.18,225.89,171.18,227z"/>
			<path class="st18" d="M175.07,243.07c0,1.11-0.9,2.01-2.01,2.01c-1.11,0-2.01-0.9-2.01-2.01c0-1.11,0.9-2.01,2.01-2.01
				C174.17,241.06,175.07,241.96,175.07,243.07z"/>
		</g>
		<g>
			<line class="st17" x1="377.85" y1="294.09" x2="377.85" y2="315.83"/>
			<line class="st17" x1="373.64" y1="303.03" x2="377.85" y2="307.96"/>
			<line class="st17" x1="382.56" y1="297.16" x2="377.85" y2="301.94"/>
			<line class="st17" x1="381.73" y1="309.74" x2="377.85" y2="313.48"/>
			<path class="st18" d="M374.92,302.62c0,1.11-0.9,2.01-2.01,2.01c-1.11,0-2.01-0.9-2.01-2.01c0-1.11,0.9-2.01,2.01-2.01
				C374.02,300.61,374.92,301.51,374.92,302.62z"/>
			<path class="st18" d="M384.66,297.07c0,1.11-0.9,2.01-2.01,2.01c-1.11,0-2.01-0.9-2.01-2.01c0-1.11,0.9-2.01,2.01-2.01
				C383.76,295.06,384.66,295.96,384.66,297.07z"/>
			<path class="st18" d="M379.85,293.68c0,1.11-0.9,2.01-2.01,2.01c-1.11,0-2.01-0.9-2.01-2.01c0-1.11,0.9-2.01,2.01-2.01
				C378.95,291.67,379.85,292.57,379.85,293.68z"/>
			<path class="st18" d="M383.74,309.74c0,1.11-0.9,2.01-2.01,2.01c-1.11,0-2.01-0.9-2.01-2.01c0-1.11,0.9-2.01,2.01-2.01
				C382.84,307.74,383.74,308.64,383.74,309.74z"/>
		</g>
		<g>
			<line class="st17" x1="174.05" y1="388.01" x2="174.05" y2="409.76"/>
			<line class="st17" x1="169.84" y1="396.95" x2="174.05" y2="401.88"/>
			<line class="st17" x1="178.76" y1="391.09" x2="174.05" y2="395.87"/>
			<line class="st17" x1="177.94" y1="403.67" x2="174.05" y2="407.4"/>
			<path class="st18" d="M171.12,396.54c0,1.11-0.9,2.01-2.01,2.01s-2.01-0.9-2.01-2.01c0-1.11,0.9-2.01,2.01-2.01
				S171.12,395.44,171.12,396.54z"/>
			<path class="st18" d="M180.87,390.99c0,1.11-0.9,2.01-2.01,2.01c-1.11,0-2.01-0.9-2.01-2.01c0-1.11,0.9-2.01,2.01-2.01
				C179.97,388.99,180.87,389.88,180.87,390.99z"/>
			<path class="st18" d="M176.05,387.6c0,1.11-0.9,2.01-2.01,2.01s-2.01-0.9-2.01-2.01c0-1.11,0.9-2.01,2.01-2.01
				S176.05,386.49,176.05,387.6z"/>
			<path class="st18" d="M179.94,403.67c0,1.11-0.9,2.01-2.01,2.01c-1.11,0-2.01-0.9-2.01-2.01c0-1.11,0.9-2.01,2.01-2.01
				C179.04,401.66,179.94,402.56,179.94,403.67z"/>
		</g>
		<g>
			<line class="st17" x1="270.08" y1="309.84" x2="270.08" y2="331.59"/>
			<line class="st17" x1="265.87" y1="318.78" x2="270.08" y2="323.71"/>
			<line class="st17" x1="274.79" y1="312.92" x2="270.08" y2="317.7"/>
			<line class="st17" x1="273.96" y1="325.5" x2="270.08" y2="329.23"/>
			<path class="st18" d="M267.15,318.37c0,1.11-0.9,2.01-2.01,2.01c-1.11,0-2.01-0.9-2.01-2.01c0-1.11,0.9-2.01,2.01-2.01
				C266.25,316.37,267.15,317.27,267.15,318.37z"/>
			<path class="st18" d="M276.89,312.82c0,1.11-0.9,2.01-2.01,2.01c-1.11,0-2.01-0.9-2.01-2.01c0-1.11,0.9-2.01,2.01-2.01
				C275.99,310.82,276.89,311.71,276.89,312.82z"/>
			<path class="st18" d="M272.08,309.43c0,1.11-0.9,2.01-2.01,2.01c-1.11,0-2.01-0.9-2.01-2.01c0-1.11,0.9-2.01,2.01-2.01
				C271.18,307.42,272.08,308.32,272.08,309.43z"/>
			<path class="st18" d="M275.97,325.5c0,1.11-0.9,2.01-2.01,2.01c-1.11,0-2.01-0.9-2.01-2.01c0-1.11,0.9-2.01,2.01-2.01
				C275.07,323.49,275.97,324.39,275.97,325.5z"/>
		</g>
		<g>
			<line class="st17" x1="250.06" y1="158.43" x2="250.06" y2="180.17"/>
			<line class="st17" x1="245.85" y1="167.37" x2="250.06" y2="172.3"/>
			<line class="st17" x1="254.78" y1="161.5" x2="250.06" y2="166.28"/>
			<line class="st17" x1="253.95" y1="174.08" x2="250.06" y2="177.82"/>
			<path class="st18" d="M247.13,166.96c0,1.11-0.9,2.01-2.01,2.01c-1.11,0-2.01-0.9-2.01-2.01c0-1.11,0.9-2.01,2.01-2.01
				C246.24,164.95,247.13,165.85,247.13,166.96z"/>
			<path class="st18" d="M256.88,161.41c0,1.11-0.9,2.01-2.01,2.01c-1.11,0-2.01-0.9-2.01-2.01c0-1.11,0.9-2.01,2.01-2.01
				C255.98,159.4,256.88,160.3,256.88,161.41z"/>
			<path class="st18" d="M252.07,158.01c0,1.11-0.9,2.01-2.01,2.01c-1.11,0-2.01-0.9-2.01-2.01s0.9-2.01,2.01-2.01
				C251.17,156.01,252.07,156.91,252.07,158.01z"/>
			<path class="st18" d="M255.95,174.08c0,1.11-0.9,2.01-2.01,2.01c-1.11,0-2.01-0.9-2.01-2.01c0-1.11,0.9-2.01,2.01-2.01
				C255.05,172.08,255.95,172.98,255.95,174.08z"/>
		</g>
		<g>
			<line class="st17" x1="355.99" y1="152.47" x2="355.99" y2="174.21"/>
			<line class="st17" x1="351.79" y1="161.4" x2="355.99" y2="166.34"/>
			<line class="st17" x1="360.71" y1="155.54" x2="355.99" y2="160.32"/>
			<line class="st17" x1="359.88" y1="168.12" x2="355.99" y2="171.85"/>
			<path class="st18" d="M353.07,161c0,1.11-0.9,2.01-2.01,2.01c-1.11,0-2.01-0.9-2.01-2.01c0-1.11,0.9-2.01,2.01-2.01
				C352.17,158.99,353.07,159.89,353.07,161z"/>
			<path class="st18" d="M362.81,155.45c0,1.11-0.9,2.01-2.01,2.01c-1.11,0-2.01-0.9-2.01-2.01c0-1.11,0.9-2.01,2.01-2.01
				C361.91,153.44,362.81,154.34,362.81,155.45z"/>
			<path class="st18" d="M358,152.05c0,1.11-0.9,2.01-2.01,2.01c-1.11,0-2.01-0.9-2.01-2.01c0-1.11,0.9-2.01,2.01-2.01
				C357.1,150.05,358,150.95,358,152.05z"/>
			<path class="st18" d="M361.88,168.12c0,1.11-0.9,2.01-2.01,2.01c-1.11,0-2.01-0.9-2.01-2.01c0-1.11,0.9-2.01,2.01-2.01
				C360.98,166.12,361.88,167.01,361.88,168.12z"/>
		</g>
		<path class="st15" d="M151.57,440.87c-16.82,0-30.96-10.97-38.34-23.78c-9.87-17.13-10.13-41.9,11.56-58.62
			c15.4-11.87,46.54-13.61,75.59-11.2c1,0.08,1.86-0.72,1.83-1.72c-0.23-9.19-0.99-18.34-2.05-27.08c-0.12-1-1.08-1.66-2.07-1.44
			c-3.72,0.83-7.53,1.42-11.4,1.76c-27.36,2.42-65.92-8.05-85.94-36.7c-11.78-16.86-21.34-46.33-1.19-91.66
			c0.85-1.91,3.1-2.76,4.99-1.87l0,0c1.82,0.86,2.64,3.02,1.83,4.86c-14.88,33.5-14.73,62.63,0.48,84.41
			c18.32,26.23,53.89,35.77,79.18,33.55c3.87-0.34,7.66-0.95,11.37-1.84c0.86-0.2,1.41-1.05,1.28-1.92
			c-2.31-15.25-5.24-28.64-7.29-37.97c-0.58-2.63-1.07-4.9-1.46-6.77c-4.31-20.91-5.25-45.15-2.52-64.83
			c3.69-26.61,13.87-45.9,29.44-55.79c18.28-11.61,43.97-11.5,58.48,0.25c30,24.28,4.14,88.54,1.09,95.79l-0.29,0.68
			c-3.29,7.83-10.98,26.16-25.13,43.47c-12.47,15.24-26.73,25.79-42.57,31.54c-0.74,0.27-1.2,1-1.1,1.79
			c1.25,9.9,2.15,20.37,2.35,30.91c0.02,0.85,0.65,1.55,1.49,1.65c15.69,1.86,30.04,4.76,40.01,7.68c43.4,12.71,78.03,7.4,99.45,0.7
			c23.54-7.36,43.78-20.58,55.12-35.84c0.32-0.43,0.41-0.99,0.26-1.5c-3.77-12.4-8.56-25.38-13.47-38.71
			c-12.94-35.1-26.31-71.39-22.15-102.08c2.46-18.11,12.99-37.7,27.68-38.33c10.68-0.48,25.68,8.9,36.24,56.07
			c2.55,11.4,9.37,78.74-19.51,124.5c-0.07,0.47-0.13,0.89-0.2,1.36c3.55,12.45,5.99,24.36,6.46,35.59
			c0.04,0.94-0.72,1.73-1.66,1.75l-4.06,0.1c-0.93,0.02-1.68-0.7-1.72-1.63c-0.35-8.15-1.82-16.79-4.05-25.8
			c-0.33-1.32-1.98-1.74-2.9-0.74c-12.67,13.92-31.63,25.41-53.82,32.36c-22.4,7-58.58,12.57-103.76-0.66
			c-10.19-2.99-24.29-5.79-39.41-7.56c0,0.13-0.01,0.26-0.01,0.39c-0.99,43.06-15.24,70.53-42.35,81.64
			C161.9,439.88,156.61,440.87,151.57,440.87z M178.54,353.71c-20.39,0-39.12,2.87-49.21,10.66c-19.37,14.93-17.3,35.73-9.65,49.01
			c8.03,13.94,25.48,25.32,44.81,17.4c24.12-9.88,36.81-35.09,37.73-74.92c0.01-0.33,0.01-0.67,0.02-1
			C194.36,354.13,186.33,353.71,178.54,353.71z M398.77,147.72c-0.13,0-0.26,0-0.39,0.01c-9.04,0.39-18.29,14.69-20.62,31.89
			c-3.91,28.84,9.14,64.26,21.76,98.5c3.76,10.21,7.45,20.22,10.69,29.97c0.48,1.43,2.44,1.59,3.12,0.24
			c21.54-42.7,15.87-100.7,13.71-110.34C419.98,166.44,409.44,147.72,398.77,147.72z M247.31,141.12c-9.09,0-18.65,2.49-26.47,7.45
			c-9.53,6.05-21.79,19.73-26.06,50.52c-2.62,18.89-1.71,42.18,2.44,62.3c0.38,1.84,0.87,4.08,1.44,6.67
			c2,9.1,4.82,22.01,7.12,36.78c0.17,1.07,1.28,1.73,2.28,1.33c13.73-5.47,26.18-14.97,37.18-28.42
			c13.47-16.47,20.87-34.11,24.03-41.64l0.29-0.69c1.13-2.68,27.31-65.89,1.09-87.11C264.72,143.52,256.24,141.12,247.31,141.12z"/>
	</g>
	<g>
		<path class="st19" d="M113.23,142.26L78.5,130.03l-30.48,27.32c-0.93-0.93-2.59-1.97-4.51-0.78c-3.06,1.92,7.93,17.73,7.93,17.73
			l2.23-0.05c0,0,0,0,0,0.05c0.52,0,1.04-0.05,1.56-0.05h0.16l0,0C101.46,172.64,113.23,142.26,113.23,142.26z"/>
		<path class="st19" d="M174.98,156.57c-2.28-1.45-4.15,0.31-4.93,1.24L139,130.03l-34.73,12.23c0,0,12.08,31.16,59.57,32.04
			c0,0,0,0,0-0.05l3.21,0.05C167.04,174.3,177.98,158.49,174.98,156.57z"/>
		<path class="st20" d="M108.72,131.48L74.09,67.45c0,0-14.2,63.71,6.95,105.97c-1.14,0.52-3.32,1.81-2.59,4.35
			c0.93,3.47,20.37-2.64,20.37-2.64l0.78-5.86l0,0L108.72,131.48z"/>
		<path class="st20" d="M136.15,173.47c21.15-42.25,7.15-104,7.15-104l-34.84,62l9.18,37.85h-0.1l0.78,5.86
			c0,0,19.39,6.12,20.37,2.64C139.41,175.28,137.34,173.99,136.15,173.47z"/>
		<path class="st20" d="M143.35,67.45l-34.84,7.31l0,0l-34.42-7.31c0,0-2.54,36.03-2.54,61.59c0,3.47,1.92,7,1.92,10.99
			c0,40.23,70.09,40.23,70.09,0c0-3.99,1.92-7.52,1.92-10.99C145.48,103.48,143.35,67.45,143.35,67.45z"/>
		<g>
			<circle class="st20" cx="84.1" cy="40.86" r="12.13"/>
			<ellipse class="st21" cx="84.09" cy="40.88" rx="8.45" ry="8.45"/>
		</g>
		<g>
			<circle class="st20" cx="133.35" cy="40.86" r="12.13"/>
			<ellipse class="st21" cx="133.33" cy="40.85" rx="8.45" ry="8.45"/>
		</g>
		<path class="st20" d="M74.09,67.45c0,19.13,15.5,25.3,34.63,25.3s34.63-6.17,34.63-25.3s-15.5-34.63-34.63-34.63
			S74.09,48.32,74.09,67.45z"/>
		<ellipse class="st22" cx="108.31" cy="75.85" rx="10.89" ry="11.77"/>
		<g>
			<path class="st23" d="M94.31,63.82c0,1.56,1.24,2.8,2.8,2.8c1.56,0,2.8-1.24,2.8-2.8s-1.24-2.8-2.8-2.8
				C95.61,60.97,94.31,62.27,94.31,63.82z"/>
			<path class="st23" d="M117.48,63.82c0,1.56,1.24,2.8,2.8,2.8s2.8-1.24,2.8-2.8s-1.24-2.8-2.8-2.8
				C118.73,60.97,117.48,62.27,117.48,63.82z"/>
			<path class="st23" d="M108.51,72.38c0,0-9.38-5.13,0-5.13C117.95,67.24,108.51,72.38,108.51,72.38z"/>
			<g>
				<g>
					<path class="st23" d="M106.49,75.07c0.41-0.1,0.78-0.26,1.04-0.47c0.26-0.21,0.47-0.52,0.62-0.88c0.05-0.16,0.1-0.36,0.16-0.52
						c0-0.1,0.05-0.21,0.05-0.26c0-0.1,0-0.21,0-0.31c0.05-0.41,0.1-0.83,0.21-1.24c0.1,0.41,0.16,0.83,0.21,1.24
						c0,0.1,0,0.21,0,0.31s0,0.21,0,0.36c0,0.21-0.1,0.41-0.16,0.62c-0.16,0.41-0.47,0.83-0.83,1.04
						C107.32,75.12,106.86,75.18,106.49,75.07z"/>
				</g>
				<g>
					<path class="st23" d="M110.59,75.07c-0.41,0.1-0.88,0.05-1.3-0.16c-0.41-0.21-0.67-0.62-0.83-1.04
						c-0.05-0.21-0.1-0.41-0.16-0.62c0-0.1,0-0.21,0-0.36c0-0.1,0-0.21,0-0.31c0.05-0.41,0.1-0.83,0.21-1.24
						c0.1,0.41,0.16,0.83,0.21,1.24c0,0.1,0,0.21,0,0.31s0,0.16,0.05,0.26c0.05,0.21,0.1,0.36,0.16,0.52
						c0.16,0.36,0.31,0.67,0.62,0.88C109.81,74.81,110.17,74.97,110.59,75.07z"/>
				</g>
			</g>
			<path class="st21" d="M88.19,69.78c0,1.56,2.02,2.85,4.46,2.85s4.46-1.3,4.46-2.85c0-1.56-2.02-2.85-4.46-2.85
				S88.19,68.23,88.19,69.78z"/>
			<path class="st21" d="M120.28,69.78c0,1.56,2.02,2.85,4.46,2.85c2.49,0,4.46-1.3,4.46-2.85c0-1.56-2.02-2.85-4.46-2.85
				S120.28,68.23,120.28,69.78z"/>
			<g>
				<path class="st23" d="M117.48,61.96c0.73-0.78,1.81-1.14,2.9-1.14c0.52,0,1.09,0.1,1.61,0.31c0.26,0.1,0.47,0.21,0.73,0.31
					c0.21,0.16,0.47,0.26,0.67,0.41h-0.21c0.36-0.31,0.73-0.57,1.09-0.83c-0.26,0.36-0.57,0.73-0.83,1.09
					c-0.05,0.05-0.1,0.05-0.16,0.05h-0.05c-0.47-0.21-0.93-0.41-1.4-0.57c-0.47-0.16-0.99-0.21-1.45-0.26
					C119.4,61.23,118.36,61.44,117.48,61.96z"/>
			</g>
			<g>
				<path class="st23" d="M99.96,61.96c-0.93-0.52-1.92-0.73-2.9-0.67c-0.47,0.05-0.99,0.1-1.45,0.26s-0.93,0.36-1.4,0.57h-0.05
					c-0.05,0.05-0.1,0-0.16-0.05c-0.31-0.36-0.57-0.73-0.83-1.09c0.36,0.26,0.73,0.57,1.09,0.83h-0.21
					c0.21-0.16,0.47-0.31,0.67-0.41c0.26-0.1,0.47-0.26,0.73-0.31c0.52-0.21,1.04-0.26,1.61-0.31
					C98.09,60.82,99.23,61.18,99.96,61.96z"/>
			</g>
		</g>
		<path class="st22" d="M99.6,169.32c0,0-18.92-70.92,9.18-70.92s8.92,70.92,8.92,70.92C111.42,171.55,105.71,171.34,99.6,169.32z"
			/>
		<path class="st24" d="M107.27,79.17c0,0,1.24,0.67,2.54,0"/>
		<g>
			<g>
				<path class="st19" d="M75.44,139.36c0.05,0.88,0.47,2.13-0.16,2.85c-0.16,0.16-0.57,0.21-0.62-0.05
					c-0.1-0.47-0.05-0.93-0.16-1.4c-0.1-0.41-0.16-0.88-0.21-1.3c-0.05-0.36-0.05-0.73-0.05-1.09c0-0.41-0.16-0.78,0.05-1.14
					c0.1-0.21,0.47-0.21,0.62-0.1C75.59,137.54,75.44,138.68,75.44,139.36z"/>
				<path class="st19" d="M80.42,143.4c-0.31-0.78-0.47-1.56-0.73-2.33c-0.21-0.73-0.67-1.56-0.62-2.33c0-0.26,0.41-0.57,0.62-0.31
					c0.57,0.62,0.78,1.5,1.04,2.28c0.26,0.78,0.52,1.56,0.57,2.38C81.35,143.5,80.57,143.82,80.42,143.4z"/>
				<path class="st19" d="M82.02,158.02c-0.05,0.31-0.52,0.57-0.78,0.31c-0.47-0.47-0.57-0.99-0.73-1.61
					c-0.21-0.78-0.41-1.5-0.47-2.33c0-0.26,0.41-0.57,0.62-0.31c0.41,0.62,0.67,1.35,0.88,2.07
					C81.71,156.78,82.13,157.45,82.02,158.02z"/>
				<path class="st19" d="M77.93,149.26c-0.05,0.31-0.52,0.57-0.78,0.31c-0.47-0.47-0.57-0.99-0.73-1.61
					c-0.21-0.78-0.41-1.5-0.47-2.33c0-0.26,0.41-0.57,0.62-0.31c0.41,0.62,0.67,1.35,0.88,2.07
					C77.62,148.02,78.03,148.64,77.93,149.26z"/>
				<path class="st19" d="M78.39,142.42c0,0,0.26,0.47,0.31,0.67c0.16,0.47,0.36,0.93,0.52,1.45c0.21,0.57,0.93,1.87,0.41,2.38
					c-0.16,0.21-0.47,0.31-0.67,0.1c-0.57-0.52-0.73-1.71-0.93-2.38c-0.16-0.57-0.57-1.3-0.57-1.87
					C77.46,142.36,78.08,142,78.39,142.42z"/>
				<path class="st19" d="M73.26,110.95c-0.36-0.88-0.21-1.92-0.16-2.9c0.05-0.83,0.05-1.71,0.26-2.54c0.1-0.36,0.73-0.41,0.78-0.05
					c0.16,0.78,0.16,1.56,0.16,2.33c0.05,0.93,0.26,2.38-0.26,3.16C73.88,111.21,73.36,111.26,73.26,110.95z"/>
				<path class="st19" d="M74.76,102.86c-0.21,0.41-1.09,0.26-0.93-0.21c0.16-0.62,0.26-1.19,0.31-1.81c0.05-0.62,0-1.3,0.21-1.92
					c0.21-0.57,1.14-0.31,1.14,0.26C75.54,100.32,75.28,101.77,74.76,102.86z"/>
				<path class="st19" d="M75.54,90c-0.41,0.62-0.57,1.35-0.78,2.07c-0.21,0.67-0.67,1.76-0.36,2.44c0.16,0.26,0.57,0.41,0.78,0.16
					c0.47-0.57,0.47-1.4,0.57-2.07c0.16-0.73,0.36-1.4,0.52-2.07C76.42,90.11,75.8,89.64,75.54,90z"/>
				<path class="st19" d="M76.16,102.81c0.05-0.26,0.62-0.47,0.73-0.1c0.21,0.57,0.21,1.19,0.21,1.81s0,1.35-0.21,1.92
					c-0.16,0.31-0.93,0.41-0.93-0.05c-0.05-0.52,0.1-1.04,0.1-1.56C76.06,104.16,76.06,103.48,76.16,102.81z"/>
				<path class="st19" d="M77.41,93.63c0.05-0.26,0.62-0.47,0.73-0.1c0.21,0.57,0.21,1.19,0.21,1.81s0,1.35-0.21,1.92
					c-0.16,0.31-0.93,0.41-0.93-0.05c-0.05-0.52,0.1-1.04,0.1-1.56C77.36,94.98,77.3,94.31,77.41,93.63z"/>
				<path class="st19" d="M77.05,83.52c0.05-0.26,0.62-0.47,0.73-0.1c0.21,0.57,0.21,1.19,0.21,1.81c0,0.62,0,1.35-0.21,1.92
					c-0.16,0.31-0.93,0.41-0.93-0.05c-0.05-0.52,0.1-1.04,0.1-1.56C76.99,84.87,76.94,84.2,77.05,83.52z"/>
				<path class="st19" d="M76.68,109.44c0.1,0.78,0.1,1.61,0.16,2.44c0.05,0.78,0.31,1.66,0.05,2.38c-0.1,0.26-0.52,0.47-0.67,0.16
					c-0.41-0.73-0.36-1.66-0.47-2.49c-0.05-0.78-0.16-1.66,0-2.44C75.8,109.13,76.63,108.98,76.68,109.44z"/>
				<path class="st19" d="M80.52,99.23c0.1,0.78,0.1,1.61,0.16,2.44c0.05,0.78,0.31,1.66,0.05,2.38c-0.1,0.26-0.52,0.47-0.67,0.16
					c-0.41-0.73-0.41-1.66-0.47-2.49c-0.05-0.78-0.16-1.66,0-2.44C79.64,98.92,80.42,98.76,80.52,99.23z"/>
				<path class="st19" d="M74.09,116.96c-0.31-1.04-0.52-2.49-0.26-3.58c0.05-0.26,0.67-0.47,0.78-0.1
					c0.26,1.09,0.05,2.33,0.31,3.47C75.08,117.17,74.25,117.38,74.09,116.96z"/>
				<path class="st19" d="M77.82,116.75c0.05-0.36,0.62-0.52,0.83-0.21c0.31,0.41,0.36,0.93,0.47,1.4c0.16,0.62,0.21,1.3,0.26,1.92
					c0.05,0.52-0.88,0.67-0.93,0.16c-0.1-0.52-0.21-1.04-0.31-1.56C78.03,117.89,77.77,117.27,77.82,116.75z"/>
				<path class="st19" d="M81.3,110.01c0.05-0.36,0.62-0.52,0.83-0.21c0.31,0.41,0.36,0.93,0.47,1.4c0.16,0.62,0.21,1.3,0.26,1.92
					c0.05,0.52-0.88,0.67-0.93,0.16c-0.1-0.52-0.21-1.04-0.31-1.56C81.45,111.21,81.19,110.58,81.3,110.01z"/>
				<path class="st19" d="M85.55,148.27c0.05-0.36,0.62-0.52,0.83-0.21c0.31,0.41,0.36,0.93,0.47,1.4c0.16,0.62,0.21,1.3,0.26,1.92
					c0.05,0.52-0.88,0.67-0.93,0.16c-0.1-0.52-0.21-1.04-0.31-1.56C85.7,149.42,85.44,148.79,85.55,148.27z"/>
				<path class="st19" d="M81.19,124.27c0.05-0.36,0.62-0.52,0.83-0.21c0.31,0.41,0.36,0.93,0.47,1.4c0.16,0.62,0.21,1.3,0.26,1.92
					c0.05,0.52-0.88,0.67-0.93,0.16c-0.1-0.52-0.21-1.04-0.31-1.56C81.35,125.46,81.09,124.84,81.19,124.27z"/>
				<path class="st19" d="M76.99,128.11c0.05-0.36,0.62-0.52,0.83-0.21c0.31,0.41,0.36,0.93,0.47,1.4c0.16,0.62,0.21,1.3,0.26,1.92
					c0.05,0.52-0.88,0.67-0.93,0.16c-0.1-0.52-0.21-1.04-0.31-1.56C77.2,129.3,76.94,128.68,76.99,128.11z"/>
				<path class="st19" d="M72.22,124.79c0.05-0.36,0.62-0.52,0.83-0.21c0.31,0.41,0.36,0.93,0.47,1.4c0.16,0.62,0.21,1.3,0.26,1.92
					c0.05,0.52-0.88,0.67-0.93,0.16c-0.1-0.52-0.21-1.04-0.31-1.56C72.38,125.93,72.12,125.31,72.22,124.79z"/>
				<path class="st19" d="M80.57,132.72c0.05-0.36,0.62-0.52,0.83-0.21c0.31,0.41,0.36,0.93,0.47,1.4c0.16,0.62,0.21,1.3,0.26,1.92
					c0.05,0.52-0.88,0.67-0.93,0.16c-0.1-0.52-0.21-1.04-0.31-1.56C80.73,133.91,80.47,133.29,80.57,132.72z"/>
				<path class="st19" d="M76.84,133.45c0.05-0.36,0.62-0.52,0.83-0.21c0.31,0.41,0.36,0.93,0.47,1.4c0.16,0.62,0.21,1.3,0.26,1.92
					c0.05,0.52-0.88,0.67-0.93,0.16c-0.1-0.52-0.21-1.04-0.31-1.56C76.99,134.59,76.73,134.02,76.84,133.45z"/>
				<path class="st19" d="M79.79,161.91c0.05-0.36,0.62-0.52,0.83-0.21c0.31,0.41,0.36,0.93,0.47,1.4c0.16,0.62,0.21,1.3,0.26,1.92
					c0.05,0.52-0.88,0.67-0.93,0.16c-0.1-0.52-0.21-1.04-0.31-1.56C79.95,163.1,79.74,162.48,79.79,161.91z"/>
				<path class="st19" d="M74.04,131.32c0.05-0.36,0.62-0.52,0.83-0.21c0.31,0.41,0.36,0.93,0.47,1.4c0.16,0.62,0.21,1.3,0.26,1.92
					c0.05,0.52-0.88,0.67-0.93,0.16c-0.1-0.52-0.21-1.04-0.31-1.56C74.19,132.46,73.94,131.89,74.04,131.32z"/>
				<path class="st19" d="M78.29,123.65c0.05-0.36,0.62-0.52,0.83-0.21c0.31,0.41,0.36,0.93,0.47,1.4c0.16,0.62,0.21,1.3,0.26,1.92
					c0.05,0.52-0.88,0.67-0.93,0.16c-0.1-0.52-0.21-1.04-0.31-1.56C78.45,124.79,78.19,124.17,78.29,123.65z"/>
				<path class="st19" d="M71.5,117.95c0.05-0.36,0.62-0.52,0.83-0.21c0.31,0.41,0.36,0.93,0.47,1.4c0.16,0.62,0.21,1.3,0.26,1.92
					c0.05,0.52-0.88,0.67-0.93,0.16c-0.1-0.52-0.21-1.04-0.31-1.56C71.71,119.09,71.45,118.47,71.5,117.95z"/>
				<path class="st19" d="M74.51,120.9c0.05-0.36,0.62-0.52,0.83-0.21c0.31,0.41,0.36,0.93,0.47,1.4c0.16,0.62,0.21,1.3,0.26,1.92
					c0.05,0.52-0.88,0.67-0.93,0.16c-0.1-0.52-0.21-1.04-0.31-1.56C74.66,122.04,74.4,121.42,74.51,120.9z"/>
			</g>
		</g>
		<g>
			<g>
				<path class="st19" d="M143.97,105.19c0.16,0.88-0.05,2.18,0.73,2.8c0.16,0.1,0.57,0.1,0.62-0.16c0.05-0.47-0.1-0.93-0.1-1.4
					c0-0.41,0-0.88-0.05-1.3c-0.05-0.36-0.1-0.73-0.16-1.09c-0.05-0.36,0.05-0.78-0.26-1.09c-0.16-0.16-0.47-0.16-0.62,0
					C143.51,103.43,143.87,104.52,143.97,105.19z"/>
				<path class="st19" d="M139.88,110.07c0.16-0.78,0.16-1.61,0.26-2.44c0.1-0.73,0.36-1.66,0.16-2.38
					c-0.05-0.26-0.52-0.47-0.67-0.16c-0.41,0.73-0.47,1.66-0.57,2.44c-0.1,0.78-0.21,1.61-0.16,2.44
					C139,110.38,139.78,110.53,139.88,110.07z"/>
				<path class="st19" d="M135.32,109.91c0.1,0.26,0.62,0.47,0.78,0.16c0.36-0.52,0.36-1.09,0.41-1.71c0.1-0.78,0.16-1.56,0-2.38
					c-0.05-0.26-0.52-0.47-0.67-0.21c-0.31,0.73-0.36,1.45-0.47,2.23C135.32,108.61,135.06,109.34,135.32,109.91z"/>
				<path class="st19" d="M143.46,115.35c0.1,0.26,0.62,0.47,0.78,0.16c0.36-0.52,0.36-1.09,0.41-1.71c0.1-0.78,0.16-1.56,0-2.38
					c-0.05-0.26-0.52-0.47-0.67-0.21c-0.31,0.73-0.36,1.45-0.47,2.23C143.46,114.06,143.2,114.78,143.46,115.35z"/>
				<path class="st19" d="M140.92,128.32c0.1,0.26,0.62,0.47,0.78,0.16c0.36-0.52,0.36-1.09,0.41-1.71c0.1-0.78,0.16-1.56,0-2.38
					c-0.05-0.26-0.52-0.47-0.67-0.21c-0.31,0.73-0.36,1.45-0.47,2.23C140.97,127.02,140.66,127.74,140.92,128.32z"/>
				<path class="st19" d="M141.69,108.72c0,0-0.16,0.52-0.21,0.73c-0.1,0.52-0.16,0.99-0.26,1.5c-0.1,0.62-0.57,1.97,0.05,2.44
					c0.21,0.16,0.52,0.21,0.73,0c0.47-0.62,0.41-1.81,0.47-2.54c0.05-0.57,0.31-1.4,0.16-1.97
					C142.52,108.51,141.85,108.3,141.69,108.72z"/>
				<path class="st19" d="M144.6,120.18c0,0-0.16,0.52-0.21,0.73c-0.1,0.52-0.16,0.99-0.26,1.5c-0.1,0.62-0.57,1.97,0.05,2.44
					c0.21,0.16,0.52,0.21,0.73,0c0.47-0.62,0.41-1.81,0.47-2.54c0.05-0.57,0.31-1.4,0.16-1.97
					C145.48,119.97,144.75,119.76,144.6,120.18z"/>
				<path class="st19" d="M143.56,136.04c0,0-0.16,0.52-0.21,0.73c-0.1,0.52-0.16,0.99-0.26,1.5c-0.1,0.62-0.57,1.97,0.05,2.44
					c0.21,0.16,0.52,0.21,0.73,0c0.47-0.62,0.41-1.81,0.47-2.54c0.05-0.57,0.31-1.4,0.16-1.97
					C144.44,135.83,143.77,135.62,143.56,136.04z"/>
				<path class="st19" d="M140.97,75.59c0.26-0.93,0-1.92-0.1-2.9c-0.1-0.83-0.21-1.71-0.52-2.49c-0.1-0.31-0.78-0.36-0.78,0.05
					c-0.05,0.78,0,1.56,0.05,2.33c0.05,0.93-0.05,2.38,0.57,3.11C140.35,75.95,140.86,75.95,140.97,75.59z"/>
				<path class="st19" d="M138.74,67.71c0.21,0.36,1.09,0.16,0.93-0.31c-0.21-0.57-0.36-1.19-0.47-1.76
					c-0.1-0.62-0.16-1.3-0.41-1.92c-0.26-0.57-1.14-0.21-1.14,0.36C137.75,65.27,138.12,66.67,138.74,67.71z"/>
				<path class="st19" d="M136.82,55.01c0.47,0.57,0.73,1.3,0.99,1.97c0.26,0.62,0.83,1.71,0.57,2.38c-0.1,0.26-0.52,0.47-0.78,0.21
					c-0.52-0.52-0.57-1.35-0.78-2.02c-0.21-0.73-0.47-1.35-0.73-2.02C135.94,55.17,136.51,54.65,136.82,55.01z"/>
				<path class="st19" d="M137.34,67.81c-0.05-0.26-0.67-0.41-0.73-0.05c-0.16,0.57-0.1,1.19-0.05,1.81
					c0.05,0.62,0.1,1.35,0.41,1.87c0.16,0.31,0.93,0.31,0.93-0.1c0-0.52-0.16-1.04-0.26-1.5C137.55,69.11,137.49,68.44,137.34,67.81
					z"/>
				<path class="st19" d="M135.26,58.79c-0.05-0.26-0.67-0.41-0.73-0.05c-0.16,0.57-0.1,1.19-0.05,1.81
					c0.05,0.62,0.1,1.35,0.41,1.87c0.16,0.31,0.93,0.31,0.93-0.1c0-0.52-0.16-1.04-0.26-1.5C135.47,60.09,135.42,59.42,135.26,58.79
					z"/>
				<path class="st19" d="M132.88,48.94c-0.05-0.26-0.67-0.41-0.73-0.1c-0.16,0.57-0.1,1.19-0.1,1.81c0,0.62,0.1,1.35,0.36,1.87
					c0.16,0.31,0.93,0.36,0.93-0.1c0-0.52-0.16-1.04-0.21-1.56C133.04,50.29,133.04,49.62,132.88,48.94z"/>
				<path class="st19" d="M137.39,74.45c-0.05,0.83,0.05,1.61,0.05,2.44c0,0.78-0.16,1.71,0.16,2.38c0.1,0.26,0.57,0.41,0.67,0.1
					c0.31-0.78,0.26-1.71,0.21-2.49c0-0.78,0-1.66-0.21-2.44C138.27,74.04,137.44,73.98,137.39,74.45z"/>
				<path class="st19" d="M132.67,64.65c-0.05,0.83,0.05,1.61,0.05,2.44c0,0.78-0.16,1.71,0.16,2.38c0.1,0.26,0.57,0.41,0.67,0.1
					c0.31-0.78,0.26-1.71,0.21-2.49c0-0.78,0-1.66-0.21-2.44C133.55,64.24,132.72,64.19,132.67,64.65z"/>
				<path class="st19" d="M140.66,81.71c0.26-1.09,0.26-2.54-0.05-3.58c-0.1-0.26-0.73-0.36-0.78-0.05c-0.16,1.14,0.16,2.33,0,3.47
					C139.72,81.97,140.55,82.12,140.66,81.71z"/>
				<path class="st19" d="M136.92,81.81c-0.1-0.36-0.62-0.47-0.83-0.1c-0.26,0.41-0.26,0.93-0.31,1.45c-0.05,0.62-0.1,1.3-0.1,1.92
					c0,0.52,0.93,0.57,0.99,0.05c0.05-0.52,0.1-1.04,0.16-1.56C136.87,83,137.08,82.38,136.92,81.81z"/>
				<path class="st19" d="M132.88,75.44c-0.1-0.36-0.62-0.47-0.83-0.1c-0.26,0.41-0.26,0.93-0.31,1.45c-0.05,0.62-0.1,1.3-0.1,1.92
					c0,0.52,0.93,0.57,0.99,0.05c0.05-0.52,0.1-1.04,0.16-1.56C132.83,76.63,133.04,75.95,132.88,75.44z"/>
				<path class="st19" d="M129.98,100.99c-0.16-0.36-0.67-0.36-0.83-0.05c-0.21,0.47-0.16,0.99-0.16,1.45c0,0.62,0.05,1.3,0.1,1.92
					c0.05,0.52,0.99,0.52,0.99-0.05c0-0.52,0-1.04,0-1.56C130.03,102.19,130.18,101.51,129.98,100.99z"/>
				<path class="st19" d="M135.47,91.46c-0.16-0.36-0.67-0.36-0.83-0.05c-0.21,0.47-0.16,0.99-0.16,1.45c0,0.62,0.05,1.3,0.1,1.92
					c0.05,0.52,0.99,0.52,0.99-0.05c0-0.52,0-1.04,0-1.56C135.52,92.65,135.68,91.97,135.47,91.46z"/>
				<path class="st19" d="M140.29,94.41c-0.16-0.36-0.67-0.36-0.83-0.05c-0.21,0.47-0.16,0.99-0.16,1.45c0,0.62,0.05,1.3,0.1,1.92
					c0.05,0.52,0.99,0.52,0.99-0.05c0-0.52,0-1.04,0-1.56C140.35,95.6,140.5,94.98,140.29,94.41z"/>
				<path class="st19" d="M144.34,90.26c-0.16-0.36-0.67-0.36-0.83-0.05c-0.21,0.47-0.16,0.99-0.16,1.45c0,0.62,0.05,1.3,0.1,1.92
					c0.05,0.52,0.99,0.52,0.99-0.05c0-0.52,0-1.04,0-1.56C144.44,91.4,144.54,90.78,144.34,90.26z"/>
				<path class="st19" d="M137.7,99.65c-0.16-0.36-0.67-0.36-0.83-0.05c-0.21,0.47-0.16,0.99-0.16,1.45c0,0.62,0.05,1.3,0.1,1.92
					c0.05,0.52,0.99,0.52,0.99-0.05c0-0.52,0-1.04,0-1.56C137.75,100.84,137.86,100.16,137.7,99.65z"/>
				<path class="st19" d="M141.49,99.65c-0.16-0.36-0.67-0.36-0.83-0.05c-0.21,0.47-0.16,0.99-0.16,1.45c0,0.62,0.05,1.3,0.1,1.92
					c0.05,0.52,0.99,0.52,0.99-0.05c0-0.52,0-1.04,0-1.56C141.54,100.79,141.69,100.16,141.49,99.65z"/>
				<path class="st19" d="M138.17,113.33c-0.16-0.36-0.67-0.36-0.83-0.05c-0.21,0.47-0.16,0.99-0.16,1.45c0,0.62,0.05,1.3,0.1,1.92
					c0.05,0.52,0.99,0.52,0.99-0.05c0-0.52,0-1.04,0-1.56C138.27,114.52,138.38,113.85,138.17,113.33z"/>
				<path class="st19" d="M143.82,97c-0.16-0.36-0.67-0.36-0.83-0.05c-0.21,0.47-0.16,0.99-0.16,1.45c0,0.62,0.05,1.3,0.1,1.92
					c0.05,0.52,0.99,0.52,0.99-0.05c0-0.52,0-1.04,0-1.56C143.92,98.19,144.03,97.52,143.82,97z"/>
				<path class="st19" d="M138.22,90.26c-0.16-0.36-0.67-0.36-0.83-0.05c-0.21,0.47-0.16,0.99-0.16,1.45c0,0.62,0.05,1.3,0.1,1.92
					c0.05,0.52,0.99,0.52,0.99-0.05c0-0.52,0-1.04,0-1.56C138.27,91.46,138.43,90.78,138.22,90.26z"/>
				<path class="st19" d="M144.34,81.81c-0.1-0.36-0.62-0.47-0.83-0.1c-0.26,0.41-0.26,0.93-0.31,1.45c-0.05,0.62-0.1,1.3-0.1,1.92
					c0,0.52,0.93,0.57,0.99,0.05c0.05-0.52,0.1-1.04,0.16-1.56C144.29,83,144.49,82.38,144.34,81.81z"/>
				<path class="st19" d="M141.38,86.84c-0.16-0.36-0.67-0.36-0.83-0.05c-0.21,0.47-0.16,0.99-0.16,1.45c0,0.62,0.05,1.3,0.1,1.92
					c0.05,0.52,0.99,0.52,0.99-0.05c0-0.52,0-1.04,0-1.56C141.49,88.03,141.59,87.36,141.38,86.84z"/>
				<path class="st19" d="M109.81,61.23c0.16-0.78,0.16-1.61,0.26-2.44c0.1-0.73,0.36-1.66,0.16-2.38
					c-0.05-0.26-0.52-0.47-0.67-0.16c-0.41,0.73-0.47,1.66-0.57,2.44c-0.1,0.78-0.21,1.61-0.16,2.44
					C108.93,61.54,109.76,61.7,109.81,61.23z"/>
				<path class="st19" d="M105.97,62.16c0.1,0.26,0.62,0.47,0.78,0.16c0.36-0.52,0.36-1.09,0.41-1.71c0.1-0.78,0.16-1.56,0-2.38
					c-0.05-0.26-0.52-0.47-0.67-0.21c-0.31,0.73-0.36,1.45-0.47,2.23C106.03,60.92,105.77,61.65,105.97,62.16z"/>
				<path class="st19" d="M106.18,43.71c-0.16-0.36-0.67-0.36-0.83-0.05c-0.21,0.47-0.16,0.99-0.16,1.45c0,0.62,0.05,1.3,0.1,1.92
					c0.05,0.52,0.99,0.52,0.99-0.05c0-0.52,0-1.04,0-1.56C106.23,44.9,106.39,44.23,106.18,43.71z"/>
				<path class="st19" d="M111,46.71c-0.16-0.36-0.67-0.36-0.83-0.05c-0.21,0.47-0.16,0.99-0.16,1.45c0,0.62,0.05,1.3,0.1,1.92
					c0.05,0.52,0.99,0.52,0.99-0.05c0-0.52,0-1.04,0-1.56C111.05,47.86,111.21,47.23,111,46.71z"/>
				<path class="st19" d="M115.25,35.72c-0.16-0.36-0.67-0.36-0.83-0.05c-0.21,0.47-0.16,0.99-0.16,1.45c0,0.62,0.05,1.3,0.1,1.92
					c0.05,0.52,0.99,0.52,0.99-0.05c0-0.52,0-1.04,0-1.56C115.36,36.92,115.46,36.29,115.25,35.72z"/>
				<path class="st19" d="M113.18,58.64c-0.16-0.36-0.67-0.36-0.83-0.05c-0.21,0.47-0.16,0.99-0.16,1.45c0,0.62,0.05,1.3,0.1,1.92
					c0.05,0.52,0.99,0.52,0.99-0.05c0-0.52,0-1.04,0-1.56C113.23,59.78,113.34,59.16,113.18,58.64z"/>
				<path class="st19" d="M100.37,45.73c-0.16-0.36-0.67-0.36-0.83-0.05c-0.21,0.47-0.16,0.99-0.16,1.45c0,0.62,0.05,1.3,0.1,1.92
					c0.05,0.52,0.99,0.52,0.99-0.05c0-0.52,0-1.04,0-1.56C100.48,46.87,100.58,46.25,100.37,45.73z"/>
				<path class="st19" d="M117.9,55.01c-0.16-0.36-0.67-0.36-0.83-0.05c-0.21,0.47-0.16,0.99-0.16,1.45c0,0.62,0.05,1.3,0.1,1.92
					c0.05,0.52,0.99,0.52,0.99-0.05c0-0.52,0-1.04,0-1.56C118,56.2,118.1,55.58,117.9,55.01z"/>
				<path class="st19" d="M104.83,49.93c-0.16-0.36-0.67-0.36-0.83-0.05c-0.21,0.47-0.16,0.99-0.16,1.45c0,0.62,0.05,1.3,0.1,1.92
					c0.05,0.52,0.99,0.52,0.99-0.05c0-0.52,0-1.04,0-1.56C104.89,51.07,105.04,50.45,104.83,49.93z"/>
				<path class="st19" d="M100.37,55.58c-0.16-0.36-0.67-0.36-0.83-0.05c-0.21,0.47-0.16,0.99-0.16,1.45c0,0.62,0.05,1.3,0.1,1.92
					c0.05,0.52,0.99,0.52,0.99-0.05c0-0.52,0-1.04,0-1.56C100.48,56.72,100.58,56.1,100.37,55.58z"/>
				<path class="st19" d="M108.36,51.9c-0.16-0.36-0.67-0.36-0.83-0.05c-0.21,0.47-0.16,0.99-0.16,1.45c0,0.62,0.05,1.3,0.1,1.92
					c0.05,0.52,0.99,0.52,0.99-0.05c0-0.52,0-1.04,0-1.56C108.46,53.09,108.57,52.47,108.36,51.9z"/>
				<path class="st19" d="M112.19,51.9c-0.16-0.36-0.67-0.36-0.83-0.05c-0.21,0.47-0.16,0.99-0.16,1.45c0,0.62,0.05,1.3,0.1,1.92
					c0.05,0.52,0.99,0.52,0.99-0.05c0-0.52,0-1.04,0-1.56C112.25,53.09,112.35,52.42,112.19,51.9z"/>
				<path class="st19" d="M108.93,42.57c-0.16-0.36-0.67-0.36-0.83-0.05c-0.21,0.47-0.16,0.99-0.16,1.45c0,0.62,0.05,1.3,0.1,1.92
					c0.05,0.52,0.99,0.52,0.99-0.05c0-0.52,0-1.04,0-1.56C108.98,43.71,109.14,43.09,108.93,42.57z"/>
				<path class="st19" d="M107.06,37.12c-0.16-0.36-0.67-0.36-0.83-0.05c-0.21,0.47-0.16,0.99-0.16,1.45c0,0.62,0.05,1.3,0.1,1.92
					c0.05,0.52,0.99,0.52,0.99-0.05c0-0.52,0-1.04,0-1.56C107.11,38.32,107.27,37.64,107.06,37.12z"/>
				<path class="st19" d="M103.69,40.34c-0.16-0.36-0.67-0.36-0.83-0.05c-0.21,0.47-0.16,0.99-0.16,1.45c0,0.62,0.05,1.3,0.1,1.92
					c0.05,0.52,0.99,0.52,0.99-0.05c0-0.52,0-1.04,0-1.56C103.74,41.48,103.9,40.86,103.69,40.34z"/>
				<path class="st19" d="M112.09,39.09c-0.16-0.36-0.67-0.36-0.83-0.05c-0.21,0.47-0.16,0.99-0.16,1.45c0,0.62,0.05,1.3,0.1,1.92
					c0.05,0.52,0.99,0.52,0.99-0.05c0-0.52,0-1.04,0-1.56C112.14,40.29,112.3,39.66,112.09,39.09z"/>
				<path class="st19" d="M110.02,35.1c-0.16-0.36-0.67-0.36-0.83-0.05c-0.21,0.47-0.16,0.99-0.16,1.45c0,0.62,0.05,1.3,0.1,1.92
					c0.05,0.52,0.99,0.52,0.99-0.05c0-0.52,0-1.04,0-1.56C110.07,36.29,110.22,35.67,110.02,35.1z"/>
				<path class="st19" d="M115.25,47.91c-0.16-0.36-0.67-0.36-0.83-0.05c-0.21,0.47-0.16,0.99-0.16,1.45c0,0.62,0.05,1.3,0.1,1.92
					c0.05,0.52,0.99,0.52,0.99-0.05c0-0.52,0-1.04,0-1.56C115.36,49.1,115.46,48.43,115.25,47.91z"/>
				<path class="st19" d="M104.68,34.48c-0.16-0.36-0.67-0.36-0.83-0.05c-0.21,0.47-0.16,0.99-0.16,1.45c0,0.62,0.05,1.3,0.1,1.92
					c0.05,0.52,0.99,0.52,0.99-0.05c0-0.52,0-1.04,0-1.56C104.73,35.62,104.89,35,104.68,34.48z"/>
			</g>
		</g>
		<g>
			<path class="st25" d="M106.8,126.09c-0.31-0.78-0.36-1.97-1.19-2.33c-0.16-0.05-0.52,0.05-0.52,0.26
				c0.05,0.41,0.31,0.78,0.41,1.24c0.1,0.36,0.21,0.78,0.31,1.14c0.1,0.31,0.26,0.62,0.36,0.93c0.16,0.31,0.16,0.73,0.41,0.93
				c0.16,0.1,0.47,0.05,0.57-0.16C107.58,127.54,107.06,126.6,106.8,126.09z"/>
			<path class="st25" d="M100.32,114.73c-0.05-0.26-0.47-0.52-0.67-0.31c-0.41,0.41-0.52,0.93-0.67,1.45
				c-0.21,0.67-0.41,1.4-0.41,2.13c0,0.21,0.41,0.52,0.57,0.26c0.36-0.57,0.57-1.24,0.78-1.87
				C100.06,115.87,100.43,115.25,100.32,114.73z"/>
			<path class="st25" d="M106.86,118.41c-0.21,0.88,0.1,1.76,0.26,2.64c0.16,0.73,0.31,1.56,0.62,2.23c0.1,0.31,0.73,0.26,0.73-0.1
				c0-0.73-0.1-1.4-0.16-2.13c-0.1-0.83-0.1-2.18-0.67-2.8C107.43,118.05,106.96,118.1,106.86,118.41z"/>
			<path class="st25" d="M109.34,125.46c-0.21-0.31-0.99-0.05-0.83,0.31c0.21,0.52,0.36,1.04,0.52,1.61
				c0.16,0.57,0.21,1.19,0.47,1.71c0.26,0.47,1.04,0.1,0.99-0.36C110.43,127.64,109.97,126.4,109.34,125.46z"/>
			<path class="st25" d="M114.63,133.19c-0.47-0.47-0.73-1.14-0.99-1.76c-0.26-0.57-0.88-1.5-0.62-2.13
				c0.1-0.26,0.47-0.41,0.67-0.26c0.47,0.41,0.62,1.19,0.83,1.81c0.21,0.62,0.52,1.19,0.78,1.81
				C115.46,132.98,114.94,133.45,114.63,133.19z"/>
			<path class="st25" d="M110.64,125.31c0.1,0.26,0.62,0.31,0.67,0c0.1-0.57,0-1.09-0.05-1.66c-0.05-0.52-0.21-1.19-0.47-1.66
				c-0.16-0.26-0.88-0.26-0.83,0.16c0.05,0.47,0.21,0.93,0.31,1.35C110.38,124.12,110.43,124.74,110.64,125.31z"/>
			<path class="st25" d="M107.06,136.51c0.1,0.26,0.62,0.31,0.67,0c0.1-0.57,0-1.09-0.05-1.66c-0.05-0.52-0.21-1.19-0.47-1.66
				c-0.16-0.26-0.88-0.26-0.83,0.16c0.05,0.47,0.21,0.93,0.31,1.35C106.8,135.31,106.86,135.94,107.06,136.51z"/>
			<path class="st25" d="M109.14,147.34c0.1,0.26,0.62,0.31,0.67,0c0.1-0.57,0-1.09-0.05-1.66c-0.05-0.52-0.21-1.19-0.47-1.66
				c-0.16-0.26-0.88-0.26-0.83,0.16c0.05,0.47,0.21,0.93,0.31,1.35C108.88,146.15,108.93,146.77,109.14,147.34z"/>
			<path class="st25" d="M110.17,119.29c0-0.73-0.16-1.45-0.21-2.23c-0.05-0.67,0.05-1.56-0.26-2.18c-0.1-0.21-0.52-0.31-0.62-0.05
				c-0.26,0.73-0.1,1.56-0.05,2.28c0.05,0.73,0.1,1.5,0.31,2.18C109.45,119.71,110.17,119.71,110.17,119.29z"/>
			<path class="st25" d="M101.52,133.03c0-0.73-0.16-1.45-0.21-2.23c-0.05-0.67,0.05-1.56-0.26-2.18c-0.1-0.21-0.52-0.31-0.62-0.05
				c-0.26,0.73-0.1,1.56-0.05,2.28c0.05,0.73,0.1,1.5,0.31,2.18C100.79,133.45,101.52,133.45,101.52,133.03z"/>
			<path class="st25" d="M106.8,112.92c-0.16,0.99-0.1,2.33,0.26,3.27c0.1,0.26,0.67,0.31,0.73,0c0.1-1.04-0.26-2.07-0.21-3.16
				C107.63,112.55,106.91,112.5,106.8,112.92z"/>
			<path class="st25" d="M110.22,112.55c0.1,0.31,0.62,0.36,0.78,0.05c0.21-0.41,0.21-0.88,0.21-1.3c0.05-0.57,0-1.19,0-1.76
				c0-0.47-0.88-0.47-0.88,0c0,0.47,0,0.93-0.05,1.4C110.17,111.52,110.02,112.09,110.22,112.55z"/>
			<path class="st25" d="M114.22,118.15c0.1,0.31,0.62,0.36,0.78,0.05c0.21-0.41,0.21-0.88,0.21-1.3c0.05-0.57,0-1.19,0-1.76
				c0-0.47-0.88-0.47-0.88,0c0,0.47,0,0.93-0.05,1.4C114.22,117.07,114.06,117.64,114.22,118.15z"/>
			<path class="st25" d="M112.14,105.35c0.1,0.31,0.62,0.36,0.78,0.05c0.21-0.41,0.21-0.88,0.21-1.3c0.05-0.57,0-1.19,0-1.76
				c0-0.47-0.88-0.47-0.88,0c0,0.47,0,0.93-0.05,1.4C112.14,104.26,111.99,104.83,112.14,105.35z"/>
			<path class="st25" d="M115.62,109.24c0.05,0.36,0.57,0.47,0.73,0.21c0.26-0.36,0.31-0.83,0.41-1.3c0.1-0.57,0.21-1.14,0.26-1.76
				c0.05-0.47-0.78-0.62-0.88-0.1c-0.05,0.47-0.16,0.93-0.26,1.4S115.56,108.72,115.62,109.24z"/>
			<path class="st25" d="M101.2,106.96c0.1,0.31,0.62,0.36,0.78,0.05c0.21-0.41,0.21-0.88,0.21-1.3c0.05-0.57,0-1.19,0-1.76
				c0-0.47-0.88-0.47-0.88,0c0,0.47,0,0.93-0.05,1.4C101.2,105.87,101.05,106.44,101.2,106.96z"/>
			<path class="st25" d="M103.28,121.73c0.05,0.36,0.57,0.47,0.73,0.21c0.26-0.36,0.31-0.83,0.41-1.3c0.1-0.57,0.21-1.14,0.26-1.76
				c0.05-0.47-0.78-0.62-0.88-0.1c-0.05,0.47-0.16,0.93-0.26,1.4C103.43,120.69,103.17,121.26,103.28,121.73z"/>
			<path class="st25" d="M107.11,104.62c0.05,0.36,0.57,0.47,0.73,0.21c0.26-0.36,0.31-0.83,0.41-1.3c0.1-0.57,0.21-1.14,0.26-1.76
				c0.05-0.47-0.78-0.62-0.88-0.1c-0.05,0.47-0.16,0.93-0.26,1.4C107.27,103.59,107.01,104.16,107.11,104.62z"/>
			<path class="st25" d="M109.6,106.33c0.1,0.31,0.62,0.36,0.78,0.05c0.21-0.41,0.21-0.88,0.21-1.3c0.05-0.57,0-1.19,0-1.76
				c0-0.47-0.88-0.47-0.88,0s0,0.93-0.05,1.4C109.6,105.25,109.45,105.82,109.6,106.33z"/>
			<path class="st25" d="M104.37,112.4c0.1,0.31,0.62,0.36,0.78,0.05c0.21-0.41,0.21-0.88,0.21-1.3c0.05-0.57,0-1.19,0-1.76
				c0-0.47-0.88-0.47-0.88,0c0,0.47,0,0.93-0.05,1.4C104.31,111.31,104.21,111.88,104.37,112.4z"/>
			<path class="st25" d="M106.6,109.29c0.1,0.31,0.62,0.36,0.78,0.05c0.21-0.41,0.21-0.88,0.21-1.3c0.05-0.57,0-1.19,0-1.76
				c0-0.47-0.88-0.47-0.88,0c0,0.47,0,0.93-0.05,1.4C106.6,108.25,106.44,108.82,106.6,109.29z"/>
		</g>
	</g>
	<g>
		<g>
			<path class="st10" d="M98.77,64.7c0.99,0,0.99-1.56,0-1.56S97.78,64.7,98.77,64.7L98.77,64.7z"/>
		</g>
	</g>
	<g>
		<g>
			<path class="st10" d="M118.68,64.7c0.99,0,0.99-1.56,0-1.56C117.64,63.15,117.64,64.7,118.68,64.7L118.68,64.7z"/>
		</g>
	</g>
</g>
</svg>
