<?xml version="1.0" encoding="UTF-8"?>
<svg id="Ebene_2" data-name="Ebene 2" xmlns="http://www.w3.org/2000/svg" viewBox="0 0 133.07 129.87">
  <defs>
    <style>
      .cls-1 {
        fill: #f2dbb1;
      }

      .cls-1, .cls-2, .cls-3, .cls-4, .cls-5, .cls-6, .cls-7 {
        stroke-width: 0px;
      }

      .cls-2 {
        fill: #dbaf6e;
      }

      .cls-3 {
        fill: #edd0a2;
      }

      .cls-4 {
        fill: #fff;
      }

      .cls-8 {
        fill: none;
        stroke: #edd0a2;
        stroke-linecap: round;
        stroke-linejoin: round;
        stroke-width: .98px;
      }

      .cls-5 {
        fill: #fcbba7;
      }

      .cls-6 {
        fill: #3f3123;
      }

      .cls-7 {
        fill: #e7c387;
      }
    </style>
  </defs>
  <g id="Ebene_1-2" data-name="Ebene 1">
    <g>
      <g>
        <path class="cls-1" d="M17.33,109.17s-2-8.8-15-11.8c-7.1,21.4,2.7,32.3,20.3,32.3,6.3.1-5.3-20.5-5.3-20.5Z"/>
        <path class="cls-2" d="M110.53,126.77v-33.7h-21.9s7.6,36.8,14.8,36.8h10.5c-.1-2.5-2.4-3-3.4-3.1Z"/>
        <g>
          <path class="cls-2" d="M114.13,120.77s0-.1.1-.2c0,.1-.1.2-.1.2Z"/>
          <path class="cls-2" d="M114.33,120.27c0-.1.1-.2.1-.2-.1.1-.1.2-.1.2Z"/>
        </g>
        <g>
          <path class="cls-2" d="M81.13.07c-13.9,2,.2,42.5.2,42.5l3-.4c-2-8.9-7.7-36.8-2.6-37.5,5.2-.7,7.4,27.7,8,36.7l3-.4c.1,0,2.3-42.9-11.6-40.9Z"/>
          <path class="cls-5" d="M81.73,4.67c-5.2.7.6,28.6,2.6,37.5l5.5-.8c-.6-9.1-2.9-37.5-8.1-36.7Z"/>
        </g>
        <g>
          <path class="cls-2" d="M83.93,103.77c-6.3-9.8,0-20.6,0-20.6,7-9.2,14.1-13.1,20.7-13.3-.8-.7-1.7-1.3-2.6-1.9-3.8-2.4-8-4.2-12.6-5.1-10.8-2.2-9.9,20.7-42.5,17.8-16.1-1.5-30.7,10.1-31.9,26.3-.8,11.6,5.1,20.7,5.1,20.7h31.6v-6.7c18.5,5.1,38.5-7.4,32.2-17.2Z"/>
          <path class="cls-3" d="M102.23,111.77c9.9-13.4,14.9-31.4,2.5-41.9-6.6.3-13.8,4.1-20.7,13.3,0,0-6.3,10.7,0,20.6,6.3,9.8-13.7,22.3-32.3,17.1v6.7h13.3c12.4,0,29.8-5.7,37.2-15.8Z"/>
        </g>
        <g>
          <path class="cls-2" d="M129.43,4.27c12.8,5.9-12.3,40.7-12.3,40.7l-2.7-1.3c4.4-7.9,17.9-33,13.2-35.2s-15,24.4-18.2,32.9l-2.7-1.3c-.1,0,9.9-41.7,22.7-35.8Z"/>
          <path class="cls-5" d="M127.53,8.47c4.7,2.2-8.7,27.3-13.2,35.2l-5-2.3c3.1-8.5,13.4-35.1,18.2-32.9Z"/>
        </g>
        <g>
          <path class="cls-2" d="M94.73,69.87c13.9-6.2,26.3-1.9,32.4,1.1.2-.8.4-1.6.5-2.5,2.6-17.7-9.7-34.2-27.4-36.8s-34.2,9.7-36.8,27.4c-.1.8-.2,1.5-.2,2.3,5.9-.6,20.3-1,31.5,8.5Z"/>
          <path class="cls-1" d="M94.73,69.87c-11.3-9.5-25.6-9.2-31.5-8.5-1.1,16.1,12,23.4,28.9,25.9,16.8,2.5,31.4-.7,35-16.2-6-3.1-18.5-7.3-32.4-1.2Z"/>
        </g>
        <path class="cls-2" d="M39.53,99.87s15.1-2.8,19.5,7.8c4.4,10.6-3.5,17-3.5,17,0,0,5,1.8,5,5.1H20.73l-.6-2.7c-.1,0,1.5-27.2,19.4-27.2Z"/>
        <path class="cls-2" d="M86.93,126.87l-1.4-17.4c-.5-6-4.5-11.2-10.2-13.1l-10.1-3.4s7.1,34.4,14.1,36.6v.1h10.3c-.2-1.8-1.7-2.5-2.7-2.8Z"/>
        <g>
          <path class="cls-6" d="M79.83,61.37c-.2,1.7,1,3.3,2.8,3.6,1.7.2,3.3-1,3.6-2.8.2-1.7-1-3.3-2.8-3.6-1.7-.2-3.3,1.1-3.6,2.8Z"/>
          <path class="cls-6" d="M105.93,64.67c-.2,1.7,1,3.3,2.8,3.6,1.7.2,3.3-1,3.6-2.8.2-1.7-1-3.3-2.8-3.6-1.8-.2-3.4,1-3.6,2.8Z"/>
          <path class="cls-6" d="M94.63,73.07s-9.8-7.1.7-5.8c10.6,1.3-.7,5.8-.7,5.8Z"/>
          <g>
            <path class="cls-6" d="M91.93,75.77c.5-.2.9-.3,1.2-.5s.5-.5.7-.9c.1-.2.2-.4.2-.5s.1-.2.1-.3.1-.2.1-.3c.1-.5.3-.9.6-1.3.1.5.2,1,.2,1.4v.4c0,.2,0,.3-.1.4-.1.3-.2.5-.3.7-.3.5-.7.9-1.2,1.1s-1,.1-1.5-.2Z"/>
            <path class="cls-6" d="M96.63,76.37c-.5.1-1,.1-1.5-.2s-.8-.8-.9-1.4c-.1-.3-.1-.5-.1-.8v-.4c0-.1.1-.2.1-.3.1-.5.3-.9.6-1.3.1.5.2,1,.2,1.4v.7c0,.2,0,.4.1.6.1.4.2.7.5,1,.2.2.6.4,1,.7Z"/>
          </g>
          <path class="cls-5" d="M72.13,67.27c-.2,1.8,1.9,3.5,4.6,3.8,2.8.3,5.2-.8,5.4-2.6s-1.9-3.5-4.6-3.8c-2.7-.3-5.2.8-5.4,2.6Z"/>
          <path class="cls-5" d="M108.33,71.77c-.2,1.8,1.9,3.5,4.6,3.8,2.8.3,5.2-.8,5.4-2.6s-1.9-3.5-4.6-3.8-5.2.9-5.4,2.6Z"/>
          <path class="cls-6" d="M106.23,62.57c.9-.9,2.2-1.2,3.5-1.1.6.1,1.2.3,1.8.6.3.1.5.3.8.5.2.2.5.4.7.6h-.4c.5-.3.9-.5,1.4-.7-.3.4-.7.8-1,1.2-.1.1-.2.1-.3,0h-.1c-.5-.3-1-.5-1.5-.7s-1-.4-1.5-.5c-1.2-.2-2.3-.2-3.4.1Z"/>
          <path class="cls-6" d="M86.43,60.07c-1.1-.6-2.1-.9-3.2-1-.5,0-1.1,0-1.6.1s-1.1.2-1.6.4h-.1c-.1,0-.2,0-.3-.1-.3-.5-.5-.9-.7-1.4.4.3.8.7,1.2,1l-.4-.1c.3-.1.5-.3.8-.4.3-.1.6-.2.9-.3.6-.1,1.3-.2,1.9-.1,1.3.2,2.5.9,3.1,1.9Z"/>
        </g>
        <path class="cls-8" d="M35.93,107.07s34.3-11.2,22.4,16.3"/>
        <line class="cls-8" x1="68.03" y1="106.57" x2="72.33" y2="120.87"/>
        <g>
          <path class="cls-7" d="M39.63,91.27c.8-1.1,2.1-1.7,3.2-2.4,1-.6,2.1-1.3,3.2-1.6.5-.2,1.1.5.7.9-.8.8-1.7,1.4-2.6,2-1,.8-2.6,2.1-3.9,2.1-.4,0-.8-.6-.6-1Z"/>
          <path class="cls-7" d="M57.23,85.37c-1.3,0-3,.5-4-.5-.2-.2-.2-.8.1-.9.7-.1,1.3,0,2-.1.6-.1,1.2-.2,1.8-.2h1.5c.5,0,1.1-.2,1.6.1.3.2.3.6.1.9-.6,1-2.2.7-3.1.7Z"/>
          <path class="cls-7" d="M55.53,90.37c1-.6,2-1,3.1-1.5.9-.5,2-1.3,3-1.4.4,0,.9.4.6.8-.7.9-1.9,1.4-2.9,1.9s-2,1.1-3.1,1.3c-.6.2-1.2-.8-.7-1.1Z"/>
          <path class="cls-7" d="M63.33,84.07c1-.6,2-1,3.1-1.5.9-.5,2-1.3,3-1.4.4,0,.9.4.6.8-.7.9-1.9,1.4-2.9,1.9s-2,1.1-3.1,1.3c-.6.2-1.2-.8-.7-1.1Z"/>
          <path class="cls-7" d="M68.23,91.07c1-.6,2-1,3.1-1.5.9-.5,2-1.3,3-1.4.4,0,.9.4.6.8-.7.9-1.9,1.4-2.9,1.9s-2,1.1-3.1,1.3c-.7.2-1.3-.8-.7-1.1Z"/>
          <path class="cls-7" d="M19.03,100.77c.5-1,1.1-2,1.7-3,.5-.9.9-2.2,1.7-2.8.3-.2.9-.1.9.3-.1,1.1-.8,2.2-1.3,3.2s-1.1,2-1.8,2.9c-.5.4-1.5-.1-1.2-.6Z"/>
          <path class="cls-7" d="M46.93,93.67c-1.2,1-2.9,2-4.5,2.3-.4.1-.9-.6-.5-.9,1.3-1,2.9-1.3,4.3-2.3.5-.4,1.2.5.7.9Z"/>
          <path class="cls-7" d="M27.83,100.07c-.7,1.4-2,2.9-3.3,3.8-.3.2-1.1-.2-.9-.7.8-1.4,2.2-2.3,3.1-3.7.4-.6,1.4,0,1.1.6Z"/>
          <path class="cls-7" d="M20.43,104.37c-.1,1.5-.6,3.5-1.4,4.8-.2.3-1.1.2-1.1-.2.2-1.6,1.1-3.1,1.3-4.7.1-.6,1.3-.5,1.2.1Z"/>
          <path class="cls-7" d="M30.53,90.97c-.9,1.2-2.5,2.6-3.9,3.1-.4.1-1.1-.4-.7-.8,1.1-1.2,2.6-1.9,3.7-3.1.4-.5,1.3.3.9.8Z"/>
          <path class="cls-7" d="M50.43,84.97c-.9.2-1.9.3-2.8.5-1,.2-2.1.6-3.1.5-.4-.1-.7-.8-.3-1,1.6-1,4.2-1.1,6-1.2.7-.1.9,1.1.2,1.2Z"/>
          <path class="cls-7" d="M40.33,86.87c-.9.5-1.7.9-2.6,1.3-.9.5-1.8,1.2-2.8,1.4-.4.1-.9-.5-.6-.9,1.2-1.5,3.6-2.3,5.4-3,.7-.2,1.2.8.6,1.2Z"/>
          <path class="cls-7" d="M56.03,96.97c-.4,0-.9-.6-.6-1,.5-.7,1.3-1,2-1.4,1-.5,2-.9,3.1-1.1.3-.1.9.5.6.8-.8.7-1.7,1.2-2.7,1.7-.7.3-1.5,1-2.4,1Z"/>
          <path class="cls-7" d="M52.83,94.37c-.7.7-1.8,1-2.7,1.5-.9.5-1.7.9-2.7,1-.3,0-.9-.4-.6-.7.8-.8,1.6-1.2,2.6-1.7.9-.4,1.9-1,2.9-.9.4,0,.8.6.5.8Z"/>
          <path class="cls-7" d="M54.53,88.07s-.6.5-.9.6c-.6.4-1.2.7-1.9,1.1-.8.4-2.3,1.7-3.2,1.1-.3-.2-.5-.6-.3-.9.6-.9,2.2-1.4,3.1-1.8.7-.4,1.7-1.1,2.5-1.2.6-.2,1.2.6.7,1.1Z"/>
          <path class="cls-7" d="M39.13,96.17s-.6.5-.8.7c-.6.4-1.1.9-1.7,1.3-.7.5-2.1,2-3.1,1.5-.3-.2-.6-.5-.4-.9.4-1,2-1.6,2.8-2.2.7-.5,1.5-1.3,2.3-1.5.7-.1,1.3.6.9,1.1Z"/>
          <path class="cls-7" d="M32.13,105.87s-.6.5-.8.7c-.6.4-1.1.9-1.7,1.3-.7.5-2.1,2-3.1,1.5-.3-.2-.6-.5-.4-.9.4-1,2-1.6,2.8-2.2.7-.5,1.5-1.3,2.3-1.5.6-.2,1.3.6.9,1.1Z"/>
          <path class="cls-7" d="M35.23,93.97s-.6.5-.8.7c-.6.4-1.1.9-1.7,1.3-.7.5-2.1,2-3.1,1.5-.3-.2-.6-.5-.4-.9.4-1,2-1.6,2.8-2.2.7-.5,1.5-1.3,2.3-1.5.6-.1,1.2.6.9,1.1Z"/>
        </g>
        <g>
          <path class="cls-7" d="M95.93,54.27c-.7-1.1-.7-2.5-.9-3.8-.2-1.1-.3-2.3-.3-3.4,0-.5.9-.7,1-.2.4,1,.6,2,.8,3,.3,1.2.9,3.1.4,4.2-.1.4-.7.6-1,.2Z"/>
          <path class="cls-7" d="M97.33,36.47c-.5,1.1-.7,2.8-1.9,3.3-.3.1-.8-.1-.7-.4.1-.6.5-1.2.7-1.8s.3-1.1.5-1.7c.2-.5.4-.9.6-1.3.2-.5.2-1,.7-1.3.3-.2.7,0,.8.2.5.9-.3,2.2-.7,3Z"/>
          <path class="cls-7" d="M101.13,39.87c-.1-1.1-.1-2.2-.2-3.3-.1-1-.4-2.2-.1-3.2.1-.4.7-.6.9-.2.5,1,.5,2.2.6,3.3s.2,2.2,0,3.3c-.1.5-1.2.7-1.2.1Z"/>
          <path class="cls-7" d="M100.83,53.47c.4,1.4.7,3.4.3,4.8-.1.4-.9.6-1,.1-.4-1.5-.1-3.1-.4-4.6-.2-.6.9-.9,1.1-.3Z"/>
          <path class="cls-7" d="M90.83,60.07c.7,1.3,1.3,3.2,1.3,4.7,0,.4-.8.8-1,.3-.7-1.4-.7-3-1.3-4.5-.2-.5.7-1.1,1-.5Z"/>
          <path class="cls-7" d="M94.43,42.37c-.2.9-.4,1.8-.6,2.7-.2.9-.2,2-.7,2.9-.2.4-.9.3-1-.1-.3-1.8.6-4.1,1.2-5.8.1-.6,1.2-.4,1.1.3Z"/>
          <path class="cls-7" d="M92.23,51.97c.1.9.1,1.8.2,2.8.1,1,.4,2,.2,3-.1.4-.8.6-1,.2-.9-1.6-.7-4.1-.6-5.9,0-.7,1.2-.8,1.2-.1Z"/>
          <path class="cls-7" d="M107.13,41.87c-.2.4-.8.6-1.1.2-.4-.7-.4-1.5-.4-2.3-.1-1.1-.1-2.1.2-3.2.1-.3.8-.6.9-.2.3,1,.4,2,.5,3-.1.8.2,1.8-.1,2.5Z"/>
          <path class="cls-7" d="M107.33,50.07c-.2.9-.9,1.8-1.4,2.6-.5.9-.9,1.6-1.7,2.2-.2.2-.9.1-.8-.3.2-1.1.6-1.8,1.3-2.7.5-.8,1-1.8,1.9-2.2.2-.2.8,0,.7.4Z"/>
          <path class="cls-7" d="M104.43,45.07c-.2.9-.9,1.8-1.4,2.6-.5.9-.9,1.6-1.7,2.2-.2.2-.9.1-.8-.3.2-1.1.6-1.8,1.3-2.7.5-.8,1-1.8,1.9-2.2.2-.2.8,0,.7.4Z"/>
          <path class="cls-7" d="M98.63,39.87s.2.7.2,1c.1.7.2,1.4.2,2,.1.8.6,2.7-.3,3.2-.3.2-.7.2-.9-.1-.6-.8-.4-2.4-.5-3.4,0-.8-.3-1.9-.1-2.6.3-.5,1.2-.7,1.4-.1Z"/>
          <path class="cls-7" d="M102.93,61.97s-.3.7-.5.9c-.4.6-.7,1.2-1.1,1.7-.5.7-1.2,2.5-2.2,2.4-.3,0-.7-.3-.7-.7.1-1,1.2-2.1,1.8-2.9.5-.6.9-1.7,1.6-2.1.4-.3,1.3.1,1.1.7Z"/>
          <path class="cls-7" d="M97.23,59.37s-.1.7-.1,1c-.1.7-.3,1.3-.4,2-.2.8-.3,2.8-1.3,3-.3.1-.8,0-.9-.4-.3-1,.4-2.4.7-3.4.2-.8.3-1.9.7-2.5.3-.4,1.2-.3,1.3.3Z"/>
        </g>
      </g>
      <path class="cls-4" d="M81.93,63.17c1.9,0,1.9-3,0-3s-1.9,3,0,3h0Z"/>
      <path class="cls-4" d="M107.83,66.47c1.9,0,1.9-3,0-3s-1.9,3,0,3h0Z"/>
    </g>
  </g>
</svg>