<?xml version="1.0" encoding="UTF-8"?>
<svg id="Ebene_2" data-name="Ebene 2" xmlns="http://www.w3.org/2000/svg" viewBox="0 0 73.83 86.75">
  <defs>
    <style>
      .cls-1 {
        fill: #f2dbb1;
      }

      .cls-1, .cls-2, .cls-3, .cls-4, .cls-5, .cls-6, .cls-7 {
        stroke-width: 0px;
      }

      .cls-8 {
        fill: none;
        stroke: #d8ae77;
        stroke-linecap: round;
        stroke-linejoin: round;
      }

      .cls-2 {
        fill: #fff;
      }

      .cls-3 {
        fill: #e3b7ab;
      }

      .cls-4 {
        fill: #fcbba7;
      }

      .cls-5 {
        fill: #3f3123;
      }

      .cls-6 {
        fill: #e7c28d;
      }

      .cls-7 {
        fill: #7c674a;
      }
    </style>
  </defs>
  <g id="Ebene_1-2" data-name="Ebene 1">
    <g>
      <g>
        <path class="cls-7" d="M69.32,60.85c2.6-.8,3.8-2.4,4.3-3.4.2-.3-.1-.7-.5-.7-.8.1-2.1.1-3.8-.3-.5-.1-.5-.8,0-.9,3.5-1.1,4.4-3.2,4.5-4.4.1-.4-.3-.6-.6-.5-.8.3-2.4.7-4.1.2-.5-.1-.5-.8,0-.9,2.9-1,4.1-2.1,4.5-2.7.2-.2.1-.5,0-.6-.7-.7-2.9-2.5-5.2-2.9-.4-.1-.6-.6-.2-.8,1.6-1.2,3.2-1.3,4.3-1.1.4.1.7-.4.5-.7-.8-1.2-2.3-3-4.5-3.6-.4-.1-.5-.7-.1-.9,3-1.7,3.7-4.3,3.9-5.6,0-.4-.4-.7-.7-.5-.8.4-2.3,1-4.5,1.3-.5,0-.7-.6-.4-.9,2.8-2.1,3.3-4.5,3.3-5.6,0-.4-.4-.6-.7-.5-.6.2-1.5.6-2.9.8-.5.1-.8-.6-.4-.9,2-1.4,3.2-3.5,3.6-4.5.1-.3-.1-.6-.4-.7-1-.1-3.1-.2-5.2.7-.4.2-.9-.2-.6-.6,1.2-2.5,3.5-3.9,4.6-4.5.4-.2.3-.7-.1-.9-1-.4-3-.7-6.2.9-.3.2-.8-.1-.7-.5.4-2.1,2-3.8,3-4.6.3-.3.2-.7-.2-.8-1.1-.2-3.1-.4-5.6,1-.4.2-.8-.1-.7-.5.4-1.9,0-3.8-.3-4.6-.1-.3-.4-.4-.7-.3-.8.4-2.4,1.3-3.2,2.6-.2.3-.7.3-.8-.1-.6-1.6-.3-2.9,0-3.7.2-.4-.2-.8-.6-.7-.9.2-2.1.8-2.7,2.2-.2.4-.6.4-.8.1-.6-1-.7-2-.5-2.8.1-.4-.5-.7-.8-.4-.9.8-1.9,1.9-2.3,3.1-.1.4-.6.4-.8.1-1.3-1.9-1-3.5-.6-4.6.2-.4-.2-.8-.6-.6-1,.5-2.5,1.4-3.7,3.1-.2.3-.8.3-.9-.1-.3-.9-.8-1.5-1.1-1.9v-.3l-.2.2-.2-.2v.3c-.4.3-.9,1-1.1,1.9-.1.4-.6.5-.9.1-1.2-1.7-2.7-2.7-3.7-3.1-.4-.2-.8.2-.6.6.4,1,.7,2.7-.6,4.6-.2.3-.7.2-.8-.1-.4-1.2-1.5-2.3-2.3-3.1-.3-.3-.9,0-.8.4.1.8.1,1.8-.5,2.8-.2.3-.7.3-.8-.1-.6-1.4-1.8-1.9-2.7-2.2-.4-.1-.7.3-.6.7.3.8.6,2.1,0,3.7-.1.4-.6.4-.8.1-.8-1.3-2.4-2.2-3.2-2.6-.3-.1-.6,0-.7.3-.3.9-.7,2.8-.3,4.6.1.4-.3.7-.7.5-2.4-1.3-4.5-1.2-5.6-1-.4.1-.5.6-.2.8.9.8,2.6,2.5,3,4.6.1.4-.3.7-.7.5-3.2-1.6-5.2-1.3-6.2-.9-.4.2-.4.7-.1.9,1.2.6,3.4,2.1,4.6,4.5.2.4-.2.8-.6.6-2.1-.9-4.2-.9-5.2-.7-.3,0-.5.4-.4.7.5,1,1.6,3.1,3.6,4.5.4.3.1.9-.4.9-1.4-.2-2.3-.5-2.9-.8-.3-.1-.7.1-.7.5,0,1.2.5,3.5,3.3,5.6.4.3.1.9-.4.9-2.2-.2-3.7-.8-4.5-1.3-.3-.2-.7.1-.7.5.1,1.4.9,4,3.9,5.6.4.2.3.7-.1.9-2.2.6-3.7,2.5-4.5,3.6-.2.3.1.8.5.7,1-.1,2.7-.1,4.3,1.1.3.3.2.8-.2.8-2.4.4-4.5,2.2-5.2,2.9-.2.2-.2.5,0,.6.4.6,1.6,1.6,4.5,2.7.4.2.4.8,0,.9-1.7.5-3.2.1-4.1-.2-.3-.1-.7.2-.6.5.2,1.2,1,3.3,4.5,4.4.5.1.4.8,0,.9-1.6.5-3,.4-3.8.3-.4,0-.6.4-.5.7.5,1,1.7,2.6,4.3,3.4.4.1.5.7.1.9-1.7.9-3,1.1-3.8,1.1-.4,0-.6.5-.4.8.7.9,2,2.2,4.4,2.5.4.1.5.6.2.8-2.1,1.5-2.9,3.9-3.1,4.9-.1.3.1.6.4.6,1,.1,3.3.2,5.8-1.1.4-.2.8.2.7.6-.5,1.1-1.3,1.8-1.9,2.2-.4.2-.3.8.2.9,1.6.3,4.5.4,6.7-2.6.3-.4.9-.2.9.3-.1,1.1-.8,2.2-1.3,2.9-.2.3,0,.8.4.8,2,0,6.5-.7,9-6.8,0-.1.1-.2.1-.3,5.4-12.7,22.7-12.7,28.1,0,0,.1.1.2.1.2,2.5,6,7,6.8,9,6.8.4,0,.6-.4.4-.8-.5-.7-1.2-1.8-1.3-2.9,0-.5.6-.7.9-.3,2.3,2.9,5.2,2.9,6.7,2.6.4-.1.5-.6.2-.9-.6-.4-1.4-1.1-1.9-2.2-.2-.4.2-.8.7-.6,2.6,1.2,4.9,1.2,5.8,1.1.3,0,.5-.3.4-.6-.2-1-1-3.4-3.1-4.9-.3-.2-.2-.8.2-.8,2.3-.4,3.7-1.7,4.4-2.5.2-.3,0-.8-.4-.8-.8,0-2.1-.2-3.8-1.1-.5-.1-.4-.6,0-.8Z"/>
        <g>
          <path class="cls-6" d="M42.22,73.65s22.3,14.7,25.9,11.1l3.6-3.6-18.5-18.5-11,11Z"/>
          <path class="cls-6" d="M32.82,73.65s-22.3,14.7-25.9,11.1l-3.6-3.6,18.5-18.5,11,11Z"/>
        </g>
        <g>
          <g>
            <path class="cls-6" d="M18.02,16.05c0,3,2.4,5.4,5.4,5.4s5.4-2.4,5.4-5.4-2.4-5.4-5.4-5.4-5.4,2.5-5.4,5.4Z"/>
            <path class="cls-3" d="M19.62,16.05c0,2.1,1.7,3.8,3.8,3.8s3.8-1.7,3.8-3.8-1.7-3.8-3.8-3.8c-2.1.1-3.8,1.8-3.8,3.8Z"/>
          </g>
          <g>
            <path class="cls-6" d="M46.22,16.05c0,3,2.4,5.4,5.4,5.4s5.4-2.4,5.4-5.4-2.4-5.4-5.4-5.4-5.4,2.5-5.4,5.4Z"/>
            <path class="cls-3" d="M47.82,16.05c0,2.1,1.7,3.8,3.8,3.8s3.8-1.7,3.8-3.8-1.7-3.8-3.8-3.8c-2.1.1-3.8,1.8-3.8,3.8Z"/>
          </g>
        </g>
        <path class="cls-6" d="M38.02,9.95h-.6c-17.6.3-23.8,32-25.1,45.3-1.8,19.5,7.1,22.9,7.1,22.9h36.5s8.9-3.4,7.1-22.9c-1.2-13.3-7.4-45-25-45.3Z"/>
        <g>
          <path class="cls-6" d="M20.12,67.35s7,19.4,10.3,19.4h3.3l-3.6-19.4h-10Z"/>
          <path class="cls-6" d="M54.82,67.35s-7,19.4-10.3,19.4h-3.3l3.5-19.4h10.1Z"/>
        </g>
        <path class="cls-7" d="M37.32,8.65c-.9-.4-4.3-1.4-8.2,1.4-.4.3-.3,1,.2,1.1,1.5.3,4.1,1.1,6.3,3.2,1,1,2.7,1,3.7,0,2.1-2.1,4.7-2.9,6.3-3.2.5-.1.7-.8.2-1.1-3.9-2.9-7.3-1.8-8.2-1.4,0,.1-.2.1-.3,0Z"/>
        <path class="cls-1" d="M32.32,79.55s-11.5-30.7,5.1-30.7,5.1,30.7,5.1,30.7c0,0-10.2,0-10.2,0Z"/>
        <g>
          <path class="cls-5" d="M26.52,25.25c0,1.2,1,2.2,2.2,2.2s2.2-1,2.2-2.2-1-2.2-2.2-2.2c-1.2.1-2.2,1-2.2,2.2Z"/>
          <circle class="cls-5" cx="46.62" cy="25.25" r="2.2"/>
          <path class="cls-5" d="M37.52,31.95s-7.3-4,0-4,0,4,0,4Z"/>
          <g>
            <path class="cls-5" d="M35.92,34.05c.7-.4.8-.7,1-1.2,0-.1.1-.2.1-.4l.1-.2v-.2c.1-.3.2-.6.4-.9.2.3.3.6.4.9v.5c0,.2-.1.4-.1.6-.1.4-.4.7-.8.9s-.8.2-1.1,0Z"/>
            <path class="cls-5" d="M39.12,34.05c-.3.2-.7.2-1.1.1-.4-.2-.7-.5-.8-.9-.1-.2-.1-.4-.1-.6v-.5c.1-.3.2-.6.4-.9.2.3.3.6.4.9v.2l.1.2c0,.1.1.2.1.4.2.4.3.7,1,1.1Z"/>
          </g>
          <ellipse class="cls-4" cx="25.22" cy="29.95" rx="3.5" ry="2.2"/>
          <ellipse class="cls-4" cx="50.12" cy="29.95" rx="3.5" ry="2.2"/>
          <path class="cls-5" d="M44.42,23.85c.4-.8,1.4-1.2,2.3-1.2.4,0,.9.1,1.3.2.2.1.4.2.6.3s.4.3.5.4h-.4c.3-.2.6-.4,1-.5-.1.4-.3.7-.5,1-.1.1-.2.1-.2.1h-.1c-.4-.1-.7-.2-1.1-.3-.3-.1-.7-.1-1-.2-.9-.1-1.6,0-2.4.2Z"/>
          <path class="cls-5" d="M30.82,23.85c-.8-.2-1.5-.3-2.2-.2-.3,0-.7.1-1,.2-.4.1-.7.2-1.1.3h-.1c-.1,0-.2,0-.2-.1-.2-.3-.4-.6-.5-1,.4.1.7.3,1,.5h-.4c.2-.1.3-.3.5-.4.2-.1.4-.2.6-.3.4-.2.9-.2,1.3-.2.8.1,1.7.5,2.1,1.2Z"/>
        </g>
        <path class="cls-6" d="M9.12,85.25s-1.5.4-3.7-1.1c-2.1-1.5-4.9-5.1-1.3-3.9,3.6,1.2,5,5,5,5Z"/>
        <path class="cls-6" d="M65.92,85.25s1.5.4,3.7-1.1c2.1-1.5,4.9-5.1,1.3-3.9-3.6,1.2-5,5-5,5Z"/>
        <path class="cls-6" d="M33.12,84.75s2,.6,2,2h-4.7s.4-2,2.7-2Z"/>
        <path class="cls-6" d="M42.12,84.75s-2,.6-2,2h4.7s-.3-2-2.7-2Z"/>
        <line class="cls-8" x1="24.12" y1="78.75" x2="18.12" y2="66.05"/>
        <line class="cls-8" x1="50.92" y1="78.75" x2="56.92" y2="66.05"/>
        <path class="cls-8" d="M35.12,38.85s2.4,1.3,4.9,0"/>
      </g>
      <path class="cls-2" d="M27.72,25.45c.8,0,.8-1.2,0-1.2s-.8,1.2,0,1.2h0Z"/>
      <path class="cls-2" d="M45.82,25.35c.8,0,.8-1.2,0-1.2s-.8,1.2,0,1.2h0Z"/>
    </g>
  </g>
</svg>