<?xml version="1.0" encoding="utf-8"?>
<!-- Generator: Adobe Illustrator 28.0.0, SVG Export Plug-In . SVG Version: 6.00 Build 0)  -->
<svg version="1.1" id="Ebene_1" xmlns="http://www.w3.org/2000/svg" xmlns:xlink="http://www.w3.org/1999/xlink" x="0px" y="0px"
	 viewBox="0 0 636.94 754.91" style="enable-background:new 0 0 636.94 754.91;" xml:space="preserve">
<g>
	<g>
		<path d="M12.44,11.39c204.88,0,409.76,0,614.64,0c0,243.28,0,486.56,0,729.84c-204.88,0-409.76,0-614.64,0
			c-0.39-1.33-0.24-2.7-0.24-4.05c-0.01-189.41-0.01-378.82-0.01-568.23c0-51.33,0-102.66,0-153.99
			C12.19,13.76,12.09,12.56,12.44,11.39z M319.58,718.59c93.8,0,187.6,0,281.4-0.01c4.11,0,3.59,0.59,3.59-3.52
			c0.01-107.96,0.01-215.92,0-323.88c0-4.18,0.55-3.6-3.49-3.6c-187.6-0.01-375.19-0.01-562.79,0c-4.06,0-3.61-0.58-3.61,3.51
			c-0.01,107.96-0.01,215.92,0,323.88c0,4.21-0.43,3.61,3.52,3.61C131.98,718.6,225.78,718.59,319.58,718.59z M319.52,365.07
			c93.88,0,187.75,0,281.63-0.01c3.94,0,3.42,0.53,3.42-3.43c0.01-107.96,0.01-215.91,0-323.87c0-3.98,0.61-3.58-3.55-3.58
			c-187.59-0.01-375.18-0.01-562.78,0c-4.08,0-3.57-0.36-3.57,3.6c-0.01,107.96-0.01,215.91,0,323.87c0,3.93-0.46,3.41,3.47,3.41
			C131.93,365.07,225.72,365.07,319.52,365.07z"/>
		<path d="M299.87,208.89c9.95,14.65,19.86,29.22,29.79,43.83c-0.81,0.62-1.47,0.42-2.07,0.42c-7.44,0.02-14.87-0.04-22.31,0.05
			c-1.56,0.02-2.43-0.48-3.26-1.8c-8.03-12.7-16.16-25.34-24.18-38.05c-0.91-1.45-1.85-2.19-3.61-2.04
			c-1.75,0.15-3.52,0.01-5.27,0.04c-1.92,0.03-1.93,0.05-1.96,2.05c-0.02,1.84-0.01,3.68-0.01,5.52c0,10.24,0,20.47,0,30.71
			c0,0.56,0.01,1.12,0,1.68c-0.06,1.8-0.07,1.84-1.92,1.84c-6.72,0.02-13.43,0.02-20.15,0c-1.69-0.01-1.7-0.05-1.75-1.75
			c-0.02-0.48,0-0.96,0-1.44c0-33.98,0-67.97,0-101.95c0-3.54-0.32-3.12,3.02-3.13c14.31-0.01,28.63-0.02,42.94,0
			c16.41,0.02,29.71,11.77,31.93,28.09c0.94,6.93,0.11,13.56-2.96,19.85c-3.44,7.05-8.83,12.05-16.14,14.97
			C301.3,208.04,300.52,208.07,299.87,208.89z M266.98,178.68c0,3.59-0.02,7.18,0.01,10.78c0.01,2.06,0.04,2.09,2.17,2.1
			c3.59,0.02,7.18,0.03,10.77,0c2.63-0.02,5.28,0.22,7.89-0.2c4.98-0.8,8.57-3.45,10.13-8.34c2.52-7.87-2.01-16.61-12.1-16.99
			c-5.74-0.22-11.49-0.02-17.24-0.07c-1.3-0.01-1.66,0.53-1.64,1.71C267.01,171.34,266.99,175.01,266.98,178.68z"/>
		<path d="M509.98,191.6c2.69,1.82,5.14,3.6,7.23,5.82c7,7.45,9.89,16.33,8.81,26.4c-1.47,13.72-9.02,23.26-21.47,28.62
			c-13.25,5.7-26.73,5.47-39.61-1.17c-12.74-6.58-19.37-17.34-19.19-31.82c0.14-10.94,4.91-19.66,13.74-26.14
			c0.71-0.52,1.43-1.02,2.14-1.53c0.06-0.04,0.1-0.13,0.18-0.25c-0.36-0.4-0.71-0.82-1.1-1.22c-12.07-12.45-10.74-32.57,2.9-43.23
			c6.92-5.41,14.91-7.43,23.57-7.2c8.34,0.22,15.87,2.69,22.22,8.24c12.39,10.82,13.25,30.12,1.91,42.06
			C510.93,190.57,510.56,190.98,509.98,191.6z M501.81,218.43c-0.01-9.07-6.65-15.75-15.75-15.82c-9.16-0.07-15.93,6.68-15.92,15.87
			c0.01,9.28,6.88,16.51,15.73,16.54C494.85,235.06,501.82,227.8,501.81,218.43z M485.87,159.17c-7.37,0.04-12.96,5.75-12.89,13.16
			c0.07,7.44,5.72,13.06,13.07,13c7.36-0.07,12.92-5.75,12.91-13.18C498.96,164.77,493.26,159.13,485.87,159.17z"/>
		<path d="M111.52,197.88c-0.04-26,19.64-49.24,46.43-53.67c22.83-3.78,45.37,6.72,57.02,26.54c0.16,0.28,0.33,0.55,0.48,0.83
			c0.87,1.6,0.88,1.63-0.74,2.48c-5.67,2.95-11.35,5.88-17.03,8.82c-1.91,0.99-1.76,1.18-3.04-0.92
			c-10.17-16.65-33.62-20.39-48.45-7.67c-7.63,6.55-11.2,15.04-11.13,25.01c0.09,14.16,8.63,26.09,21.63,30.29
			c14.21,4.59,30.3-0.47,38.15-13.87c0.93-1.58,0.98-1.59,2.54-0.78c5.75,2.97,11.5,5.95,17.24,8.94c1.74,0.9,1.76,0.95,0.79,2.62
			c-7.73,13.28-18.98,22.15-33.81,26.13c-30.5,8.19-61.28-10.29-68.6-40.98C112,207.5,111.61,203.3,111.52,197.88z"/>
		<path d="M352,198.99c0-16.79,0-33.57,0-50.36c0-0.48,0-0.96,0-1.44c0.03-2.31,0.03-2.32,2.41-2.32c17.43,0,34.85,0,52.28,0
			c2.8,0,5.6-0.02,8.39,0.01c1.93,0.02,1.96,0.04,1.97,2.03c0.02,5.6,0.02,11.19,0,16.79c-0.01,2.14-0.03,2.16-2.32,2.16
			c-6.55,0.01-13.11,0-19.66,0c-5.76,0-11.51-0.01-17.27,0.01c-1.96,0.01-2,0.04-2,2c-0.02,6.16-0.02,12.31,0,18.47
			c0,2.14,0.03,2.16,2.32,2.16c9.83,0.01,19.66,0,29.5,0c0.56,0,1.12-0.01,1.68,0c1.81,0.05,1.84,0.05,1.85,1.9
			c0.02,5.68,0.02,11.35,0,17.03c-0.01,2.07-0.03,2.1-2.13,2.1c-9.99,0.01-19.98,0-29.98,0c-0.56,0-1.12,0.04-1.68,0
			c-1.09-0.08-1.59,0.3-1.58,1.49c0.04,6.55,0.03,13.11,0.01,19.66c0,0.98,0.32,1.51,1.38,1.45c0.56-0.04,1.12,0,1.68,0
			c11.59,0,23.18,0,34.77,0c0.56,0,1.12-0.01,1.68,0c1.69,0.05,1.74,0.06,1.75,1.76c0.03,4.56,0.01,9.11,0.01,13.67
			c0,1.44-0.02,2.88,0,4.32c0.01,0.9-0.37,1.33-1.29,1.28c-0.48-0.03-0.96,0-1.44,0c-19.82,0-39.65,0-59.47,0c-0.08,0-0.16,0-0.24,0
			c-2.6-0.01-2.61-0.01-2.61-2.6C352,233.36,352,216.17,352,198.99z"/>
	</g>
</g>
</svg>
