<?xml version="1.0" encoding="UTF-8"?>
<svg id="Ebene_2" data-name="Ebene 2" xmlns="http://www.w3.org/2000/svg" viewBox="0 0 135.42 137.14">
  <defs>
    <style>
      .cls-1 {
        fill: #754e2a;
      }

      .cls-1, .cls-2, .cls-3, .cls-4, .cls-5, .cls-6, .cls-7 {
        stroke-width: 0px;
      }

      .cls-2 {
        fill: #f2dbb1;
      }

      .cls-8 {
        stroke: #d8ae77;
      }

      .cls-8, .cls-9 {
        fill: none;
        stroke-linecap: round;
        stroke-linejoin: round;
      }

      .cls-3 {
        fill: #edd0a2;
      }

      .cls-4 {
        fill: #fff;
      }

      .cls-5 {
        fill: #fcbba7;
      }

      .cls-9 {
        stroke: #754e2a;
        stroke-width: .98px;
      }

      .cls-6 {
        fill: #3f3123;
      }

      .cls-7 {
        fill: #8c6238;
      }
    </style>
  </defs>
  <g id="Ebene_1-2" data-name="Ebene 1">
    <g>
      <g>
        <g>
          <path class="cls-7" d="M60.64,18.9c8.1-3.6,7.4-11.5,7.4-11.5l3.1,1.9,3.1,1.9s-7.4,3.2-6.6,12c1,10.9-8.1,11.1-8.1,11.1l-2.4-1.4-2.4-1.4c.1-.2-4.1-8.3,5.9-12.6Z"/>
          <path class="cls-5" d="M64.74,20.2c2.4,10.6-6.1,13.4-6.1,13.4l-1.4-.8-1.4-.8s-1.6-8.8,8.9-11.8Z"/>
        </g>
        <g>
          <path class="cls-7" d="M22.64,13.1C15.74,7.5,18.54,0,18.54,0l-3.5,1-3.5,1s6.3,5,3.2,13.3c-3.8,10.2,4.9,12.9,4.9,12.9l2.7-.7,2.7-.7c0-.1,6.1-6.8-2.4-13.7Z"/>
          <path class="cls-5" d="M18.44,13.3c-5.1,9.6,2.3,14.5,2.3,14.5l1.5-.4,1.5-.4s4-8-5.3-13.7Z"/>
        </g>
        <g>
          <path class="cls-1" d="M115.54,119.2c13.2-16.7-41.2-70.6,17.2-79.2-9.1-8.6-30.8-10.3-41.2,0-13.1,13.1-12.9,39.8-6.8,53.8,9.4,21.8,1.3,28.6,1.3,28.6l4.4,6.8c4.6-.7,15.9,1.8,25.1-10Z"/>
          <path class="cls-2" d="M132.84,40c-58.4,8.6-11,55.8-18.8,75.6-4.4,11.1-19,12.9-23.5,13.6l4.4,6.9c27.4,4.3,48.8-21.1,37.3-44-11.4-23-15.5-45.2.6-52.1Z"/>
        </g>
        <path class="cls-1" d="M16.44,133.7v-37.2h24.2s-8.4,40.6-16.3,40.6h-11.5c0-2.7,2.5-3.3,3.6-3.4Z"/>
        <path class="cls-7" d="M28.44,63.4c3.7-2.1,7.7-3.5,11.9-3.9,9.7-1,5.2,23.9,34.2,25.1,14.3.6,25.1,15.2,23.5,32.9v.4c-1.3,12.2-12.6,20.8-24.8,19l-22.3-3.4c-10.9-1.7-25.1-10.2-29.9-22.2-6.8-17-7.9-39,7.4-47.9Z"/>
        <path class="cls-7" d="M69.94,104.1s-16.7-3-21.5,8.6c-4.8,11.7,3.8,18.8,3.8,18.8,0,0-5.5,2-5.5,5.6h48.2l1.7-13.6c-.1-.1-7-19.4-26.7-19.4Z"/>
        <path class="cls-7" d="M26.34,133.9v-37.5h24.2s-7.9,38-15.5,40.5c0,.1.1.1.1.1h-11.2c-.1-1.9,1.2-2.7,2.4-3.1Z"/>
        <path class="cls-3" d="M16.24,79.1h33.5s3.8,8.8-9.8,19.2c-13.6,10.4-13.6,26-13.6,26,0,0-21.4-17.1-10.1-45.2Z"/>
        <g>
          <path class="cls-7" d="M35.24,65.3c-2.2-24-19.9-28.6-27.7-29.4,7.6-9.8,20.1-15.4,33.3-13.5,12.4,1.8,22.4,9.7,27.3,20.2-6.1-.6-22.4.3-32.9,22.7Z"/>
          <path class="cls-2" d="M35.24,65.3c10.5-22.3,26.8-23.3,32.9-22.7,2.9,6.1,4.1,13.1,3,20.3-2.8,19.6-19.6,23.6-39.1,20.8C12.44,80.9-2.46,72.3.34,52.8c.9-6.4,3.5-12.1,7.2-16.9,7.8.8,25.5,5.4,27.7,29.4Z"/>
        </g>
        <g>
          <path class="cls-6" d="M19.74,55.6c-.3,1.8,1,3.5,2.8,3.8s3.5-1,3.8-2.8-1-3.5-2.8-3.8-3.5,1-3.8,2.8Z"/>
          <path class="cls-6" d="M46.94,59.6c-.3,1.8,1,3.5,2.8,3.8s3.5-1,3.8-2.8-1-3.5-2.8-3.8-3.5,1-3.8,2.8Z"/>
          <path class="cls-6" d="M34.94,68.1s-10.1-7.7.9-6c11,1.6-.9,6-.9,6Z"/>
          <g>
            <path class="cls-6" d="M32.04,70.9c.5-.1.9-.3,1.3-.5.3-.2.6-.5.8-.9.1-.2.2-.4.3-.6,0-.1.1-.2.1-.3s.1-.2.1-.4c.1-.5.3-.9.6-1.4.1.5.2,1,.2,1.5v.4c0,.2,0,.3-.1.4-.1.3-.2.5-.3.8-.3.5-.7.9-1.3,1.1-.7.3-1.3.2-1.7-.1Z"/>
            <path class="cls-6" d="M36.84,71.7c-.5.1-1.1,0-1.6-.3s-.8-.9-.9-1.4c0-.3-.1-.6-.1-.8,0-.1,0-.3.1-.4,0-.1.1-.2.1-.4.1-.5.3-.9.6-1.4.1.5.2,1,.2,1.5v.7c0,.2,0,.4.1.6.1.4.2.8.5,1.1.2.2.6.5,1,.8Z"/>
          </g>
          <path class="cls-5" d="M11.54,61.5c-.3,1.8,1.9,3.7,4.8,4.1,2.9.4,5.5-.7,5.8-2.6s-1.9-3.7-4.8-4.1c-3-.3-5.6.8-5.8,2.6Z"/>
          <path class="cls-5" d="M49.24,67.2c-.3,1.8,1.9,3.7,4.8,4.1s5.5-.7,5.8-2.6c.3-1.8-1.9-3.7-4.8-4.1-3-.4-5.6.7-5.8,2.6Z"/>
          <path class="cls-6" d="M47.24,57.5c.9-.9,2.3-1.2,3.6-1,.7.1,1.3.3,1.9.6.3.1.5.4.8.5.2.2.5.4.7.6h-.4c.5-.3,1-.5,1.5-.7-.3.4-.7.8-1.1,1.2-.1.1-.2.1-.3,0h-.1c-.5-.3-1-.6-1.5-.8-.5-.3-1.1-.4-1.6-.5-1.1-.2-2.3-.2-3.5.1Z"/>
          <path class="cls-6" d="M26.64,54.4c-1.1-.7-2.2-1-3.3-1.1h-1.7c-.6.1-1.1.2-1.7.3h-.1c-.1,0-.2,0-.3-.1-.3-.5-.5-1-.7-1.5.4.3.8.7,1.2,1.1l-.4-.1c.3-.1.6-.3.9-.4.3-.1.6-.2.9-.3.6-.1,1.3-.1,2-.1,1.4.4,2.6,1.1,3.2,2.2Z"/>
        </g>
        <path class="cls-9" d="M59.04,105.1s-10.1.3-12.3,11.8c-2.3,11.4,6.2,15.9,6.2,15.9h-3.1"/>
        <line class="cls-9" x1="40.64" y1="129.6" x2="47.24" y2="114.7"/>
        <path class="cls-8" d="M31.14,76s2.3,1.6,4.8.6"/>
        <g>
          <path class="cls-1" d="M77.44,89c1.4.4,3.1,1.7,4.6,1,.3-.1.6-.8.2-1-.7-.4-1.5-.5-2.2-.8-.6-.3-1.3-.6-1.9-.9-.6-.2-1.1-.4-1.7-.5-.6-.2-1.1-.6-1.8-.4-.4.1-.6.6-.4.9.3,1.2,2.2,1.4,3.2,1.7Z"/>
          <path class="cls-1" d="M81.64,98.5c-1.1-.8-2.2-1.4-3.4-2.1-1-.7-2.1-1.7-3.4-2-.4-.1-1,.4-.7.9.7,1.1,2.1,1.9,3.2,2.6s2.2,1.5,3.4,1.9c.7.2,1.5-.8.9-1.3Z"/>
          <path class="cls-1" d="M78.14,105.1c.5,0,1.1-.5.8-1-.5-.9-1.3-1.3-2.2-1.8-1.1-.7-2.2-1.3-3.4-1.7-.4-.1-1.1.4-.7.8.8.9,1.8,1.6,2.9,2.3.7.4,1.6,1.3,2.6,1.4Z"/>
          <path class="cls-1" d="M91.84,97.1c.5,0,1.1-.5.8-1-.5-.9-1.3-1.3-2.2-1.8-1.1-.7-2.2-1.3-3.4-1.7-.4-.1-1.1.4-.7.8.8.9,1.8,1.6,2.9,2.3.8.5,1.6,1.4,2.6,1.4Z"/>
          <path class="cls-1" d="M80.94,94.9s.7.6.9.8c.7.5,1.3,1,2,1.5.8.6,2.5,2.2,3.6,1.7.4-.2.7-.6.5-1-.5-1.1-2.3-1.9-3.3-2.5-.8-.5-1.8-1.5-2.7-1.7-.7-.2-1.5.6-1,1.2Z"/>
          <path class="cls-1" d="M61.24,106.4c-.6-.1-1,.7-.7,1.2.5.6,1.3.9,2,1.3.9.5,1.9.9,2.9,1.3.8.3,1.4-1.1.6-1.4s-1.5-.7-2.3-1.1c-.7-.5-1.6-1.2-2.5-1.3Z"/>
          <path class="cls-1" d="M54.34,95.2c-.6-.1-1,.7-.7,1.2.5.6,1.3.9,2,1.3.9.5,1.9.9,2.9,1.3.8.3,1.4-1.1.6-1.4s-1.5-.7-2.3-1.1c-.8-.5-1.6-1.2-2.5-1.3Z"/>
          <path class="cls-1" d="M59.14,84.4c-.6-.1-1,.7-.7,1.2.5.6,1.3.9,2,1.3.9.5,1.9.9,2.9,1.3.8.3,1.4-1.1.6-1.4s-1.5-.7-2.3-1.1c-.8-.5-1.6-1.2-2.5-1.3Z"/>
          <path class="cls-1" d="M64.84,94.2c-.6-.1-1,.7-.7,1.2.5.6,1.3.9,2,1.3.9.5,1.9.9,2.9,1.3.8.3,1.4-1.1.6-1.4s-1.5-.7-2.3-1.1c-.7-.5-1.6-1.2-2.5-1.3Z"/>
          <path class="cls-1" d="M67.54,88.7c-.6-.1-1,.7-.7,1.2.5.6,1.3.9,2,1.3.9.5,1.9.9,2.9,1.3.8.3,1.4-1.1.6-1.4s-1.5-.7-2.3-1.1c-.7-.6-1.6-1.2-2.5-1.3Z"/>
          <path class="cls-1" d="M85.14,103.3c-.6-.1-1,.7-.7,1.2.5.6,1.3.9,2,1.3.9.5,1.9.9,2.9,1.3.8.3,1.4-1.1.6-1.4s-1.5-.7-2.3-1.1c-.7-.5-1.6-1.2-2.5-1.3Z"/>
          <path class="cls-1" d="M91.94,100.6c-.5-.4-1.3,0-1.2.6.1.8.6,1.5,1,2.2.5.9,1.1,1.8,1.7,2.6.5.7,1.8-.1,1.3-.9-.5-.7-.9-1.4-1.3-2.2-.5-.8-.8-1.8-1.5-2.3Z"/>
          <path class="cls-1" d="M53.84,87.8c-.6-.1-1,.7-.7,1.2.5.6,1.3.9,2,1.3.9.5,1.9.9,2.9,1.3.8.3,1.4-1.1.6-1.4s-1.5-.7-2.3-1.1c-.7-.5-1.6-1.2-2.5-1.3Z"/>
          <path class="cls-1" d="M39.74,43.2c0,1.3-.7,3,.2,4,.2.2.8.3.9-.1.2-.7.1-1.3.2-2,.1-.6.2-1.2.3-1.8v-1.5c0-.6.3-1.1,0-1.6-.2-.3-.6-.3-.9-.2-.9.6-.7,2.2-.7,3.2Z"/>
          <path class="cls-1" d="M32.74,48.8c.4-1.1.7-2.2,1-3.3.3-1,1-2.2.9-3.2,0-.4-.6-.8-.9-.4-.8.9-1.1,2.1-1.4,3.2s-.7,2.2-.8,3.3c-.1.6,1,1,1.2.4Z"/>
          <path class="cls-1" d="M45.04,48.8c.4-1.1.7-2.2,1-3.3.3-1,1-2.2.9-3.2,0-.4-.6-.8-.9-.4-.8.9-1.1,2.1-1.4,3.2s-.7,2.2-.8,3.3c-.1.6,1,1,1.2.4Z"/>
          <path class="cls-1" d="M36.24,57c.1.4.7.8,1.1.4.6-.6.8-1.4,1-2.2.3-1.1.6-2.1.6-3.2,0-.4-.6-.8-.9-.4-.6.9-.9,1.9-1.2,2.9-.2.8-.7,1.7-.6,2.5Z"/>
          <path class="cls-1" d="M35.64,47.4s-.4.7-.5,1c-.3.7-.5,1.3-.8,2-.3.8-1.3,2.6-.6,3.4.3.3.7.4,1,.2.8-.7,1-2.4,1.3-3.4.2-.8.8-1.8.8-2.7,0-.6-.8-1-1.2-.5Z"/>
          <path class="cls-1" d="M38.94,24.6c-.1-.5-.8-.7-1.1-.3-.4.6-.5,1.3-.6,2-.2.9-.3,1.8-.4,2.7-.1.7,1.2.9,1.3.2.1-.7.3-1.4.4-2.2s.5-1.6.4-2.4Z"/>
          <path class="cls-1" d="M45.34,26.2c-.1-.5-.8-.7-1.1-.3-.4.6-.5,1.3-.6,2-.2.9-.3,1.8-.4,2.7-.1.7,1.2.9,1.3.2.1-.7.3-1.4.4-2.2.2-.8.5-1.7.4-2.4Z"/>
          <path class="cls-1" d="M33.64,31.3c-.1-.5-.8-.7-1.1-.3-.4.6-.5,1.3-.6,2-.2.9-.3,1.8-.4,2.7-.1.7,1.2.9,1.3.2.1-.7.3-1.4.4-2.2.2-.7.5-1.6.4-2.4Z"/>
          <path class="cls-1" d="M37.74,34.8c-.1-.5-.8-.7-1.1-.3-.4.6-.5,1.3-.6,2-.2.9-.3,1.8-.4,2.7-.1.7,1.2.9,1.3.2.1-.7.3-1.4.4-2.2.2-.7.6-1.6.4-2.4Z"/>
          <path class="cls-1" d="M41.74,31.9c-.1-.5-.8-.7-1.1-.3-.4.6-.5,1.3-.6,2-.2.9-.3,1.8-.4,2.7-.1.7,1.2.9,1.3.2.1-.7.3-1.4.4-2.2.2-.8.5-1.7.4-2.4Z"/>
          <path class="cls-1" d="M51.64,30.2c-.1-.5-.8-.7-1.1-.3-.4.6-.5,1.3-.6,2-.2.9-.3,1.8-.4,2.7-.1.7,1.2.9,1.3.2.1-.7.3-1.4.4-2.2.1-.7.5-1.6.4-2.4Z"/>
          <path class="cls-1" d="M45.34,34.8c-.1-.5-.8-.7-1.1-.3-.4.6-.5,1.3-.6,2-.2.9-.3,1.8-.4,2.7-.1.7,1.2.9,1.3.2.1-.7.3-1.4.4-2.2.2-.7.5-1.6.4-2.4Z"/>
          <path class="cls-7" d="M90.94,65.7c0,1.3-.7,3,.2,4,.2.2.8.3.9-.1.2-.7.1-1.3.2-2,.1-.6.2-1.2.3-1.8v-1.5c0-.6.3-1.1,0-1.6-.2-.3-.6-.3-.9-.2-.9.7-.7,2.3-.7,3.2Z"/>
          <path class="cls-7" d="M94.04,78.2c.1,1.3-.2,3.1.9,3.9.2.2.8.2.8-.2.1-.7-.1-1.3-.1-2v-1.8c0-.5-.1-1-.2-1.5-.1-.5.1-1.1-.3-1.6-.2-.3-.7-.2-.9,0-.7.7-.3,2.3-.2,3.2Z"/>
          <path class="cls-7" d="M98.34,94.5c.1,1.3-.2,3.1.9,3.9.2.2.8.2.8-.2.1-.7-.1-1.3-.1-2v-1.8c0-.5-.1-1-.2-1.5-.1-.5.1-1.1-.3-1.6-.2-.3-.7-.2-.9,0-.8.7-.3,2.3-.2,3.2Z"/>
          <path class="cls-7" d="M83.94,71.4c.4-1.1.7-2.2,1-3.3.3-1,1-2.2.9-3.2,0-.4-.6-.8-.9-.4-.8.9-1.1,2.1-1.4,3.2s-.7,2.2-.8,3.3c-.1.5,1,1,1.2.4Z"/>
          <path class="cls-7" d="M93.64,46.8c.7-.9,1.2-1.9,1.9-2.9.6-.9,1.5-1.8,1.7-2.9.1-.4-.3-.9-.7-.7-1,.6-1.6,1.8-2.2,2.7-.6.9-1.3,1.9-1.7,3-.4.6.6,1.3,1,.8Z"/>
          <path class="cls-7" d="M87.44,79.6c.1.4.7.8,1.1.4.6-.6.8-1.4,1-2.2.3-1.1.6-2.1.6-3.2,0-.4-.6-.8-.9-.4-.6.9-.9,1.9-1.2,2.9-.2.7-.7,1.7-.6,2.5Z"/>
          <path class="cls-7" d="M86.84,70s-.4.7-.5,1c-.3.7-.5,1.3-.8,2-.3.8-1.3,2.6-.6,3.4.3.3.7.4,1,.2.8-.7,1-2.4,1.3-3.4.2-.8.8-1.8.8-2.7,0-.6-.8-1-1.2-.5Z"/>
          <path class="cls-7" d="M90.14,47.2c-.1-.5-.8-.7-1.1-.3-.4.6-.5,1.3-.6,2-.2.9-.3,1.8-.4,2.7-.1.7,1.2.9,1.3.2.1-.7.3-1.4.4-2.2.1-.8.5-1.6.4-2.4Z"/>
          <path class="cls-7" d="M96.54,48.7c-.1-.5-.8-.7-1.1-.3-.4.6-.5,1.3-.6,2-.2.9-.3,1.8-.4,2.7-.1.7,1.2.9,1.3.2.1-.7.3-1.4.4-2.2.2-.7.5-1.6.4-2.4Z"/>
          <path class="cls-7" d="M84.94,80.2c-.3-.5-1-.4-1.2.1-.2.7,0,1.4.1,2.1.1.9.4,1.8.6,2.6.2.7,1.5.4,1.3-.3-.2-.7-.3-1.4-.4-2.2,0-.7,0-1.6-.4-2.3Z"/>
          <path class="cls-7" d="M84.84,53.9c-.1-.5-.8-.7-1.1-.3-.4.6-.5,1.3-.6,2-.2.9-.3,1.8-.4,2.7-.1.7,1.2.9,1.3.2.1-.7.3-1.4.4-2.2.2-.8.5-1.6.4-2.4Z"/>
          <path class="cls-7" d="M88.94,57.4c-.1-.5-.8-.7-1.1-.3-.4.6-.5,1.3-.6,2-.2.9-.3,1.8-.4,2.7-.1.7,1.2.9,1.3.2.1-.7.3-1.4.4-2.2.2-.7.6-1.6.4-2.4Z"/>
          <path class="cls-7" d="M92.94,54.4c-.1-.5-.8-.7-1.1-.3-.4.6-.5,1.3-.6,2-.2.9-.3,1.8-.4,2.7-.1.7,1.2.9,1.3.2.1-.7.3-1.4.4-2.2.2-.7.5-1.6.4-2.4Z"/>
          <path class="cls-7" d="M90.44,84c-.3-.4-1.1-.3-1.2.2-.1.7.1,1.4.3,2,.2.9.5,1.8.8,2.6.2.7,1.5.3,1.3-.4-.2-.7-.4-1.4-.5-2.1-.2-.7-.2-1.6-.7-2.3Z"/>
          <path class="cls-7" d="M107.74,38.8c.3-.5-.2-1.1-.7-.9-.7.2-1.2.7-1.7,1.1-.7.6-1.4,1.2-2,1.8-.5.5.4,1.5.9,1s1.1-1,1.7-1.4c.6-.5,1.4-.9,1.8-1.6Z"/>
          <path class="cls-7" d="M96.54,57.4c-.1-.5-.8-.7-1.1-.3-.4.6-.5,1.3-.6,2-.2.9-.3,1.8-.4,2.7-.1.7,1.2.9,1.3.2.1-.7.3-1.4.4-2.2.2-.7.5-1.6.4-2.4Z"/>
          <path class="cls-7" d="M103.14,48.1c-.1-.5-.8-.7-1.1-.3-.4.6-.5,1.3-.6,2-.2.9-.3,1.8-.4,2.7-.1.7,1.2.9,1.3.2.1-.7.3-1.4.4-2.2.1-.8.5-1.6.4-2.4Z"/>
        </g>
      </g>
      <path class="cls-4" d="M22.04,56.8c1.9,0,1.9-3,0-3-2,0-2,3,0,3h0Z"/>
      <path class="cls-4" d="M49.14,60.8c1.9,0,1.9-3,0-3-1.9.1-1.9,3,0,3h0Z"/>
    </g>
  </g>
</svg>