<?xml version="1.0" encoding="UTF-8"?>
<svg id="Ebene_2" data-name="Ebene 2" xmlns="http://www.w3.org/2000/svg" viewBox="0 0 159.36 210.74">
  <defs>
    <style>
      .cls-1 {
        fill: #f2dbb1;
      }

      .cls-1, .cls-2, .cls-3, .cls-4, .cls-5, .cls-6, .cls-7 {
        stroke-width: 0px;
      }

      .cls-2 {
        fill: #68543c;
      }

      .cls-3 {
        fill: #edd0a2;
      }

      .cls-4 {
        fill: #fff;
      }

      .cls-5 {
        fill: #fcbba7;
      }

      .cls-6 {
        fill: #3f3123;
      }

      .cls-7 {
        fill: #7c674a;
      }

      .cls-8 {
        fill: none;
        stroke: #68543c;
        stroke-linecap: round;
        stroke-linejoin: round;
        stroke-width: .98px;
      }
    </style>
  </defs>
  <g id="Ebene_1-2" data-name="Ebene 1">
    <g>
      <g>
        <g>
          <path class="cls-2" d="M145.16,138.68c6.4-11.3.8-24.1.8-24.1,0,0-10.9,10.9-14.1,20.6-6.3-6.3-3.8-18-3.8-18,0,0-7.7,9.4-9.2,17-4.5-5.6-5.9-12.7-6.3-18.2-.8,3.3-1.3,6.9-1.6,10.7-3.4,47.4,18.1,65.1,9.2,78.3,11.1,5.1,27.4-1.3,27.4-23.4,0-19.5,11.8-35.4,11.4-57.3-2.9,5.1-7.5,11.1-13.8,14.4Z"/>
          <path class="cls-3" d="M158.26,69.38s-36.9,8.4-45.5,46.5c.4,5.5,1.8,12.6,6.3,18.2,1.5-7.5,9.2-17,9.2-17,0,0-2.5,11.7,3.8,18,3.2-9.7,14.1-20.6,14.1-20.6,0,0,5.6,12.8-.8,24.1,6.3-3.3,10.9-9.3,14-14.5-.1-2.9-.3-6-.9-9.2-5-26.8-7.5-34.1-.2-45.5Z"/>
        </g>
        <path class="cls-2" d="M67.76,152.28s-20.9-2.1-31.1,16.1c-10.2,18.2,2.1,30.5,2.1,30.5,0,0-6.2.3-6.2,3.2s3.5,7,47.9,0c13.4-13.4,10.2-36.6,10.2-36.6l-22.9-13.2Z"/>
        <path class="cls-2" d="M15.16,140.38l2,62s-5.2,1.2-5.2,5.2,14.9,0,14.9,0l9.8-67.2H15.16Z"/>
        <path class="cls-7" d="M67.16,84.18c-2.1-5.4-3.2-8.5-3.2-8.5l-37.6,5.4c-.4.8-.9,1.6-1.3,2.5-27,53.5,12.6,116.7,72.6,116.7h8c15.1,0,26.6-13.7,23.9-28.5-2.5-13.1-7.7-23.7-18.6-31.6-19.6-14.3-35.1-33.4-43.8-56Z"/>
        <path class="cls-7" d="M38.56,140.38l9.8,62s-5.2,1.2-5.2,5.2,14.9,0,14.9,0l2-67.2h-21.5Z"/>
        <path class="cls-7" d="M106.66,157.08s-20.9-2.1-31.1,16.1,2.1,30.5,2.1,30.5c0,0-6.2.3-6.2,3.2s3.5,7,47.9,0c13.4-13.4,10.2-36.6,10.2-36.6l-22.9-13.2Z"/>
        <path class="cls-3" d="M66.46,89.18l-46.6-4.2s-32.5,51.9,23.1,94.1c-11.6-45.4,29.4-44,23.5-89.9Z"/>
        <g>
          <path class="cls-6" d="M19.76,8.98c7.5-1.7,25.3,24.4,27.3,27.4,3.3-2.5,5.1-4.7,5.1-4.7,0,0-24.4-35.7-35.1-31.3-10.6,4.4-5.5,40.4-5.5,40.4,2.2.9,4.4,1.6,6.5,2-.7-3.7-5.8-32.1,1.7-33.8Z"/>
          <path class="cls-5" d="M47.06,36.38c-2-3-19.8-29-27.3-27.4-7.5,1.7-2.4,30.1-1.7,33.8,13.4,2.9,23.4-2.2,29-6.4Z"/>
        </g>
        <g>
          <path class="cls-6" d="M84.26,12.88c-7.1-3-29.3,19.4-31.8,22-2.8-3.1-4.2-5.5-4.2-5.5,0,0,30.4-30.8,40.1-24.5,9.6,6.2-1.8,40.7-1.8,40.7-2.4.5-4.6.7-6.8.8,1.4-3.5,11.5-30.5,4.5-33.5Z"/>
          <path class="cls-5" d="M52.36,34.88c2.5-2.6,24.7-25,31.8-22,7,3-3.1,30-4.4,33.5-13.6.5-22.6-6.3-27.4-11.5Z"/>
        </g>
        <path class="cls-7" d="M.16,73.68S3.16,17.48,50.76,21.58s40.9,60,40.9,60L.16,73.68Z"/>
        <path class="cls-1" d="M91.76,81.68c.4-7.2-5.5-13.4-13.2-14.1-8.4-.7-20.7.2-32.5,8.2-10.2-9.9-22.2-12.9-30.6-13.6-7.7-.7-14.6,4.4-15.4,11.6v.3c-.7,7,4.8,13.2,12.2,14.3,2.2.3,4.8.6,7.9.6,16.5.3,32.9,1.8,49.2,4.3,3.1.5,5.7.7,7.9.7,7.5.2,13.9-5,14.5-12-.1-.1,0-.2,0-.3Z"/>
        <g>
          <path class="cls-6" d="M23.86,64.28c-.2,2.5,1.6,4.7,4.1,4.9s4.7-1.6,4.9-4.1c.2-2.5-1.6-4.7-4.1-4.9-2.4-.2-4.6,1.6-4.9,4.1Z"/>
          <path class="cls-6" d="M60.96,67.78c-.2,2.5,1.6,4.7,4.1,4.9s4.7-1.6,4.9-4.1c.2-2.5-1.6-4.7-4.1-4.9s-4.7,1.6-4.9,4.1Z"/>
          <path class="cls-6" d="M45.36,80.18s-14.3-9.6.8-8.2c15,1.3-.8,8.2-.8,8.2Z"/>
          <g>
            <path class="cls-6" d="M41.66,84.18c.7-.1,1.3-.3,1.7-.7.5-.3.8-.8,1-1.3.1-.3.2-.5.3-.8,0-.1.1-.3.1-.4,0-.2.1-.3.1-.5.1-.6.3-1.3.6-1.9.1.7.2,1.3.2,2v.5c0,.2,0,.4-.1.6-.1.4-.2.7-.3,1-.3.6-.9,1.3-1.6,1.5-.6.3-1.4.2-2,0Z"/>
            <path class="cls-6" d="M48.26,84.78c-.7.1-1.4,0-2.1-.4-.6-.4-1-1.1-1.3-1.8-.1-.4-.1-.7-.1-1.1v-.6c0-.2.1-.3.1-.5.1-.6.3-1.3.6-1.9.1.7.2,1.3.2,2v.9c0,.3.1.6.2.9.2.6.4,1.1.8,1.5.4.4,1,.7,1.6,1Z"/>
          </g>
          <path class="cls-5" d="M13.16,72.98c-.2,2.5,2.8,4.9,6.7,5.2s7.4-1.4,7.6-3.9-2.8-4.9-6.7-5.2c-3.9-.4-7.4,1.4-7.6,3.9Z"/>
          <path class="cls-5" d="M64.66,77.78c-.2,2.5,2.8,4.9,6.7,5.2,4,.4,7.4-1.4,7.6-3.9s-2.8-4.9-6.7-5.2c-4-.4-7.4,1.4-7.6,3.9Z"/>
          <path class="cls-6" d="M61.26,64.78c1.2-1.2,3.1-1.7,4.8-1.5.9.1,1.7.3,2.5.7.4.2.8.4,1.1.6.4.3.7.5,1,.8h-.4c.6-.4,1.2-.8,1.9-1.2-.5.6-1,1.1-1.5,1.6-.1.1-.2.1-.3,0h-.1c-.7-.4-1.4-.8-2.2-1.1-.7-.3-1.5-.5-2.3-.6-1.3,0-2.9.1-4.5.7Z"/>
          <path class="cls-6" d="M33.16,62.18c-1.4-.9-3-1.3-4.5-1.4-.8,0-1.6,0-2.3.2-.8.1-1.5.4-2.3.6h-.1c-.1,0-.2,0-.3-.1-.4-.6-.8-1.2-1.2-1.9.6.5,1.1,1,1.6,1.5l-.4-.1c.4-.2.8-.4,1.1-.6.4-.1.8-.3,1.2-.4.8-.2,1.7-.3,2.6-.2,1.9.2,3.6,1,4.6,2.4Z"/>
        </g>
        <line class="cls-8" x1="59.16" y1="193.38" x2="61.96" y2="142.18"/>
        <path class="cls-8" d="M73.26,198.48s-9-30.7,17.6-32.9"/>
        <path class="cls-2" d="M59.66,26.58c-.1-.6-.9-.8-1.3-.3-.4.6-.5,1.4-.7,2.2-.2,1-.3,2-.4,3-.1.8,1.3,1,1.5.2.1-.8.3-1.6.5-2.4.2-.9.6-1.8.4-2.7Z"/>
        <g>
          <path class="cls-2" d="M50.46,27.38c-.2,1.2-.1,2.5-.2,3.8-.1,1.2-.5,2.6-.1,3.7.1.4.8.7,1.1.2.6-1.1.6-2.6.7-3.8.1-1.2.2-2.5,0-3.8-.2-.6-1.4-.8-1.5-.1Z"/>
          <path class="cls-2" d="M54.46,38.98c.5-1.6.8-3.9.4-5.6-.1-.4-1.1-.7-1.2-.2-.4,1.7-.1,3.6-.5,5.4-.2.7,1.1,1.1,1.3.4Z"/>
          <path class="cls-2" d="M48.66,38.68c-.1-.6-.9-.8-1.3-.3-.4.6-.5,1.4-.7,2.2-.2,1-.3,2-.4,3-.1.8,1.3,1,1.5.2.1-.8.3-1.6.5-2.4.1-.9.5-1.9.4-2.7Z"/>
          <path class="cls-2" d="M43.36,32.38c-.1-.6-.9-.8-1.3-.3-.4.6-.5,1.4-.7,2.2-.2,1-.3,2-.4,3-.1.8,1.3,1,1.5.2.1-.8.3-1.6.5-2.4.1-.9.5-1.8.4-2.7Z"/>
          <path class="cls-2" d="M48.26,23.48c-.1-.6-.9-.8-1.3-.3-.4.6-.5,1.4-.7,2.2-.2,1-.3,2-.4,3-.1.8,1.3,1,1.5.2.1-.8.3-1.6.5-2.4.2-.9.6-1.8.4-2.7Z"/>
          <path class="cls-2" d="M41.56,51.78c-.2-.5-1.1-.5-1.3,0-.3.7-.2,1.5-.1,2.3,0,1,.2,2,.3,3,.1.8,1.6.7,1.5-.2-.1-.8-.1-1.6-.1-2.4-.1-.9,0-1.9-.3-2.7Z"/>
          <path class="cls-2" d="M44.46,42.88c-.2-.5-1.1-.5-1.3,0-.3.7-.2,1.5-.1,2.3,0,1,.2,2,.3,3,.1.8,1.6.7,1.5-.2-.1-.8-.1-1.6-.1-2.4-.1-.9.1-1.9-.3-2.7Z"/>
          <path class="cls-2" d="M49.96,56.28c-.1-.6-.9-.8-1.3-.3-.4.6-.5,1.4-.7,2.2-.2,1-.3,2-.4,3-.1.8,1.3,1,1.5.2.1-.8.3-1.6.5-2.4.1-.9.5-1.8.4-2.7Z"/>
          <path class="cls-2" d="M58.06,51.58c.1-.6-.7-1-1.1-.7-.6.5-.9,1.2-1.3,1.9-.5.9-.9,1.8-1.3,2.7-.3.7,1,1.4,1.4.6.4-.7.7-1.4,1.1-2.1.4-.8,1.1-1.6,1.2-2.4Z"/>
          <path class="cls-2" d="M43.46,63.18c-.3-.5-1.1-.4-1.3.2-.2.7,0,1.5.1,2.3.2,1,.4,2,.7,2.9.2.7,1.6.5,1.5-.3-.2-.8-.3-1.6-.4-2.4-.2-.9-.2-1.9-.6-2.7Z"/>
          <path class="cls-2" d="M49.26,64.58c-.1-.6-.9-.8-1.3-.3-.4.6-.5,1.4-.7,2.2-.2,1-.3,2-.4,3-.1.8,1.3,1,1.5.2.1-.8.3-1.6.5-2.4.1-.9.5-1.9.4-2.7Z"/>
          <path class="cls-2" d="M54.86,61.38c0-.6-.8-.9-1.2-.5-.5.6-.7,1.4-1,2.1-.3.9-.6,1.9-.8,2.9-.2.8,1.2,1.2,1.4.4.2-.8.5-1.5.8-2.3.3-.8.9-1.7.8-2.6Z"/>
          <path class="cls-2" d="M47.96,49.38c-.1-.6-.9-.8-1.3-.3-.4.6-.5,1.4-.7,2.2-.2,1-.3,2-.4,3-.1.8,1.3,1,1.5.2.1-.8.3-1.6.5-2.4.2-.9.6-1.9.4-2.7Z"/>
          <path class="cls-2" d="M60.06,39.78c.1-.6-.6-1.1-1.1-.7-.6.4-1,1.2-1.4,1.8-.5.8-1,1.7-1.5,2.6-.3.7.9,1.4,1.3.7.4-.7.8-1.4,1.3-2.1s1.2-1.5,1.4-2.3Z"/>
          <path class="cls-2" d="M53.86,45.08c-.1-.6-.9-.8-1.3-.3-.4.6-.5,1.4-.7,2.2-.2,1-.3,2-.4,3-.1.8,1.3,1,1.5.2.1-.8.3-1.6.5-2.4.2-.9.6-1.9.4-2.7Z"/>
        </g>
        <g>
          <path class="cls-1" d="M20.46,133.98c-.5-1.2-.6-3.2-1.9-3.8-.3-.1-.9,0-.8.4.1.7.5,1.3.6,2,.1.6.3,1.3.5,1.9.2.5.4,1,.6,1.5s.2,1.2.7,1.5c.3.2.7,0,.9-.2.6-1-.2-2.4-.6-3.3Z"/>
          <path class="cls-1" d="M15.06,114.78c-.1-.4-.7-.8-1.1-.5-.7.7-.8,1.5-1.1,2.3-.3,1.1-.6,2.2-.7,3.4,0,.4.6.9.9.5.6-1,1-2,1.3-3.1.3-.7.9-1.7.7-2.6Z"/>
          <path class="cls-1" d="M20.56,121.58c-.3,1.4.2,2.9.4,4.2.2,1.2.5,2.5,1,3.6.2.5,1.2.5,1.2-.1,0-1.2-.1-2.3-.3-3.4-.2-1.4-.1-3.5-1.1-4.5-.4-.4-1.1-.3-1.2.2Z"/>
          <path class="cls-1" d="M24.56,132.98c-.4-.5-1.6-.1-1.3.5.4.8.6,1.7.9,2.6.2.9.3,1.9.8,2.7.4.8,1.7.2,1.6-.6-.3-1.7-1-3.7-2-5.2Z"/>
          <path class="cls-1" d="M30.66,150.18c-.7-.8-1.2-1.9-1.6-2.8-.4-.9-1.4-2.4-1-3.4.1-.4.8-.7,1.1-.4.8.7,1,1.9,1.3,2.9.4,1,.8,2,1.3,2.9.2.5-.7,1.3-1.1.8Z"/>
          <path class="cls-1" d="M26.56,132.78c.1.4,1,.5,1.1,0,.1-.9,0-1.8-.1-2.7s-.3-2-.8-2.7c-.3-.5-1.4-.4-1.4.3.1.8.4,1.5.5,2.2.3.9.4,1.9.7,2.9Z"/>
          <path class="cls-1" d="M20.86,150.88c.1.4,1,.5,1.1,0,.1-.9,0-1.8-.1-2.7s-.3-2-.8-2.7c-.3-.5-1.4-.4-1.4.3.1.8.4,1.5.5,2.2.2,1,.3,2,.7,2.9Z"/>
          <path class="cls-1" d="M26.66,159.28c.1.4,1,.5,1.1,0,.1-.9,0-1.8-.1-2.7s-.3-2-.8-2.7c-.3-.5-1.4-.4-1.4.3.1.8.4,1.5.5,2.2.3,1,.4,2,.7,2.9Z"/>
          <path class="cls-1" d="M25.86,122.98c0-1.2-.2-2.4-.3-3.6-.1-1.1.1-2.5-.5-3.5-.2-.4-.9-.5-1-.1-.4,1.1-.2,2.5-.1,3.7s.2,2.4.5,3.5c.2.7,1.5.7,1.4,0Z"/>
          <path class="cls-1" d="M17.76,142.08c0-1.2-.2-2.4-.3-3.6-.1-1.1.1-2.5-.5-3.5-.2-.4-.9-.5-1-.1-.4,1.1-.2,2.5-.1,3.7s.2,2.4.5,3.5c.1.7,1.4.7,1.4,0Z"/>
          <path class="cls-1" d="M20.46,112.58c-.2,1.6-.2,3.8.4,5.3.2.4,1.1.5,1.1,0,.1-1.7-.4-3.4-.3-5.1.1-.7-1.1-.8-1.2-.2Z"/>
          <path class="cls-1" d="M25.96,112.08c.2.5,1,.6,1.2.1.3-.6.3-1.4.3-2.1.1-.9,0-1.9,0-2.9,0-.7-1.4-.8-1.4,0s0,1.5-.1,2.3c-.1.9-.3,1.8,0,2.6Z"/>
          <path class="cls-1" d="M32.46,121.08c.2.5,1,.6,1.2.1.3-.6.3-1.4.3-2.1.1-.9,0-1.9,0-2.9,0-.7-1.4-.8-1.4,0s0,1.5-.1,2.3c0,.9-.3,1.8,0,2.6Z"/>
          <path class="cls-1" d="M29.06,100.38c.2.5,1,.6,1.2.1.3-.6.3-1.4.3-2.1.1-.9,0-1.9,0-2.9,0-.7-1.4-.8-1.4,0s0,1.5-.1,2.3c0,.8-.2,1.8,0,2.6Z"/>
          <path class="cls-1" d="M34.76,106.68c.1.5.9.7,1.2.3.4-.6.5-1.4.7-2.1.2-.9.3-1.9.4-2.8.1-.7-1.3-1-1.4-.2s-.3,1.5-.4,2.3c-.3.8-.7,1.7-.5,2.5Z"/>
          <path class="cls-1" d="M15.96,101.68c.2.5,1,.6,1.2.1.3-.6.3-1.4.3-2.1.1-.9,0-1.9,0-2.9,0-.7-1.4-.8-1.4,0s0,1.5-.1,2.3c0,.8-.3,1.8,0,2.6Z"/>
          <path class="cls-1" d="M14.66,126.98c.1.5.9.7,1.2.3.4-.6.5-1.4.7-2.1.2-.9.3-1.9.4-2.8.1-.7-1.3-1-1.4-.2s-.3,1.5-.4,2.3c-.2.8-.6,1.7-.5,2.5Z"/>
          <path class="cls-1" d="M20.86,99.28c.1.5.9.7,1.2.3.4-.6.5-1.4.7-2.1.2-.9.3-1.9.4-2.8.1-.7-1.3-1-1.4-.2s-.3,1.5-.4,2.3c-.2.7-.6,1.6-.5,2.5Z"/>
          <path class="cls-1" d="M24.96,101.98c.2.5,1,.6,1.2.1.3-.6.3-1.4.3-2.1.1-.9,0-1.9,0-2.9,0-.7-1.4-.8-1.4,0s0,1.5-.1,2.3c0,.8-.2,1.8,0,2.6Z"/>
          <path class="cls-1" d="M16.46,111.78c.2.5,1,.6,1.2.1.3-.6.3-1.4.3-2.1.1-.9,0-1.9,0-2.9,0-.7-1.4-.8-1.4,0s0,1.5-.1,2.3c0,.9-.3,1.8,0,2.6Z"/>
          <path class="cls-1" d="M20.06,106.78c.2.5,1,.6,1.2.1.3-.6.3-1.4.3-2.1.1-.9,0-1.9,0-2.9,0-.7-1.4-.8-1.4,0s0,1.5-.1,2.3c0,.9-.2,1.8,0,2.6Z"/>
        </g>
        <g>
          <path class="cls-2" d="M82.06,113.78c.9.7,1.6,1.7,2.2,2.6.6.9,1.9,2.2,1.7,3.4-.1.4-.6.9-1.1.6-.9-.6-1.4-1.8-1.9-2.7-.6-1-1.2-1.9-1.9-2.8-.2-.5.5-1.5,1-1.1Z"/>
          <path class="cls-2" d="M81.16,120.08c-.2-.4-1.2-.3-1.1.2,0,.9.3,1.8.6,2.7.3.9.7,2,1.3,2.7.4.4,1.6.1,1.4-.5-.2-.8-.7-1.5-1-2.2-.4-1-.7-2-1.2-2.9Z"/>
          <path class="cls-2" d="M76.56,105.08c-.2-.4-1.2-.3-1.1.2,0,.9.3,1.8.6,2.7.3.9.7,2,1.3,2.7.4.4,1.6.1,1.4-.5-.2-.8-.7-1.5-1-2.2-.5-1-.8-2-1.2-2.9Z"/>
          <path class="cls-2" d="M79.56,129.88c.2,1.2.7,2.4,1,3.6.3,1.1.4,2.6,1.1,3.5.3.3,1,.4,1.1-.1.2-1.3-.3-2.6-.6-3.8-.3-1.2-.6-2.5-1.2-3.6-.3-.6-1.6-.3-1.4.4Z"/>
          <path class="cls-2" d="M71.06,109.88c.2,1.2.7,2.4,1,3.6.3,1.1.4,2.6,1.1,3.5.3.3,1,.4,1.1-.1.2-1.3-.3-2.6-.6-3.8-.3-1.2-.6-2.5-1.2-3.6-.3-.5-1.6-.3-1.4.4Z"/>
          <path class="cls-2" d="M83.96,145.98c-.3-.5-1.1-.4-1.3.1-.2.7,0,1.5.1,2.3.1,1,.3,2,.6,2.9.2.8,1.6.5,1.5-.3s-.3-1.6-.3-2.4c-.3-.8-.2-1.8-.6-2.6Z"/>
          <path class="cls-2" d="M71.86,123.18c-.3-.5-1.1-.4-1.3.1-.2.7,0,1.5.1,2.3.1,1,.3,2,.6,2.9.2.8,1.6.5,1.5-.3s-.3-1.6-.3-2.4c-.2-.8-.2-1.8-.6-2.6Z"/>
          <path class="cls-2" d="M125.16,178.08c.4,1.3.4,3.4,1.7,4.1.3.2.9,0,.9-.4-.1-.7-.4-1.4-.5-2.1s-.2-1.3-.4-2c-.1-.5-.3-1.1-.5-1.6-.2-.6-.1-1.2-.6-1.6-.3-.2-.8-.1-1,.2-.7.8.1,2.4.4,3.4Z"/>
          <path class="cls-2" d="M117.86,186.48c0-1.3-.1-2.5-.1-3.8,0-1.2.2-2.6-.3-3.7-.2-.4-.9-.6-1.1-.1-.5,1.2-.3,2.6-.3,3.9,0,1.2,0,2.5.3,3.8.2.5,1.5.6,1.5-.1Z"/>
          <path class="cls-2" d="M109.56,184.68c.3.3,1.1.3,1.3-.2.2-.9-.1-1.8-.3-2.7-.3-1.2-.7-2.4-1.3-3.4-.2-.3-1.1-.4-1.1.1,0,1.2.2,2.3.5,3.5.2.8.2,2,.9,2.7Z"/>
          <path class="cls-2" d="M124.56,193.78c.2.4,1,.6,1.3.1.4-.9.3-1.7.3-2.7-.1-1.2-.1-2.4-.5-3.6-.1-.4-.9-.6-1.1-.1-.3,1.2-.3,2.3-.2,3.5-.1.8-.3,2,.2,2.8Z"/>
          <path class="cls-2" d="M120.36,183.98s-.1.8-.1,1.2c0,.8,0,1.6-.1,2.4,0,1-.4,3.2.6,3.7.4.2.8.2,1.1-.2.6-1,.2-2.8.2-4,0-.9.2-2.2-.2-3-.2-.6-1.3-.8-1.5-.1Z"/>
          <path class="cls-2" d="M111.76,150.68c.4.2,1.2,0,1.1-.6-.1-1-.6-1.7-1.1-2.5-.7-1-1.4-2-2.3-2.9-.3-.3-1.1-.1-1,.4.3,1.1.9,2.1,1.6,3.1.5.9.9,2,1.7,2.5Z"/>
          <path class="cls-2" d="M103.26,144.28s.3.8.5,1.1c.4.7.8,1.4,1.1,2.1.5.9,1.3,3,2.4,2.9.4,0,.8-.3.8-.7,0-1.2-1.3-2.6-1.9-3.5-.5-.8-.9-2-1.7-2.5-.4-.5-1.4-.1-1.2.6Z"/>
          <path class="cls-2" d="M97.46,143.28c.1-1.5-.7-2.9-1.3-4.3-.5-1.2-1-2.5-1.7-3.6-.3-.5-1.3-.2-1.2.4.2,1.2.6,2.3.9,3.5.4,1.4.8,3.6,2,4.5.5.2,1.2,0,1.3-.5Z"/>
          <path class="cls-2" d="M89.76,132.18c.5.5,1.7-.2,1.3-.8-.5-.8-1-1.6-1.4-2.5s-.7-1.9-1.3-2.7c-.6-.7-1.8.1-1.5.9.5,1.8,1.6,3.8,2.9,5.1Z"/>
          <path class="cls-2" d="M101.66,140.38c.5.5,1.7-.2,1.3-.8-.5-.8-1-1.6-1.4-2.5s-.7-1.9-1.3-2.7c-.6-.7-1.8.1-1.5.9.4,1.8,1.6,3.7,2.9,5.1Z"/>
          <path class="cls-2" d="M94.06,133.28c.5.5,1.7-.2,1.3-.8-.5-.8-1-1.6-1.4-2.5s-.7-1.9-1.3-2.7c-.6-.7-1.8.1-1.5.9.5,1.8,1.6,3.7,2.9,5.1Z"/>
          <path class="cls-2" d="M87.76,132.88c-.2-.4-1.2-.3-1.1.2,0,.9.3,1.8.6,2.7.3.9.7,2,1.3,2.7.4.4,1.6.1,1.4-.5-.2-.8-.7-1.5-1-2.2-.4-1-.7-2-1.2-2.9Z"/>
          <path class="cls-2" d="M90.36,142.88c.2,1.2.7,2.4,1,3.6.3,1.1.4,2.6,1.1,3.5.3.3,1,.4,1.1-.1.2-1.3-.3-2.6-.6-3.8-.3-1.2-.6-2.5-1.2-3.6-.3-.6-1.6-.3-1.4.4Z"/>
          <path class="cls-2" d="M97.96,152.48c-.1-1.7-.5-3.9-1.5-5.4-.2-.4-1.2-.3-1.2.2.2,1.8,1.1,3.4,1.3,5.2.2.8,1.4.7,1.4,0Z"/>
          <path class="cls-2" d="M91.56,154.18c-.4-.4-1.2-.1-1.2.5,0,.8.4,1.5.8,2.1.4.9.9,1.8,1.5,2.6.4.7,1.7,0,1.3-.7-.4-.7-.7-1.4-1.1-2.2-.4-.8-.7-1.7-1.3-2.3Z"/>
          <path class="cls-2" d="M107.16,158.68c-.4-.4-1.2-.1-1.2.5,0,.8.4,1.5.7,2.2.4.9.9,1.8,1.4,2.7.4.7,1.7.1,1.3-.7-.4-.7-.7-1.5-1-2.2-.4-.8-.6-1.8-1.2-2.5Z"/>
          <path class="cls-2" d="M115.36,163.68c-.4-.4-1.2,0-1.2.6.1.8.5,1.4.9,2.1.5.9,1,1.7,1.6,2.5.4.6,1.7-.1,1.3-.8-.4-.7-.8-1.4-1.2-2.1-.5-.8-.8-1.8-1.4-2.3Z"/>
          <path class="cls-2" d="M117.76,156.98c-.4-.5-1.2-.3-1.3.3-.1.8.2,1.5.4,2.2.3,1,.6,1.9,1,2.8.3.7,1.7.3,1.4-.5-.3-.8-.5-1.5-.7-2.3-.2-.8-.3-1.8-.8-2.5Z"/>
          <path class="cls-2" d="M124.06,156.98c-.4-.5-1.2-.3-1.3.3-.1.8.2,1.5.4,2.2.3,1,.6,1.9,1,2.8.3.7,1.7.3,1.4-.5-.3-.8-.5-1.5-.7-2.3-.2-.8-.2-1.8-.8-2.5Z"/>
          <path class="cls-2" d="M117.06,148.28c-.5-.3-1.2.2-1.1.8.2.7.7,1.3,1.2,1.9.6.8,1.3,1.5,2,2.3.5.6,1.7-.3,1.1-1-.5-.6-1-1.3-1.5-1.9-.5-.7-.9-1.6-1.7-2.1Z"/>
          <path class="cls-2" d="M110.36,170.08c-.4-.4-1.2-.2-1.2.4,0,.8.3,1.5.6,2.2.4.9.8,1.8,1.2,2.7.3.7,1.7.1,1.4-.6-.3-.7-.6-1.5-.9-2.3-.3-.7-.5-1.7-1.1-2.4Z"/>
          <path class="cls-2" d="M120.36,173.18c-.3-.5-1.1-.4-1.3.1-.2.7,0,1.5.1,2.3.1,1,.3,2,.6,2.9.2.8,1.6.5,1.5-.3s-.3-1.6-.3-2.4c-.2-.8-.2-1.9-.6-2.6Z"/>
          <path class="cls-2" d="M116.06,191.88c-.3-.5-1.1-.4-1.3.1-.2.7,0,1.5.1,2.3.1,1,.3,2,.6,2.9.2.8,1.6.5,1.5-.3s-.3-1.6-.3-2.4c-.3-.8-.2-1.8-.6-2.6Z"/>
          <path class="cls-2" d="M126.36,166.58c-.3-.5-1.1-.4-1.3.1-.2.7,0,1.5.1,2.3.1,1,.3,2,.6,2.9.2.8,1.6.5,1.5-.3s-.3-1.6-.3-2.4c-.2-.8-.1-1.8-.6-2.6Z"/>
          <path class="cls-2" d="M110.26,155.28c-.4-.4-1.2-.1-1.2.5,0,.8.4,1.5.7,2.2.4.9.9,1.8,1.4,2.7.4.7,1.7.1,1.3-.7-.4-.7-.7-1.5-1-2.2-.4-.8-.6-1.8-1.2-2.5Z"/>
          <path class="cls-2" d="M100.96,153.98c-.4-.4-1.2-.1-1.2.5,0,.8.4,1.5.7,2.2.4.9.9,1.8,1.4,2.7.4.7,1.7.1,1.3-.7-.4-.7-.7-1.5-1-2.2-.4-.9-.6-1.9-1.2-2.5Z"/>
          <path class="cls-2" d="M100.06,164.88c-.5-.4-1.2.1-1.1.6.1.8.6,1.4,1,2.1.5.9,1.1,1.7,1.7,2.5.5.6,1.7-.2,1.2-.9s-.9-1.4-1.3-2.1c-.5-.7-.8-1.7-1.5-2.2Z"/>
        </g>
      </g>
      <path class="cls-4" d="M30.06,65.28c1.9,0,1.9-3,0-3s-1.9,3,0,3h0Z"/>
      <path class="cls-4" d="M66.86,68.38c1.9,0,1.9-3,0-3s-1.9,3,0,3h0Z"/>
    </g>
  </g>
</svg>