<?xml version="1.0" encoding="UTF-8"?>
<svg id="Ebene_2" data-name="Ebene 2" xmlns="http://www.w3.org/2000/svg" viewBox="0 0 247.02 229.49">
  <defs>
    <style>
      .cls-1 {
        fill: #9dd7f0;
      }

      .cls-1, .cls-2, .cls-3, .cls-4, .cls-5, .cls-6, .cls-7, .cls-8, .cls-9, .cls-10, .cls-11, .cls-12, .cls-13, .cls-14, .cls-15, .cls-16, .cls-17, .cls-18, .cls-19, .cls-20, .cls-21, .cls-22 {
        stroke-width: 0px;
      }

      .cls-2, .cls-10 {
        fill: #f49282;
      }

      .cls-3 {
        fill: #c93f31;
      }

      .cls-4 {
        fill: #813642;
      }

      .cls-5 {
        fill: #ffc8ac;
      }

      .cls-6 {
        fill: #a33d64;
      }

      .cls-7 {
        fill: #11443d;
      }

      .cls-8 {
        fill: #e5553e;
      }

      .cls-9 {
        fill: #f5a9a7;
      }

      .cls-10, .cls-19 {
        opacity: .3;
      }

      .cls-11 {
        fill: #2fa124;
      }

      .cls-12 {
        fill: #10ad9d;
      }

      .cls-13 {
        fill: #894e4e;
      }

      .cls-14 {
        fill: #fff;
      }

      .cls-15, .cls-19 {
        fill: #588bc8;
      }

      .cls-16 {
        fill: #3dc1a7;
      }

      .cls-17 {
        fill: #0e547a;
      }

      .cls-18 {
        fill: #fca39a;
      }

      .cls-20 {
        fill: #002030;
      }

      .cls-21 {
        fill: #033c56;
      }

      .cls-22 {
        fill: #f9fbfc;
      }
    </style>
  </defs>
  <g id="Objects">
    <g>
      <ellipse class="cls-22" cx="66.5" cy="55" rx="66.5" ry="55"/>
      <g>
        <path class="cls-8" d="M172.37,109.94c-2.19,0-4.26.46-6.15,1.29-1.52-4.8-5.34-8.58-10.16-10.05,1.46-2.35,2.31-5.11,2.31-8.08,0-.9-.09-1.77-.24-2.63,6.92-1.5,12.1-7.66,12.1-15.02,0-8.5-6.89-15.38-15.38-15.38s-15.38,6.89-15.38,15.38c0,.9.09,1.77.24,2.63-6.92,1.5-12.1,7.66-12.1,15.02,0,4.41,1.87,8.38,4.84,11.18-6,2.1-10.31,7.79-10.31,14.51,0,8.4,6.74,15.22,15.1,15.37,2.24,5.74,7.8,9.81,14.32,9.81,4.93,0,9.31-2.33,12.13-5.94,2.47,1.69,5.46,2.69,8.68,2.69,8.5,0,15.38-6.89,15.38-15.38s-6.89-15.38-15.38-15.38Z"/>
        <path class="cls-8" d="M196.78,109.94c2.19,0,4.26.46,6.15,1.29,1.52-4.8,5.34-8.58,10.16-10.05-1.46-2.35-2.31-5.11-2.31-8.08,0-.9.09-1.77.24-2.63-6.92-1.5-12.1-7.66-12.1-15.02,0-8.5,6.89-15.38,15.38-15.38s15.38,6.89,15.38,15.38c0,.9-.09,1.77-.24,2.63,6.92,1.5,12.1,7.66,12.1,15.02,0,4.41-1.87,8.38-4.84,11.18,6,2.1,10.31,7.79,10.31,14.51,0,8.4-6.74,15.22-15.1,15.37-2.24,5.74-7.8,9.81-14.33,9.81-4.93,0-9.31-2.33-12.13-5.94-2.47,1.69-5.46,2.69-8.68,2.69-8.5,0-15.38-6.89-15.38-15.38s6.89-15.38,15.38-15.38Z"/>
        <path class="cls-5" d="M161.9,164c-.83.39-3.5,6.46-3.52,16.09-.04,19.38,7.01,42.59,10.32,47.63,1.25,2.21,7.48,2.51,9.91,0,1.26-3.94.78-33.53,5.97-33.53s4.71,29.6,5.97,33.53c2.43,2.51,8.66,2.21,9.91,0,3.31-5.04,10.36-28.25,10.32-47.63-.02-9.62-2.69-15.7-3.52-16.09h-45.36Z"/>
        <path class="cls-10" d="M210.78,180.08c0-5.56-.91-9.93-1.82-12.71-.55-.48-.89-.77-.89-.77h-46.17s-.78.67-2,1.75c-.8,2.78-1.51,6.78-1.52,11.73-.01,5.64.58,11.59,1.5,17.34,5.55,2.5,12.65,4.38,21.08,4.85.75-4.67,1.85-8.09,3.62-8.09s2.88,3.44,3.62,8.13c8.35-.37,15.41-2.13,21.01-4.52.96-5.86,1.58-11.95,1.56-17.71Z"/>
        <path class="cls-1" d="M210.78,180.08c-.02-9.62-2.69-15.7-3.52-16.09h-45.36c-.83.39-3.5,6.46-3.52,16.09,0,4.66.4,9.54,1.06,14.34,5.24,2.23,13.58,4.4,22.11,4.84.71-3.05,1.68-5.08,3.04-5.08s2.32,2.03,3.04,5.08c8.52-.44,16.87-2.62,22.11-4.84.66-4.8,1.06-9.68,1.06-14.34Z"/>
        <path class="cls-19" d="M184.58,187.31c-4.02,0-6.48,4.97-7.94,11.52,1.61.2,3.25.35,4.9.44.54-2.29,1.21-4,2.09-4.71,0,0,0,0,0,0,.14-.11.29-.2.44-.26,0,0,.01,0,.02,0,.16-.06.32-.09.48-.09,0,0,0,0,0,0,0,0,0,0,0,0,.04,0,.07.02.1.02.13.01.25.03.37.07.08.03.15.08.22.13.07.04.15.08.22.13.08.06.15.14.22.22.06.07.13.12.19.2.07.09.13.19.2.29.06.09.13.18.19.28.06.11.12.23.18.35.06.12.12.23.18.36.05.12.11.26.16.39.06.15.12.29.17.45.05.14.1.29.14.44.05.17.11.34.16.52.04.16.09.32.13.49.05.18.1.37.14.56.02.06.03.12.05.19,1.57-.08,3.14-.22,4.68-.41-1.37-6.56-3.72-11.54-7.71-11.54Z"/>
        <g>
          <path class="cls-15" d="M167.5,168.27c-.34,3.98-1.91,12.52-8.36,14.11,0,0,3.1,1.52,6.54-3.3,3.02-4.22,3.29-10.22,3.29-10.22l-1.47-.59Z"/>
          <path class="cls-15" d="M201.65,168.46c.34,3.98,1.91,12.52,8.36,14.11,0,0-3.1,1.52-6.54-3.3-3.01-4.22-3.29-10.22-3.29-10.22l1.47-.59Z"/>
        </g>
        <path class="cls-5" d="M192.33,129.63c5.62-.25,8.52,2,13.64,6.7,5.12,4.7,10.93,9.87,19.2,11.27,6.81,1.16,9.79-1.5,12.42-1.13,2.63.38-.89,4.22-.89,4.22,0,0,10.1,1.41,7.47,8.18-2.12,5.44-20.67,3.95-29.68,0-9.02-3.95-22.15-11.96-22.15-29.25Z"/>
        <path class="cls-10" d="M193.71,129.65s.03,0,.05,0c.4.19,6.54,2.89,10.53,11.95,4.26,9.68,9.35,13.53,19.78,16.48,10.44,2.95,19.89,1.33,20.41-2.29h0c.2.88.13,1.9-.33,3.08-2.12,5.44-20.67,3.95-29.68,0-8.64-3.78-21.06-11.3-22.07-27.14l1.31-2.09Z"/>
        <path class="cls-5" d="M176.47,131.18c-4.54-1.73-10.28,1.51-16.14,5.25-6.16,3.94-10.84,4.37-17.1-1.2-5.16-4.59-4.95-8.58-6.88-10.4-1.94-1.82-2.73,3.34-2.73,3.34,0,0-7.42-7-11.06-.71-2.92,5.05,9.84,18.6,18.56,23.17,8.72,4.57,29.46,7.47,35.35-19.44Z"/>
        <path class="cls-10" d="M147.74,148.94c7.27.52,13.33-.53,17.26-8.17,3.91-7.61,8.88-10.04,8.93-10.06,0,0,0,0,0,0l2.08,2.34c-6.42,24.9-26.38,22.04-34.89,17.58-8.72-4.57-21.48-18.11-18.56-23.17-.58,6.7,17.92,20.96,25.18,21.48Z"/>
        <path class="cls-17" d="M174.91,130.32s-4.08-2.15-10.78,2.4c-6.09,4.14-8.78,5.28-8.78,5.28,0,0,.38,8.1,6.01,15.6,0,0,9.49-2.28,12.57-10.32,3.08-8.05.98-12.96.98-12.96Z"/>
        <path class="cls-21" d="M167.74,135.57c-3.95,5.53-3.57,8.69-9.79,12.2.84,1.88,1.94,3.87,3.41,5.83,0,0,9.49-2.28,12.57-10.32,3.08-8.05.98-12.96.98-12.96,0,0-3.22-.28-7.17,5.26Z"/>
        <path class="cls-17" d="M193.98,129.71s4.25-1.82,10.55,3.26c5.73,4.62,8.32,5.98,8.32,5.98,0,0-1.04,8.04-7.26,15.06,0,0-9.28-3.04-11.69-11.31-2.42-8.27.08-12.99.08-12.99Z"/>
        <path class="cls-21" d="M201.91,135.66c4.37,6.04,4.59,9.54,7.02,13.78-.9,1.51-1.99,3.06-3.33,4.57,0,0-9.28-3.04-11.69-11.31-2.42-8.27.08-12.99.08-12.99,0,0,3.94.44,7.92,5.95Z"/>
        <path class="cls-16" d="M176.83,128.58c-3.13,1.92-9.28,9.15-12.69,20.2-3.42,11.05-3.62,14.27-.95,16.84,2.66,2.56,9.09,5.61,21.57,5.61s18.91-3.04,21.57-5.61c2.66-2.56,2.46-5.78-.95-16.84-3.42-11.05-9.56-18.28-12.69-20.2h-15.86Z"/>
        <path class="cls-18" d="M148.16,102.88c-4.17,1.04-8.24-2.06-9.39-5.14-1.41-3.79-.94-8.17,3.42-10.05,3.9-1.68,5.95.72,5.95.72,0,0,4.13,10.78.02,14.46Z"/>
        <path class="cls-4" d="M140.61,93.55c.1-2.37,1.8-4.35,5.34-3.73,2.59.45,3.44,3.87,3.44,3.87,0,0,.94,5.68-1.65,6.69-2.58,1-4.47-.79-4.27-2.64.29-2.65,3.1-2.39,3.1-2.39,0,0,.22-2.52-1.57-3.29-1.82-.78-3.58.22-4.39,1.49Z"/>
        <path class="cls-18" d="M220.99,102.88c4.17,1.04,8.25-2.06,9.39-5.14,1.41-3.79.94-8.17-3.42-10.05-3.9-1.68-5.95.72-5.95.72,0,0-4.12,10.78-.02,14.46Z"/>
        <path class="cls-4" d="M228.54,93.55c-.1-2.37-1.8-4.35-5.34-3.73-2.59.45-3.44,3.87-3.44,3.87,0,0-.94,5.68,1.65,6.69,2.59,1,4.47-.79,4.27-2.64-.29-2.65-3.1-2.39-3.1-2.39,0,0-.22-2.52,1.57-3.29,1.82-.78,3.58.22,4.39,1.49Z"/>
        <path class="cls-5" d="M184.58,134.47c6.93,0,7.8-3.43,7.8-3.43,0-3.46-.22-3.46.22-6.06.43-2.6,2.53-1.88,11.04-4.55,8.33-2.61,18.31-10.94,17.76-20.79-.87-15.64.71-16.97-4.55-29.24-5.85-13.64-20.44-17.76-32.27-17.76s-26.42,4.11-32.27,17.76c-5.26,12.26-3.67,13.59-4.55,29.24-.55,9.85,9.39,18.3,17.76,20.79,8.84,2.63,10.61,1.95,11.04,4.55.43,2.6.22,2.6.22,6.06,0,0,.87,3.43,7.8,3.43Z"/>
        <path class="cls-2" d="M221.07,89.44c-.18-8.01-.17-10.97-4.22-20.42-5.85-13.64-20.44-17.76-32.27-17.76s-26.42,4.11-32.27,17.76c-4.08,9.53-4.04,12.46-4.23,20.64.59-2.34,3.66-13.59,9.45-18.78,9.76-8.75,22.03-6.61,26.93,0,4.9-6.61,17.17-8.75,26.93,0,6.48,5.81,9.56,19.22,9.56,19.22,0,0,.05-.23.11-.66Z"/>
        <path class="cls-2" d="M184.57,66.08s-4.23,2.58-3.18,8.82c1.05,6.23,7.36,6.24,7.36,6.24l-4.18-15.06Z"/>
        <path class="cls-8" d="M216.35,63.17c-6.65-11.7-17.93-13.91-31.37-13.98h0c-.12,0-.23,0-.35,0-.12,0-.23,0-.35,0h0c-13.44.08-24.72,2.29-31.37,13.99-7.34,12.91-4.77,25.25-4.77,25.25,0,0,3.08-13.41,9.56-19.22,9.76-8.75,22.03-6.61,26.93,0,4.9-6.61,17.17-8.75,26.93,0,6.48,5.81,9.56,19.22,9.56,19.22,0,0,2.57-12.33-4.77-25.25Z"/>
        <path class="cls-18" d="M166.73,103.4c0,3.27-3.4,5.93-7.59,5.93s-7.59-2.65-7.59-5.93,3.4-5.93,7.59-5.93,7.59,2.65,7.59,5.93Z"/>
        <path class="cls-18" d="M202.42,103.4c0,3.27,3.4,5.93,7.59,5.93s7.59-2.65,7.59-5.93-3.4-5.93-7.59-5.93-7.59,2.65-7.59,5.93Z"/>
        <path class="cls-14" d="M210.92,93.1c0,4.02-3.26,7.28-7.28,7.28s-7.28-3.26-7.28-7.28,3.26-7.28,7.28-7.28,7.28,3.26,7.28,7.28Z"/>
        <path class="cls-14" d="M158.23,93.1c0,4.02,3.26,7.28,7.28,7.28s7.28-3.26,7.28-7.28-3.26-7.28-7.28-7.28-7.28,3.26-7.28,7.28Z"/>
        <path class="cls-18" d="M181.79,102.01c.59.35,6.1,0,6.6-1.25.5-1.25-.75-2.47-2.67-2.07-1.92.4-5.34,2.49-3.92,3.32Z"/>
        <path class="cls-6" d="M184.58,115.89c9.97,0,10.35-8.29,9-8.29h-18c-1.35,0-.97,8.29,9,8.29Z"/>
        <g>
          <path class="cls-7" d="M173.18,93.55c0,3.77-2.89,6.83-6.45,6.83s-6.45-3.06-6.45-6.83,2.89-6.83,6.45-6.83,6.45,3.06,6.45,6.83Z"/>
          <path class="cls-14" d="M166.43,92.06c0-1.44,1.16-2.6,2.6-2.6s2.6,1.16,2.6,2.6-1.16,2.6-2.6,2.6-2.6-1.16-2.6-2.6Z"/>
          <path class="cls-20" d="M162.33,91.65c.27-.13.55-.23.81-.38.33-.19.65-.4.96-.62.63-.43,1.24-.9,1.9-1.27,1.27-.7,2.82-1,4.21-.47.96.37,1.77,1.07,2.37,1.9-.1-1.58-.86-3.05-1.92-4.2-1.23-1.32-2.93-2.09-4.72-2.2-4.44-.27-6.07,4.45-10.39,3.97-.88-.1-.82,1.25-.47,1.72.81,1.13,2.03,1.91,3.39,2.19,1.24.25,2.54.09,3.63-.54.07-.04.15-.08.23-.12Z"/>
        </g>
        <g>
          <path class="cls-7" d="M195.97,93.55c0,3.77,2.89,6.83,6.45,6.83s6.45-3.06,6.45-6.83-2.89-6.83-6.45-6.83-6.45,3.06-6.45,6.83Z"/>
          <path class="cls-14" d="M202.72,92.06c0-1.44-1.16-2.6-2.6-2.6s-2.6,1.16-2.6,2.6,1.16,2.6,2.6,2.6,2.6-1.16,2.6-2.6Z"/>
          <path class="cls-20" d="M206.82,91.65c-.27-.13-.55-.23-.81-.38-.33-.19-.65-.4-.96-.62-.63-.43-1.24-.9-1.9-1.27-1.27-.7-2.82-1-4.21-.47-.96.37-1.77,1.07-2.37,1.9.1-1.58.86-3.05,1.92-4.2,1.23-1.32,2.93-2.09,4.72-2.2,4.44-.27,6.07,4.45,10.38,3.97.88-.1.82,1.25.48,1.72-.81,1.13-2.03,1.91-3.39,2.19-1.24.25-2.54.09-3.63-.54-.07-.04-.15-.08-.23-.12Z"/>
        </g>
        <path class="cls-13" d="M179.24,222.34c-5.07,1.9-9.32,1.78-12.94.2.89,2.35,1.72,4.15,2.4,5.17,1.25,2.21,7.48,2.51,9.91,0,.26-.83.45-2.8.63-5.38Z"/>
        <path class="cls-13" d="M189.91,222.34c5.07,1.9,9.32,1.78,12.94.2-.89,2.35-1.72,4.15-2.4,5.17-1.25,2.21-7.48,2.51-9.91,0-.26-.83-.45-2.8-.63-5.38Z"/>
        <path class="cls-18" d="M170.95,209.04c.2-.26.02-.7-.17-.93s-.46-.4-.75-.46c-.53-.11-1.12.06-1.49.45-.45.48-.54,1.22-.24,1.81s.95.97,1.58,1.14c.96.25,2.12.04,2.58-.94.4-.85.22-1.9-.22-2.7-.57-1.03-1.7-1.86-2.92-1.63-.29.06-.11.54.14.54.83-.02,1.59.28,2.08.94.4.53.63,1.3.51,1.99s-.62,1.18-1.33,1.25c-.83.08-2.22-.35-1.92-1.43.13-.47.58-.8,1.06-.82.21,0,.44.04.61.17.2.16.25.42.37.63.03.06.1.04.13,0h0Z"/>
        <path class="cls-18" d="M198.31,209.06c.18-.17.23-.42.42-.59.16-.14.38-.22.58-.23.39-.03.8.14.98.48.57,1.07-.86,1.75-1.71,1.78-.37.01-.77-.07-1.02-.26-.22-.17-.35-.38-.43-.68-.17-.66.03-1.45.4-2.04.5-.8,1.35-1.23,2.29-1.2.27,0,.12-.49-.08-.53-2.09-.36-3.84,2.03-3.13,3.97.37,1.02,1.37,1.51,2.42,1.37.63-.09,1.28-.35,1.68-.87s.38-1.27.03-1.82-1.04-.9-1.71-.8-1.1.75-.86,1.38c.02.05.08.1.13.05h0Z"/>
        <path class="cls-3" d="M211.81,81.75c.26-.22.13-.69-.06-1.01-1.56-2.62-3.96-4.33-6.94-4.98-2.94-.65-8.13-.49-9.92,2.44-.85,1.39.29,2.8,1.73,2.82.73,0,1.45-.04,2.17-.14.9-.13,1.79-.34,2.7-.47,3.23-.47,6.55.14,9.6,1.32.21.08.45.16.65.06.02-.01.05-.03.07-.05Z"/>
        <path class="cls-3" d="M157.34,81.75c-.26-.22-.13-.69.06-1.01,1.56-2.62,3.96-4.33,6.94-4.98,2.94-.65,8.13-.49,9.92,2.44.85,1.39-.29,2.8-1.73,2.82-.73,0-1.45-.04-2.17-.14-.9-.13-1.79-.34-2.7-.47-3.23-.47-6.55.14-9.6,1.32-.21.08-.46.16-.65.06-.02-.01-.05-.03-.07-.05Z"/>
        <path class="cls-8" d="M158.23,44.6s-4.77,1.33-5.46,7.62c-.68,6.28,5.38,8,5.38,8l.07-15.62Z"/>
        <path class="cls-8" d="M186.73,64.54s-4.23,2.58-3.18,8.81c1.05,6.23,7.36,6.24,7.36,6.24l-4.18-15.06Z"/>
        <path class="cls-8" d="M145.73,49.18s-2.11,4.48,2.2,9.11c4.31,4.63,9.58,1.16,9.58,1.16l-11.78-10.27Z"/>
        <path class="cls-2" d="M195.97,122.49c-3.16.83-16.1,1.12-22.28.08,1.99.54,2.63.98,2.87,2.4.17,1,.24,1.62.26,2.19,2.13.59,4.77.99,7.93.99,3.48,0,5.89-.4,7.57-.99.02-.58.09-1.19.26-2.19.25-1.51,1.08-1.9,3.38-2.49h0Z"/>
        <path class="cls-12" d="M164.13,148.78c-3.42,11.05-3.62,14.27-.95,16.84,2.66,2.56,9.09,5.61,21.57,5.61s18.91-3.04,21.57-5.61c1.97-1.9,2.37-4.17,1.06-9.71,0,.04-.86,6.01-8.63,8.09-7.8,2.08-26.5,3.37-29.72-10.4-3.23-13.77,7.79-25.02,7.79-25.02-3.13,1.92-9.28,9.15-12.69,20.2Z"/>
        <path class="cls-9" d="M184.58,115.89c3.08,0,5.24-.79,6.72-1.88-1.04-1.99-3.65-3.4-6.72-3.4s-5.69,1.41-6.72,3.4c1.48,1.09,3.64,1.88,6.72,1.88Z"/>
      </g>
      <path class="cls-22" d="M91.86,95.04c16.28,4.09,32.56,8.17,48.85,12.26-3.25-4.06-7.09-7.8-10.91-11.53-6.79-6.62-13.59-13.25-20.38-19.87-3.73,6.21-8.53,11.92-14.22,16.93"/>
      <path class="cls-11" d="M37.77,58.32c3.78,2.86,5.23,3.26,8.39,7.58,5.17,7.05,4.41,9.97,5.95,11.32,1.53,1.34,8.57,2.43,13.36-3.71,4.79-6.14,12.27-23.08,21.86-33.24,9.59-10.16,14.06-13.11,16.94-14.64,2.88-1.53-6.24-1.21-24.16,13.04-12.47,9.91-21.29,23.59-21.29,23.59,0,0-2.49-7.48-8.05-12.47-5.56-4.99-19.27,3.79-12.99,8.53Z"/>
    </g>
  </g>
</svg>