<?xml version="1.0" encoding="utf-8"?>
<!-- Generator: Adobe Illustrator 28.2.0, SVG Export Plug-In . SVG Version: 6.00 Build 0)  -->
<svg version="1.1" id="Ebene_2_00000045588233461560100340000014175806700761604014_"
	 xmlns="http://www.w3.org/2000/svg" xmlns:xlink="http://www.w3.org/1999/xlink" x="0px" y="0px" viewBox="0 0 247 229.5"
	 style="enable-background:new 0 0 247 229.5;" xml:space="preserve">
<style type="text/css">
	.st0{fill:#F9FBFC;}
	.st1{fill:#E5553E;}
	.st2{fill:#FFC8AC;}
	.st3{opacity:0.3;fill:#F49282;enable-background:new    ;}
	.st4{fill:#9DD7F0;}
	.st5{opacity:0.3;fill:#588BC8;enable-background:new    ;}
	.st6{fill:#588BC8;}
	.st7{fill:#0E547A;}
	.st8{fill:#033C56;}
	.st9{fill:#3DC1A7;}
	.st10{fill:#FCA39A;}
	.st11{fill:#813642;}
	.st12{fill:#F49282;}
	.st13{fill:#FFFFFF;}
	.st14{fill:#11443D;}
	.st15{fill:#002030;}
	.st16{fill:#894E4E;}
	.st17{fill:#C93F31;}
	.st18{fill:#10AD9D;}
	.st19{fill:#A33D64;}
	.st20{fill:#E01C1C;}
</style>
<g>
	<ellipse class="st0" cx="66.5" cy="55" rx="66.5" ry="55"/>
	<g>
		<path class="st1" d="M172.4,110c-2.2-0.1-4.3,0.4-6,1.3c-1.6-4.9-5.4-8.6-10.2-10.1c1.5-2.4,2.3-5.1,2.3-8.1c0-0.9,0-1.7-0.2-2.6
			c6.9-1.5,12.1-7.6,12.1-15c0-8.5-6.9-15.4-15.4-15.4s-15.4,6.9-15.4,15.4c0,0.9,0,1.7,0.2,2.6c-6.9,1.5-12.1,7.6-12.1,15
			c0,4.4,1.8,8.4,4.8,11.2c-6,2.1-10.3,7.8-10.3,14.5c0,8.4,6.7,15.3,15.1,15.4c2.2,5.7,7.8,9.8,14.3,9.8c4.9,0,9.3-2.3,12.1-5.9
			c2.5,1.7,5.5,2.7,8.7,2.7c8.5,0,15.4-6.9,15.4-15.4S180.9,110,172.4,110L172.4,110z"/>
		<path class="st1" d="M196.8,110c2.2-0.1,4.2,0.4,6,1.3c1.6-4.9,5.4-8.6,10.2-10.1c-1.5-2.4-2.3-5.1-2.3-8.1c0-0.9,0-1.7,0.2-2.6
			c-6.9-1.5-12.1-7.6-12.1-15c0-8.5,6.9-15.4,15.4-15.4s15.4,6.9,15.4,15.4c0,0.9,0,1.7-0.2,2.6c6.9,1.5,12.1,7.6,12.1,15
			c0,4.4-1.8,8.4-4.8,11.2c6,2.1,10.3,7.8,10.3,14.5c0,8.4-6.7,15.2-15.1,15.4c-2.2,5.7-7.8,9.8-14.3,9.8c-4.9,0-9.3-2.3-12.1-5.9
			c-2.5,1.7-5.5,2.7-8.7,2.7c-8.5,0-15.4-6.9-15.4-15.4S188.3,110,196.8,110L196.8,110z"/>
		<path class="st2" d="M161.8,164c-0.8,0.4-3.5,6.5-3.5,16.1c-0.1,19.4,7,42.6,10.3,47.6c1.2,2.2,7.5,2.5,9.9,0
			c1.3-3.9,0.8-33.5,6-33.5s4.7,29.6,6,33.5c2.4,2.5,8.7,2.2,9.9,0c3.3-5,10.3-28.2,10.3-47.6c0-9.6-2.7-15.7-3.5-16.1H161.8z"/>
		<path class="st3" d="M210.8,180.1c0-5.6-0.9-10-1.8-12.7c-0.6-0.5-0.9-0.8-0.9-0.8h-46.2c0,0-0.8,0.7-2,1.8
			c-0.8,2.8-1.5,6.8-1.5,11.7c0,5.6,0.6,11.5,1.5,17.3c5.6,2.5,12.7,4.4,21.1,4.9c0.7-4.7,1.9-8.1,3.6-8.1s2.9,3.4,3.6,8.1
			c8.3-0.3,15.4-2.1,21-4.5C210.2,192,210.8,185.9,210.8,180.1L210.8,180.1z"/>
		<path class="st4" d="M210.8,180.1c-0.1-9.6-2.7-15.7-3.6-16.1h-45.3c-0.8,0.4-3.5,6.5-3.5,16.1c0,4.6,0.4,9.5,1.1,14.3
			c5.2,2.2,13.6,4.4,22.1,4.8c0.7-3.1,1.7-5.1,3-5.1s2.3,2,3,5.1c8.5-0.4,16.9-2.6,22.1-4.8C210.4,189.6,210.8,184.8,210.8,180.1
			L210.8,180.1z"/>
		<path class="st5" d="M184.5,187.4c-4-0.1-6.4,4.9-8,11.5c1.6,0.2,3.3,0.3,4.9,0.4c0.5-2.3,1.2-4,2.1-4.7l0,0
			c0.1-0.2,0.2-0.2,0.4-0.3l0,0c0.2-0.1,0.3-0.1,0.5-0.1l0,0l0,0h0.1c0.2,0,0.3,0.1,0.4,0.1c0.1,0,0.1,0,0.2,0.1
			c0.1,0,0.1,0,0.2,0.1c0.1,0,0.1,0.1,0.2,0.2c0.1,0.1,0.1,0.1,0.2,0.2c0.1,0.1,0.1,0.2,0.2,0.3c0.1,0.1,0.1,0.2,0.2,0.3
			c0.1,0.2,0.1,0.3,0.2,0.4c0.1,0.2,0.1,0.3,0.2,0.4c0.1,0.1,0.1,0.3,0.2,0.4c0.1,0.1,0.1,0.2,0.2,0.4c0,0.1,0.1,0.2,0.1,0.4
			c0.1,0.1,0.1,0.3,0.2,0.5c0,0.2,0.1,0.3,0.1,0.5s0.1,0.4,0.1,0.6c0.1,0.1,0.1,0.1,0.1,0.2c1.6-0.1,3.2-0.2,4.7-0.4
			C190.8,192.4,188.5,187.4,184.5,187.4L184.5,187.4z"/>
		<g>
			<path class="st6" d="M167.5,168.3c-0.4,3.9-1.9,12.5-8.3,14.1c0,0,3.1,1.5,6.5-3.3c3-4.2,3.3-10.2,3.3-10.2L167.5,168.3
				L167.5,168.3z"/>
			<path class="st6" d="M201.6,168.5c0.4,3.9,1.9,12.5,8.3,14.1c0,0-3.1,1.5-6.5-3.3c-3-4.2-3.3-10.2-3.3-10.2L201.6,168.5
				L201.6,168.5z"/>
		</g>
		<path class="st2" d="M192.3,129.6c5.6-0.2,8.5,1.9,13.6,6.6c5.1,4.7,10.9,9.9,19.2,11.3c6.8,1.2,9.8-1.5,12.4-1.1
			s-0.9,4.2-0.9,4.2s10.1,1.4,7.5,8.2c-2.1,5.4-20.7,3.9-29.7,0S192.3,146.9,192.3,129.6L192.3,129.6z"/>
		<path class="st3" d="M193.7,129.6L193.7,129.6c0.4,0.2,6.6,2.9,10.6,11.9c4.3,9.7,9.4,13.6,19.8,16.5c10.4,2.9,19.9,1.3,20.4-2.3
			l0,0c0.2,0.9,0.2,1.9-0.3,3.1c-2.1,5.4-20.7,3.9-29.7,0c-8.7-3.7-21.1-11.3-22.1-27.1L193.7,129.6L193.7,129.6z"/>
		<path class="st2" d="M176.5,131.2c-4.6-1.8-10.3,1.5-16.2,5.2c-6.2,3.9-10.8,4.4-17.1-1.2c-5.2-4.6-5-8.6-6.9-10.4
			c-1.9-1.9-2.7,3.3-2.7,3.3s-7.5-7-11.1-0.7c-2.9,5.1,9.8,18.6,18.6,23.2S170.6,158.1,176.5,131.2L176.5,131.2z"/>
		<path class="st3" d="M147.7,148.9c7.3,0.6,13.4-0.5,17.3-8.1c3.9-7.7,8.9-10.1,8.9-10.1l0,0l2.1,2.3
			c-6.4,24.9-26.4,22.1-34.9,17.6c-8.8-4.6-21.5-18.1-18.6-23.2C121.9,134.1,140.4,148.4,147.7,148.9L147.7,148.9z"/>
		<path class="st7" d="M174.9,130.3c0,0-4.1-2.1-10.8,2.4c-6.1,4.2-8.8,5.3-8.8,5.3s0.4,8.1,6,15.6c0,0,9.5-2.3,12.6-10.3
			C177,135.2,174.9,130.3,174.9,130.3L174.9,130.3z"/>
		<path class="st8" d="M167.7,135.6c-3.9,5.5-3.5,8.7-9.8,12.2c0.8,1.9,1.9,3.8,3.4,5.8c0,0,9.5-2.3,12.6-10.3c3.1-8.1,1-13,1-13
			S171.6,130.1,167.7,135.6L167.7,135.6z"/>
		<path class="st7" d="M194,129.7c0,0,4.2-1.8,10.6,3.2c5.7,4.6,8.3,6,8.3,6s-1.1,8.1-7.3,15.1c0,0-9.3-3-11.7-11.3
			C191.5,134.4,194,129.7,194,129.7L194,129.7z"/>
		<path class="st8" d="M201.9,135.6c4.3,6.1,4.6,9.6,7,13.8c-0.9,1.5-2,3.1-3.3,4.6c0,0-9.3-3-11.7-11.3s0.1-13,0.1-13
			S197.9,130.2,201.9,135.6z"/>
		<path class="st9" d="M176.8,128.6c-3.1,1.9-9.3,9.1-12.8,20.2c-3.4,11-3.6,14.2-0.9,16.8c2.7,2.5,9.1,5.6,21.6,5.6
			s18.9-3,21.6-5.6c2.7-2.5,2.5-5.7-0.9-16.8s-9.6-18.3-12.7-20.2H176.8L176.8,128.6z"/>
		<path class="st10" d="M148.1,102.9c-4.1,1-8.2-2.1-9.3-5.1c-1.4-3.8-1-8.2,3.4-10.1c3.8-1.7,5.9,0.7,5.9,0.7
			S152.2,99.2,148.1,102.9L148.1,102.9z"/>
		<path class="st11" d="M140.7,93.5c0.1-2.3,1.8-4.3,5.3-3.7c2.5,0.5,3.4,3.9,3.4,3.9s1,5.7-1.6,6.7s-4.5-0.8-4.3-2.6
			c0.3-2.7,3.1-2.4,3.1-2.4s0.2-2.5-1.6-3.3C143.2,91.3,141.4,92.3,140.7,93.5z"/>
		<path class="st10" d="M221,102.9c4.1,1,8.2-2.1,9.3-5.1c1.4-3.8,1-8.2-3.4-10.1c-3.8-1.7-5.9,0.7-5.9,0.7S216.9,99.2,221,102.9
			L221,102.9z"/>
		<path class="st11" d="M228.4,93.5c-0.1-2.3-1.8-4.3-5.3-3.7c-2.5,0.5-3.4,3.9-3.4,3.9s-1,5.7,1.6,6.7s4.5-0.8,4.3-2.6
			c-0.3-2.7-3.1-2.4-3.1-2.4s-0.2-2.5,1.6-3.3C226,91.3,227.7,92.3,228.4,93.5z"/>
		<path class="st2" d="M184.6,134.5c6.9,0,7.8-3.5,7.8-3.4c0-3.5-0.2-3.5,0.2-6.1s2.5-1.9,11-4.6c8.4-2.6,18.4-11,17.8-20.8
			c-0.9-15.6,0.7-16.9-4.6-29.2c-5.8-13.6-20.2-17.8-32.1-17.8s-26.4,4.1-32.3,17.8c-5.3,12.2-3.7,13.5-4.6,29.2
			c-0.5,9.9,9.4,18.3,17.8,20.8c8.8,2.7,10.6,2,11,4.6s0.2,2.6,0.2,6.1C176.8,131.1,177.7,134.5,184.6,134.5L184.6,134.5z"/>
		<path class="st12" d="M221,89.4c-0.1-8-0.1-10.9-4.2-20.4c-5.8-13.6-20.3-17.7-32.2-17.7s-26.4,4.1-32.3,17.8
			c-4.1,9.5-4,12.4-4.2,20.6c0.5-2.4,3.6-13.6,9.4-18.8c9.7-8.8,22-6.6,26.9,0c4.9-6.6,17.1-8.8,26.9,0c6.5,5.8,9.6,19.2,9.6,19.2
			S220.9,89.8,221,89.4L221,89.4z"/>
		<path class="st12" d="M184.6,66.1c0,0-4.3,2.6-3.2,8.9c1.1,6.2,7.4,6.2,7.4,6.2L184.6,66.1L184.6,66.1z"/>
		<path class="st1" d="M216.3,63.2c-6.6-11.7-17.9-13.9-31.2-14l0,0c-0.2,0-0.3,0-0.4,0c-0.2,0-0.3,0-0.4,0l0,0
			c-13.5,0.1-24.8,2.3-31.4,14c-7.4,12.9-4.8,25.2-4.8,25.2s3.1-13.4,9.6-19.2c9.7-8.8,22-6.6,26.9,0c4.9-6.6,17.1-8.8,26.9,0
			c6.5,5.8,9.6,19.2,9.6,19.2S223.6,76.1,216.3,63.2L216.3,63.2z"/>
		<path class="st10" d="M166.7,103.4c0,3.2-3.4,5.9-7.6,5.9s-7.6-2.7-7.6-5.9s3.4-5.9,7.6-5.9S166.7,100.1,166.7,103.4z"/>
		<path class="st10" d="M202.4,103.4c0,3.2,3.4,5.9,7.6,5.9s7.6-2.7,7.6-5.9s-3.4-5.9-7.6-5.9S202.4,100.1,202.4,103.4z"/>
		<path class="st13" d="M210.9,93.1c0,4-3.3,7.3-7.3,7.3s-7.3-3.3-7.3-7.3s3.3-7.3,7.3-7.3S210.9,89.1,210.9,93.1z"/>
		<path class="st13" d="M158.2,93.1c0,4,3.3,7.3,7.3,7.3s7.3-3.3,7.3-7.3s-3.3-7.3-7.3-7.3S158.2,89.1,158.2,93.1z"/>
		<path class="st10" d="M181.8,102c0.6,0.4,6.1,0.1,6.6-1.2s-0.8-2.5-2.7-2.1C183.8,99.1,180.4,101.2,181.8,102L181.8,102z"/>
		<g>
			<path class="st14" d="M173.1,93.5c0,3.7-2.9,6.8-6.4,6.8s-6.4-3.1-6.4-6.8s2.8-6.8,6.4-6.8S173.2,89.8,173.1,93.5z"/>
			<path class="st13" d="M166.4,92.1c0-1.4,1.2-2.6,2.6-2.6c1.4,0,2.6,1.2,2.6,2.6s-1.2,2.6-2.6,2.6
				C167.6,94.7,166.4,93.5,166.4,92.1z"/>
			<path class="st15" d="M162.3,91.6c0.3-0.1,0.6-0.2,0.8-0.4c0.4-0.2,0.7-0.4,1-0.6c0.6-0.5,1.2-0.9,1.9-1.3c1.3-0.7,2.8-1,4.2-0.5
				c1,0.4,1.8,1.1,2.4,1.9c-0.1-1.6-0.8-3.1-1.9-4.2c-1.2-1.3-2.9-2.1-4.7-2.2c-4.5-0.2-6.1,4.5-10.4,4c-0.9-0.1-0.9,1.2-0.5,1.7
				c0.8,1.1,2,1.9,3.4,2.2c1.2,0.3,2.5,0.1,3.6-0.5C162.1,91.7,162.2,91.6,162.3,91.6L162.3,91.6z"/>
		</g>
		<g>
			<path class="st14" d="M196,93.5c0,3.7,2.9,6.8,6.4,6.8s6.4-3.1,6.4-6.8s-2.8-6.8-6.4-6.8S196,89.8,196,93.5z"/>
			<path class="st13" d="M202.7,92.1c0-1.4-1.2-2.6-2.6-2.6c-1.4,0-2.6,1.2-2.6,2.6s1.2,2.6,2.6,2.6S202.7,93.5,202.7,92.1z"/>
			<path class="st15" d="M206.8,91.6c-0.3-0.1-0.5-0.2-0.8-0.4c-0.4-0.2-0.7-0.4-1-0.6c-0.6-0.5-1.2-0.9-1.9-1.3
				c-1.3-0.7-2.8-1-4.2-0.5c-1,0.4-1.8,1.1-2.4,1.9c0.1-1.6,0.8-3.1,1.9-4.2c1.2-1.3,2.9-2.1,4.7-2.2c4.5-0.2,6.1,4.5,10.4,4
				c0.9-0.1,0.8,1.2,0.5,1.7c-0.8,1.1-2,1.9-3.4,2.2c-1.2,0.3-2.5,0.1-3.6-0.5C207,91.7,206.9,91.6,206.8,91.6L206.8,91.6z"/>
		</g>
		<path class="st16" d="M179.2,222.3c-5,1.9-9.3,1.8-12.9,0.2c0.9,2.4,1.7,4.2,2.4,5.2c1.2,2.2,7.5,2.5,9.9,0
			C178.8,226.9,179,224.9,179.2,222.3L179.2,222.3z"/>
		<path class="st16" d="M189.9,222.3c5.1,1.9,9.3,1.8,12.9,0.2c-0.9,2.4-1.7,4.2-2.4,5.2c-1.2,2.2-7.5,2.5-9.9,0
			C190.3,226.9,190.1,224.9,189.9,222.3L189.9,222.3z"/>
		<path class="st10" d="M171,209c0.1-0.2-0.1-0.5-0.3-0.8s-0.5-0.4-0.8-0.5c-0.5-0.2-1.1,0-1.5,0.4c-0.4,0.5-0.5,1.3-0.2,1.8
			s1,0.9,1.6,1.1c1,0.3,2.1,0.1,2.6-0.9c0.4-0.9,0.2-1.9-0.2-2.7c-0.6-1-1.7-1.8-2.9-1.6c-0.3,0-0.1,0.5,0.1,0.5
			c0.9-0.1,1.6,0.2,2.1,0.9c0.4,0.5,0.6,1.4,0.5,2s-0.6,1.1-1.3,1.2c-0.8,0.1-2.2-0.3-1.9-1.4c0.2-0.4,0.6-0.8,1.1-0.8
			c0.2,0,0.4,0.1,0.6,0.2S170.8,208.8,171,209C170.9,209.1,171,209,171,209L171,209L171,209z"/>
		<path class="st10" d="M198.3,209.1c0.2-0.2,0.2-0.5,0.4-0.8c0.2-0.1,0.4-0.2,0.6-0.2c0.4,0,0.8,0.2,1,0.5c0.6,1.1-0.8,1.8-1.7,1.8
			c-0.3,0-0.8-0.1-1-0.3s-0.3-0.4-0.4-0.7c-0.2-0.6,0-1.4,0.4-2c0.5-0.8,1.4-1.2,2.3-1.2c0.3,0,0.1-0.5-0.1-0.5
			c-2.1-0.3-3.8,2.1-3.1,4c0.3,1.1,1.3,1.5,2.4,1.4c0.7-0.1,1.3-0.4,1.7-0.9s0.3-1.2,0-1.8s-1-0.9-1.7-0.8c-0.7,0.1-1.1,0.8-0.9,1.4
			C198.2,209.1,198.2,209.2,198.3,209.1L198.3,209.1L198.3,209.1z"/>
		<path class="st17" d="M215.8,86.1c0.4,0,0.4-0.5,0.3-0.8c-0.1-3-1.5-5.6-3.8-7.6c-2.2-2-7-4.2-9.9-2.4c-1.4,0.8-1,2.6,0.2,3.3
			c0.7,0.4,1.3,0.7,2,0.9c0.9,0.2,1.8,0.5,2.6,0.8c3.1,1,5.7,3.1,7.9,5.6C215.3,85.9,215.4,86.1,215.8,86.1
			C215.6,86.1,215.7,86.2,215.8,86.1L215.8,86.1z"/>
		<path class="st17" d="M152.6,85c-0.3-0.1-0.3-0.5-0.3-0.9c0.3-3,1.8-5.5,4.2-7.4c2.4-1.8,7.2-3.8,10-1.9c1.4,0.9,0.9,2.7-0.4,3.3
			c-0.6,0.3-1.3,0.6-2,0.8c-0.9,0.2-1.8,0.4-2.7,0.7c-3.1,0.9-5.9,2.8-8.2,5.1C153.1,84.9,152.9,85.1,152.6,85
			C152.7,85.1,152.6,85.1,152.6,85L152.6,85z"/>
		<path class="st1" d="M158.2,44.6c0,0-4.8,1.3-5.5,7.6s5.4,8,5.4,8L158.2,44.6L158.2,44.6z"/>
		<path class="st1" d="M186.7,64.5c0,0-4.2,2.6-3.2,8.9c1.1,6.2,7.4,6.2,7.4,6.2L186.7,64.5L186.7,64.5z"/>
		<path class="st1" d="M145.7,49.2c0,0-2.1,4.4,2.2,9.1s9.6,1.2,9.6,1.2L145.7,49.2z"/>
		<path class="st12" d="M195.9,122.5c-3.1,0.8-16,1.1-22.4,0.1c2,0.5,2.7,1,2.9,2.4c0.2,1,0.3,1.6,0.3,2.2c2.1,0.6,4.7,1,7.9,1
			c3.5,0,5.9-0.4,7.6-1c0.1-0.6,0.1-1.2,0.3-2.2C192.8,123.5,193.6,123.1,195.9,122.5L195.9,122.5L195.9,122.5z"/>
		<path class="st18" d="M164.1,148.8c-3.4,11-3.6,14.3-1.1,16.8c2.7,2.5,9.1,5.6,21.6,5.6s18.9-3,21.6-5.6c2-1.9,2.4-4.2,1.1-9.7
			c0,0-0.8,6-8.6,8.1s-26.5,3.4-29.7-10.4s7.8-25,7.8-25C173.7,130.5,167.5,137.7,164.1,148.8L164.1,148.8z"/>
		<path class="st19" d="M175.1,111.6c0,0,9.8-4.3,19.3,0.2"/>
	</g>
	<g>
		<path class="st20" d="M52.8,26.7c-8.9-5.5-29,6.5-19,11.7C54.5,49.1,76,65.5,86.3,83.5c2.3,4.1,5.4,10.7,2.6-4.4
			C85.2,59.2,59.1,30.6,52.8,26.7L52.8,26.7z"/>
		<path class="st20" d="M94.8,43.2c6.1-8.4-4.6-29.3-10.4-19.8c-12.1,20-29.8,40.3-48.5,49.4c-4.2,2-11,4.7,4.2,2.9
			C60.2,73.4,90.5,49.2,94.8,43.2L94.8,43.2z"/>
	</g>
	<path class="st0" d="M91.9,95c16.2,4.1,32.5,8.2,48.8,12.3c-3.2-4-7.1-7.8-10.9-11.5c-6.8-6.7-13.6-13.3-20.4-19.9
		c-3.7,6.2-8.5,11.9-14.2,16.9"/>
</g>
</svg>
