<?xml version="1.0" encoding="UTF-8"?>
<svg id="Layer_2" data-name="Layer 2" xmlns="http://www.w3.org/2000/svg" viewBox="0 0 458.5 109.94">
  <defs>
    <style>
      .cls-1 {
        fill: #439cbf;
      }

      .cls-2 {
        fill: #f4912e;
      }
    </style>
  </defs>
  <g id="Layer_1-2" data-name="Layer 1">
    <path class="cls-1" d="m19.25,109.94c.12-4.37.73-8.68,1.41-13,.5-3.13,1.21-6.2,1.92-9.26.96-4.14,2.26-8.2,3.7-12.21,2.43-6.79,5.34-13.36,8.71-19.73.04-.07.07-.15.1-.22,1.11-2.12,1.15-2.19-1.06-3.47-3.43-1.98-5.55-5.03-6.71-8.63-1.24-3.82-.66-7.62,1.01-11.31,3.81-8.44,7.95-16.73,11.9-25.11,1.09-2.33,2.18-4.66,3.27-6.98.75,0,1.5,0,2.25,0,.04.7.63.68,1.07.78,6.82,1.44,9.6,6.36,10.95,12.58.23,1.05.15,2.12.42,3.17.21.82-.24,1.26-1.06,1.53-2.45.81-4.88,1.7-6.95,3.3-2.87,2.21-5.07,4.89-5.8,8.56-.04.2-.11.4-.13.6-.02.37,0,.74,0,1.13.73.06,1-.45,1.33-.85,3.84-4.78,8.9-7.6,14.8-8.85,4.14-.88,8.35-1.09,12.56-.23,2.43.5,2.45.47,1.37,2.63-3.5,6.99-7.02,13.97-10.51,20.96-3.04,6.07-8.31,9.04-14.69,10.09-2.38.39-4.96.5-7.4-.34-.8-.28-1.47-.09-1.85.91-1.04,2.72-2.83,5.06-4.09,7.67-2.64,5.44-4.79,11.09-6.72,16.81-.94,2.77-1.6,5.62-2.38,8.44-.01.04.09.12.17.22.33-.09.49-.38.64-.66,2.14-3.88,5.31-6.78,8.87-9.31,4.7-3.34,10.09-5.14,15.57-6.6,5.06-1.34,10.28-1.98,15.44-2.85,2.91-.49,5.81-1.28,8.27-3.11.15-.11.35-.17.67-.32-.61,2.44-1.89,4.38-3.24,6.24-4.47,6.18-10.16,10.8-17.37,13.51-4.5,1.69-9.14,2.84-13.85,3.72-4.17.78-8.34,1.5-12.47,2.46-2.91.67-4.15,2.51-4.34,5.22-.11,1.54-.29,3.1-.44,4.62-.16,1.61-.4,3.29-.7,4.93-.15.81-.68,1.13-1.33,1.46-.95.49-2.18.5-2.81,1.56h-.5Z"/>
    <path class="cls-1" d="m0,42.23c.49,1.83.61,3.66,0,5.5v-5.5Z"/>
    <path class="cls-2" d="m273.82,79.26c1.53,0,3,.03,4.46-.01.71-.02.99.21.94.91-.12,1.69-.21,3.39-.32,5.08-.01.16-.16.31-.15.46.12,2.07-.03,2.3-2.21,2.23-3.27-.11-6.55-.32-9.82-.2-2.21.08-4.44-.26-6.64.21-.36.08-.75.03-1.12,0-1.48-.14-1.63-.49-1.42-1.98.25-1.75.36-3.53.4-5.3.02-1.03.41-1.46,1.4-1.42.04,0,.08,0,.12,0,3.24-.05,3.14-.06,3.28-3.35.1-2.46.53-4.9.74-7.36.28-3.14.42-6.3.75-9.43.38-3.61.43-7.25.93-10.86.32-2.31.76-4.65.53-7.02-.07-.69.31-1.28.3-1.95,0-.72-.2-1.08-.99-1.04-1.08.06-2.17,0-3.25.06-.82.05-1.1-.26-1.09-1.07.03-2.26.34-4.5.5-6.75.04-.55.47-.52.81-.52,1.08-.03,2.17-.02,3.25-.02,6.12.01,12.25-.06,18.37.08,2.91.06,5.82.38,8.68,1.03,4.8,1.09,7.86,4.16,9.46,8.6,1.04,2.89,1.19,5.95.83,9.1-.22,1.92-.82,3.65-1.4,5.41-.38,1.14-1.09,2.2-1.8,3.2-2.52,3.52-6.05,5.47-10.18,6.66-4.26,1.23-8.58,1.24-12.92,1.16-1.04-.02-1.24.29-1.36,1.3-.38,3.33-.25,6.71-.93,10.02-.17.84.12,1.73-.18,2.76Zm6.17-22.55c1,0,2.01.09,3-.02,2.44-.26,4.58-1.22,6.31-2.98,2.48-2.53,2.65-5.72,2.39-8.96-.23-2.85-1.91-4.62-4.48-5.51-2.85-.99-5.76-1.04-8.71-1.02-.65,0-.88.25-1.09.89-.32.98-.17,1.97-.32,2.94-.39,2.55-.5,5.15-.83,7.72-.27,2.09-.21,4.22-.32,6.34-.03.53.23.61.68.6,1.12-.02,2.25,0,3.37,0Z"/>
    <path class="cls-2" d="m332.24,71.54c-.44.43-.62.9-.78,1.43-1.64,5.29-4.01,10.17-8.78,13.35-4.39,2.92-9.65,3.28-14.19.44-2.59-1.62-3.86-4.24-4.68-7.01-.75-2.52-1.24-5.16-1.07-7.82.28-4.48.66-9,2.53-13.14,3.15-6.98,8.04-12.07,15.74-14.14,5.21-1.4,10.28-1.04,15.39.27,1.97.51,3.97.72,6,.58.97-.07,1.15.25.98,1.26-.48,2.86-1.17,5.67-1.17,8.62,0,2.79-.59,5.57-.67,8.37-.06,2.12-.48,4.19-.54,6.3-.09,2.71-.31,5.43-.74,8.11-.14.86.1,1.36,1.11,1.3,1.04-.06,2.08.03,3.12-.03.9-.05,1.21.45.97,1.14-.69,1.98-.4,4.01-.46,6.02-.02.76-.24,1.13-1.09,1.12-4.5-.03-8.99-.02-13.49,0-.54,0-.71-.1-.63-.7.36-2.65.62-5.3.98-7.95.15-1.14.36-2.29.72-3.37.45-1.35.53-2.74.77-4.17Zm-18.04-1.12c.05,2.23.08,3.86.69,5.52,1,2.72,2.47,3.49,4.99,2.07,2.58-1.45,4.38-3.75,5.8-6.22,3.08-5.35,4.95-11.14,5.51-17.31.14-1.56-.21-1.86-1.75-2.01-.33-.03-.65-.07-.98-.11-3.38-.37-6.41.38-8.8,2.95-2.53,2.74-4.09,5.95-4.75,9.65-.36,1.99-.88,3.95-.73,5.45Z"/>
    <path class="cls-1" d="m115.2,29.91c5.66,0,11.33.01,16.99-.01.8,0,1.13,0,1.11,1.07-.03,2.17-.58,4.27-.56,6.42.01,2.19-.36,4.34-.5,6.52-.03.43-.22.58-.63.58-1.75,0-3.5,0-5.25,0-.87,0-.87-.66-.86-1.22.04-1.57.19-3.13.23-4.7.04-1.91.01-1.92-1.89-1.92-4.12.02-8.25.05-12.37.07-1.64,0-2.14.33-2.19,1.94-.08,2.56-.54,5.08-.58,7.65-.03,2.13-.54,4.24-.46,6.4.06,1.67.65,2.08,2.36,1.93,1.82-.16,3.66-.1,5.49-.11,2.37-.01,4.75.04,7.12-.02,1.05-.03,1.49.36,1.28,1.37-.31,1.52-.25,3.05-.23,4.58.01.84-.53.77-1.09.77-4.71,0-9.41.03-14.12-.04-1.14-.02-1.51.33-1.57,1.47-.17,3.21-.34,6.44-.77,9.62-.32,2.37-.29,4.76-.69,7.12-.25,1.48-.11,1.56,1.35,1.56,4.79,0,9.58,0,14.37,0,1.75,0,1.83-.07,2-1.82.17-1.8.36-3.59.49-5.39.05-.61.36-.79.88-.79,1.83,0,3.67-.01,5.5,0,.55,0,.81.12.72.89-.36,3.15-.6,6.32-.83,9.49-.08,1.14-.43,2.24-.18,3.44.09.45-.44.98-1.26.97-9.45-.05-18.91,0-28.36-.06-2.21-.01-4.39.24-6.59.28-.99.02-1.44-.23-1.39-1.33.08-1.65.49-3.28.28-4.95-.08-.65.31-.76.84-.75,1.04.01,2.08-.03,3.12.01.75.03,1.1-.26,1.03-1.02-.27-2.93.18-5.86.5-8.73.4-3.65.5-7.33.95-10.98.32-2.6.44-5.25.63-7.88.19-2.58.36-5.16.64-7.74.14-1.3.49-2.61.29-3.94-.15-1.05.25-2.04.27-3.08.01-.69-.21-.98-.92-.96-1.25.04-2.5.02-3.75.04-.77.02-.98-.41-.8-1.04.41-1.52.23-3.1.4-4.65.1-.87.39-1.18,1.15-1.2,1.5-.03,3-.03,4.5-.03,4.46,0,8.91,0,13.37,0v.14Z"/>
    <path class="cls-2" d="m457.96,51.85c0,1.46,0,2.92,0,4.37,0,.96-.24,1.59-1.47,1.54-2.2-.1-4.42-.09-6.62-.01-1.02.03-1.31-.48-1.4-1.31-.03-.29,0-.58,0-.87,0-2.4.02-2.52-2.29-2.96-2.55-.49-5.13-.65-7.66.34-1.27.5-2.06,1.31-2.28,2.62-.26,1.56.3,2.69,1.78,3.45,2.64,1.36,5.52,1.93,8.34,2.69,2.76.74,5.43,1.66,7.91,3.16,3.61,2.19,4.68,6.5,4.11,10.11-.18,1.14-.09,2.3-.47,3.44-1.75,5.26-5.66,7.91-10.77,9.3-3.24.89-6.53,1.15-9.84.91-2.65-.19-5.31-.43-7.95-1-1.65-.35-3.25-1.02-4.99-1.06-.43,0-1.19-.41-.92-1.26.48-1.5.33-3.05.27-4.57-.08-1.91.29-3.8.24-5.7-.01-.58.29-.71.76-.71,2.92,0,5.83,0,8.75-.04.59,0,.64.31.51.7-.28.78-.37,1.51.14,2.24.06.09.12.27.07.33-1.09,1.44.19,1.51,1.04,1.82,3,1.08,6.04,1.22,9.09.29,2.53-.77,3.96-3.23,3.15-5.47-.6-1.68-2.15-2.28-3.68-2.68-3.83-.99-7.68-1.86-11.39-3.29-4.54-1.75-7.35-6.08-7.13-10.78.26-5.49,3.2-10.02,8.75-12.01,3.49-1.25,7.08-1.86,10.76-1.69,3.72.17,7.39.72,10.96,1.83,2.25.7,2.27.65,2.28,3.02,0,1.08,0,2.17,0,3.25-.01,0-.02,0-.03,0Z"/>
    <path class="cls-1" d="m167.24,70.62c-.87,2.04-1.71,4.1-2.63,6.12-1.38,3.01-3.13,5.78-5.59,8.04-2.92,2.69-6.43,3.72-10.33,3.39-2.79-.24-5.62-2.95-6.42-5.91-.92-3.44-.8-6.9-.33-10.39.29-2.16.39-4.35.59-6.53.16-1.76.34-3.51.51-5.27.22-2.2.54-4.4.64-6.61.03-.63.85-1.45-.02-1.9-.53-.27-1.3-.07-1.97-.07q-2.97,0-2.93-2.96c.05-3.61.05-3.59,3.69-3.61,3.21-.02,6.41-.09,9.62-.16,1.08-.02,1.44.14,1.25,1.49-.44,3.22-.96,6.43-1.41,9.65-.53,3.77-.76,7.58-1.59,11.33-.69,3.13-.78,6.4-.54,9.62.1,1.35.71,2.69,2.06,3.36,1.38.68,2.61.09,3.7-.75,2.79-2.13,4.63-5.02,6.06-8.13,2.73-5.91,4.57-12.14,5.85-18.52.48-2.4.61-4.88,1.23-7.27.16-.63.39-.8.99-.79,2,.03,4,.03,6,0,.68,0,.89.26.8.9-.3,2.08-.71,4.14-.87,6.23-.25,3.4-1.19,6.75-.74,10.23.1.78-.33,1.72-.43,2.62-.22,2.13-.3,4.28-.52,6.39-.18,1.72-.13,3.45-.35,5.17-.17,1.33-.31,2.71-.38,4.08-.03.68.23.98.86.78,1.31-.41,2.65-.08,3.96-.2.32-.03.73-.05.65.48-.25,1.84-.47,3.68-.44,5.54,0,.63-.37.74-.89.74-3.75-.01-7.5-.03-11.25-.01-.76,0-.93-.33-.87-.99.26-3.21.59-6.42,1.14-9.59.38-2.15.75-4.29,1.12-6.44-.08-.02-.16-.05-.24-.07Z"/>
    <path class="cls-1" d="m251.74,63.41c-.13,4.76-.78,9.39-2.63,13.86-1.75,4.22-4.53,7.44-8.49,9.53-2.77,1.46-5.88,2.01-9.02,1.83-3.29-.19-6.47-.86-9.12-3.06-2.86-2.36-4.67-5.39-5.45-8.95-.65-2.98-.87-6.04-.79-9.11.1-4.06,1.09-7.89,2.72-11.55,1.39-3.12,3.19-5.9,5.91-8.16,2.07-1.72,4.44-2.5,6.84-3.29,2.72-.89,5.59-.67,8.25.03,4.08,1.08,7.41,3.39,9.33,7.36,1.76,3.63,2.63,7.45,2.44,11.51Zm-8.69-1.84c-.16-2.38-.41-4.04-1.08-5.63-2.29-5.39-7.89-5.92-11.78-3.02-3.67,2.73-4.66,6.95-5.15,11.22-.25,2.14.01,4.33-.09,6.49-.13,2.82.55,5.39,2.04,7.78,1.05,1.68,2.59,2.76,4.47,3,2.42.31,4.67-.43,6.53-2.07,2.65-2.35,3.78-5.51,4.46-8.84.64-3.17,1.1-6.36.61-8.92Z"/>
    <path class="cls-2" d="m417.95,76.84c.17,2.78-.49,5.51-.52,8.27,0,.57-.38.87-.88,1.08-4.26,1.81-8.62,2.77-13.3,2.33-2.53-.23-4.97-.7-7.32-1.6-1.89-.73-3.43-2.02-4.8-3.5-2.72-2.94-4.08-6.48-4.67-10.4-.41-2.7-.32-5.4-.16-8.08.14-2.4,1-4.72,1.76-7.01,1.66-5.03,4.78-8.96,9.4-11.47,2.67-1.45,5.68-2.11,8.74-2.55,2.63-.37,5.2.03,7.78.13,2.05.08,4.08.8,6.1,1.29.52.13.4.66.4,1.07.02,2.36-.68,4.67-.47,7.03.12,1.4-.06,2.74-.26,4.1-.09.61-.34.77-.87.77-2.46,0-4.92-.02-7.37,0-.72,0-.79-.38-.81-.95-.04-1.36.08-2.71-.15-4.09-.09-.55-.09-.72-.63-.84-2.22-.49-4.26-.08-6.19,1.09-2.92,1.78-4.63,4.51-5.54,7.66-1.08,3.72-1.19,7.59,0,11.29,1.17,3.6,3.59,5.93,7.6,6.5,3.86.55,7.42-.12,10.88-1.78.4-.19.79-.47,1.3-.36Z"/>
    <path class="cls-2" d="m367.21,59.87c.54-.36.59-.86.69-1.35.75-3.74,2.27-7.14,4.73-10.06,1.92-2.28,4.45-3.53,7.4-4.02,1.49-.25,2.97-.18,4.45-.22.89-.03,1.24.05,1.08,1.25-.31,2.36-.73,4.69-1.04,7.05-.09.69-.4,1.33-.32,2.05.04.41-.17.63-.71.55-3.17-.48-5.88.49-8.11,2.77-2.64,2.69-4.26,5.98-5.4,9.52-.93,2.9-1.71,5.87-2.13,8.88-.48,3.42-1.37,6.78-1.61,10.24-.08,1.12-.46,1.56-1.76,1.47-2.65-.18-5.33-.05-7.99-.06-1.18,0-1.69-.65-1.32-1.77.61-1.9.63-3.88.79-5.82.3-3.62.4-7.26.63-10.88.22-3.43.37-6.89.84-10.32.24-1.76.15-3.58.01-5.36-.07-.91-1.1-.81-1.79-.87-.78-.06-1.58-.03-2.36.06-.93.1-1.13-.29-1.06-1.14.2-2.19.37-4.39.48-6.59.06-1.22,1.14-.88,1.56-.85,4.36.3,8.72.04,13.08.1,1.62.02,1.32.17,1.5,1.64.29,2.43-.84,4.56-.9,6.89-.05,1.93-.48,3.86-.76,5.79-.05.32-.23.63.04,1.05Z"/>
    <path class="cls-1" d="m197.31,60.68c.84-1.56,1.31-3.18,1.79-4.8,1.12-3.75,2.78-7.19,5.98-9.68,2.76-2.14,5.86-2.62,9.22-1.97.6.12.42.53.43.86.08,1.66-.46,3.24-.65,4.87-.1.83.39,1.98-.37,2.44-.59.36-1.56-.21-2.4-.18-3.03.13-5.07,1.93-6.75,4.13-2.24,2.94-3.58,6.34-4.64,9.89-1.27,4.27-1.77,8.68-2.62,13.02-.44,2.25-.56,4.58-.59,6.89-.02,1.5-.19,1.61-1.69,1.6-1.96-.02-3.91-.05-5.87-.02-.79.01-.95-.19-.84-1.01.4-2.85,1.01-5.71.92-8.59-.07-2.34.36-4.6.58-6.89.15-1.6.44-3.21.39-4.81-.09-2.91.29-5.79.33-8.69.02-1.75.47-3.49.48-5.27,0-.74-.18-1.04-.98-.99-1.2.07-2.41,0-3.62.04-.66.02-.97-.12-.96-.89.03-1.68.12-3.35.26-5.03.04-.5.22-.65.66-.66,3.95-.05,7.91-.11,11.86-.16.59,0,.85.25.77.84-.09.7-.21,1.39-.27,2.09-.25,2.74-.46,5.49-.75,8.24-.17,1.59-.45,3.17-.68,4.75Z"/>
    <path class="cls-1" d="m1.84,35.72c1.68,5.42,5.91,8.94,9.31,13.08,1.5,1.82,3.15,3.52,4.51,5.47,2.54,3.64,4.79,7.43,5.96,11.73,1.15,4.28,1.87,8.62,1.15,13.09-.3,1.9-.57,3.79-1.07,5.64-.04.15-.18.26-.36.53-.53-1-.63-2.03-1.1-2.94-1.66-3.19-4.27-5.62-6.57-8.28-3.38-3.9-6.81-7.74-9.22-12.37-1.45-2.79-2.67-5.64-3.42-8.69-.11-.43,0-.91-.02-1.37-.21-4.06-.03-8.13-.18-12.2-.04-1.15-.03-2.55,1.01-3.69Z"/>
  </g>
</svg>