<?xml version="1.0" encoding="utf-8"?>
<!-- Generator: Adobe Illustrator 28.2.0, SVG Export Plug-In . SVG Version: 6.00 Build 0)  -->
<svg version="1.1" id="Ebene_2_00000082329757746118593070000007824544333983566209_"
	 xmlns="http://www.w3.org/2000/svg" xmlns:xlink="http://www.w3.org/1999/xlink" x="0px" y="0px" viewBox="0 0 155.33 158.73"
	 style="enable-background:new 0 0 155.33 158.73;" xml:space="preserve">
<style type="text/css">
	.st0{fill:#3F3123;}
	.st1{fill:#68543C;}
	.st2{fill:#7C674A;}
	.st3{fill:#E5B97F;}
	.st4{fill:#FCBBA7;}
	.st5{fill:#F0E5D5;}
	.st6{fill:#F2DBB1;}
	.st7{fill:#E3B7AB;}
	.st8{fill:#E7C28D;}
	.st9{fill:#FFFFFF;}
</style>
<g id="Ebene_1-2">
	<g>
		<g>
			<g>
				<path class="st0" d="M12.43,148.41c0,2.7,3.1,6.4,41,0.8c-29.8,0-35-4-35-4S12.43,145.51,12.43,148.41z"/>
				<path class="st1" d="M52.43,103.51l-5.9-3.4c0,0-20.3-2.1-30.1,15.6c-9.9,17.7,2.1,29.6,2.1,29.6s5.1,4,35,4
					c1.8-0.3,3.6-0.5,5.6-0.8c0.3-0.3,0.6-0.7,0.9-1C72.13,134.01,68.13,112.51,52.43,103.51z"/>
			</g>
			<g>
				<path class="st2" d="M90.43,116.51c18.1,6.5,29.8,15,36.9,22c2.2-5.2,3.1-11.5,2.4-18.1c-15.9-9.6-31.7-11.7-40.2-12.1
					C90.13,111.31,90.43,114.11,90.43,116.51z"/>
				<path class="st2" d="M128.53,78.91c0.5-1.1,1-2.1,1.5-3.1c-11.1-8.3-22.7-12-31.1-13.7c-3.2,4.1-5.7,9-7.5,14.1
					C107.63,73.61,119.93,75.71,128.53,78.91z"/>
				<path class="st2" d="M88.63,87.81c-0.5,3.4-0.7,6.8-0.6,9.9c16.5-0.6,29,2.3,38.3,6.2c-0.7-4.3-0.9-8.5-0.6-12.4
					C111.13,86.61,97.63,86.81,88.63,87.81z"/>
				<path class="st2" d="M128.83,50.41c-7-1-14-0.3-19.5,2.7l-0.6,0.3c14.2,3,23.3,8.9,29,14c1.7-1.1,3.5-1.9,5.5-2.6
					C138.53,58.81,133.43,54.01,128.83,50.41L128.83,50.41z"/>
				<path class="st2" d="M89.43,126.11c-1.9,6.5-5.7,8.1-5.7,8.1l3.3,8l3.3,8.1c10.4,4.1,19.1,3.8,25.7,0.6
					C105.53,138.11,96.13,130.51,89.43,126.11L89.43,126.11z"/>
				<path class="st0" d="M89.43,126.11c6.8,4.5,16.1,12.1,26.6,24.7c5.2-2.5,9-6.9,11.3-12.3c-7.1-6.9-18.8-15.4-36.9-22
					C90.63,120.51,90.13,123.61,89.43,126.11z"/>
				<path class="st0" d="M88.13,97.71c0.1,2.7,0.4,5.2,0.9,7.5c0.2,1,0.4,2,0.6,3c8.4,0.4,24.3,2.6,40.2,12.1
					c-0.3-2.7-0.8-5.4-1.6-8.1c-0.8-2.8-1.4-5.5-1.8-8.2C117.13,100.01,104.63,97.11,88.13,97.71z"/>
				<path class="st0" d="M91.53,76.11c-1.3,3.8-2.3,7.8-2.8,11.7c9-1,22.4-1.2,37.1,3.7c0.3-4.6,1.2-8.8,2.8-12.6
					C119.93,75.71,107.63,73.61,91.53,76.11z"/>
				<path class="st0" d="M99.03,62.11c8.4,1.7,20,5.4,31.1,13.7c1.9-3.4,4.5-6.3,7.7-8.3c-5.6-5.1-14.8-11-29-14
					C104.93,55.61,101.73,58.61,99.03,62.11z"/>
				<path class="st0" d="M141.53,86.31c0-0.1,0.1-0.2,0.1-0.3c-0.4-0.3-0.8-0.6-1.3-1C140.73,85.41,141.13,85.81,141.53,86.31z"/>
				<path class="st0" d="M143.33,64.91c3.5-1.1,7.5-1.5,12-0.9c-4.9-6.7-15.7-12.1-26.5-13.6
					C133.43,54.01,138.53,58.81,143.33,64.91z"/>
			</g>
			<g>
				<path class="st3" d="M63.53,116.31c-11.8-26.3-5.4-50.2-1.2-61c-1.8-1.2-3.8-2.2-5.9-2.8l0,0c-11.8-3.8-24.7,2-29.4,13.5
					c-13.3,32.7,3.8,72.7,40.8,83.6c0.2,0.1,0.4,0.1,0.6,0.2c9.7,2.8,19.3-0.9,24.8-8.1C83.63,140.41,71.83,134.81,63.53,116.31
					L63.53,116.31z"/>
				<path class="st2" d="M97.83,125.31c-0.6-6.4-2.8-12.2-7-17.7c-8.7-11.2-15.1-24.1-18.3-37.7c-1.4-6.1-5.1-11.3-10.1-14.6
					c-4.2,10.8-10.7,34.7,1.2,61c8.3,18.5,20.2,24.1,29.7,25.3C96.53,137.21,98.43,131.51,97.83,125.31z"/>
			</g>
			<path class="st0" d="M67.73,69.61c-3.5-1.6-7.7-0.5-9.1,3.1c-2.9,7.3-7.4,28.1-14.7,34.3c-9.4,7.9-15.2,6.1-15.2,9.8
				s4.1,4.3,11.1,2.7c7-1.6,21.7-11.1,31.5-35.9C73.33,78.71,74.13,72.41,67.73,69.61z"/>
			<path class="st0" d="M27.03,65.91c0,0-8.8,0.3-10.7,13.5c-1.9,13.2-0.7,38.9,16.2,40.8c2.3-2.3,0-6.7,0-6.7s-6.4-3-9.6-16.4
				C19.63,83.71,27.03,65.91,27.03,65.91z"/>
			<g>
				<g>
					<path class="st0" d="M5.13,15.51c4.3-2.5,20.5,10.2,22.3,11.6c1.6-2.2,2.3-3.9,2.3-3.9s-22.2-17.4-28-12.5
						c-5.7,4.8,4.5,26.1,4.5,26.1c1.6,0.1,3.1,0.1,4.4,0C9.63,34.61,0.83,18.01,5.13,15.51z"/>
					<path class="st4" d="M27.53,27.11c-1.8-1.5-18-14.1-22.3-11.6s4.4,19.2,5.6,21.3C19.63,36.01,24.83,30.81,27.53,27.11z"/>
				</g>
				<g>
					<path class="st0" d="M68.63,5.81c-4.8-1.3-17.2,15.1-18.6,17c-2.1-1.7-3.2-3.2-3.2-3.2s17-22.5,23.8-19.3s2.3,26.4,2.3,26.4
						c-1.5,0.5-2.9,0.9-4.3,1.1C69.23,25.51,73.43,7.11,68.63,5.81z"/>
					<path class="st4" d="M49.93,22.81c1.4-1.9,13.8-18.3,18.6-17s0.6,19.7,0,22C59.83,29.31,53.53,25.71,49.93,22.81z"/>
				</g>
				<path class="st2" d="M4.93,63.11c0,0-10.2-47.5,30.4-54.8c40.5-7.3,47.6,40.7,47.6,40.7L4.93,63.11z"/>
				<g>
					<path class="st5" d="M72.73,31.61c-15.5-15.3-22.8-7.2-25.9,3.1c-2.3,7.7-3.4,18.3-3.4,18.3s-4.3-10.3-8.5-15.9
						c-6.5-8.6-15.4-14.2-26.2,4.7c-9.5,16.6-6.9,19.8-3.9,21.3c0.9,0.5,7.8,2.7,8.8,2.9c12.9,2.6,30.8-11,30.8-11
						c6.6,1,16,8.2,25.7,3.3c0.9-0.5,10.3-5.4,13.2-8.2C85.73,47.71,86.33,45.01,72.73,31.61z"/>
					<path class="st6" d="M44.43,55.01c0,0.1,0.1,0.1,0.1,0.2C44.53,55.11,44.43,55.01,44.43,55.01z"/>
					<path class="st6" d="M44.53,55.21C44.63,55.21,44.63,55.31,44.53,55.21L44.53,55.21z"/>
				</g>
				<g>
					<path class="st7" d="M83.33,50.01C83.33,50.21,83.43,50.01,83.33,50.01L83.33,50.01z"/>
					<path class="st8" d="M55.93,27.11c-7,1.9-12.3,27.4-12.3,27.4s-13.4-27.6-24.7-19.5c-5.4,3.9-14.9,22-14,28.2
						c12.3,4.8,25.8,6.5,38.8,4.1c1.4-0.3,2.8-0.5,4.2-0.8c13-2.3,25.5-7.6,35.4-16.4C80.93,43.91,65.53,24.51,55.93,27.11z"/>
				</g>
				<path class="st2" d="M49.73,44.81c0,0-0.8-10.1,6.6-12c7.3-1.9,13.7,4.6,13.7,4.6S58.83,46.01,49.73,44.81z"/>
				<path class="st2" d="M35.03,47.11c0,0-2.8-9.8-10.3-9c-7.5,0.7-11.3,9-11.3,9S26.93,51.31,35.03,47.11z"/>
				<g>
					<path class="st0" d="M23.83,45.71c0.3,1.9,2.1,3.2,4,2.9s3.2-2.1,2.9-4c-0.3-1.9-2.1-3.2-4-2.9S23.53,43.81,23.83,45.71z"/>
					<path class="st0" d="M52.33,41.01c0.3,1.9,2.1,3.2,4,2.9s3.2-2.1,2.9-4s-2.1-3.2-4-2.9S51.93,39.11,52.33,41.01z"/>
					<path class="st0" d="M44.03,54.21c0,0-12.6-4.4-1.1-6.3C54.43,46.01,44.03,54.21,44.03,54.21z"/>
					<g>
						<path class="st0" d="M42.03,57.91c0.5-0.3,0.8-0.6,1.1-0.9c0.3-0.3,0.4-0.7,0.5-1.1c0-0.2,0.1-0.4,0.1-0.7v-0.7
							c0-0.5,0-1,0.1-1.6c0.3,0.5,0.5,1,0.6,1.4c0,0.1,0.1,0.2,0.1,0.4s0.1,0.3,0.1,0.4v0.9c-0.1,0.6-0.4,1.2-0.9,1.5
							C43.13,57.91,42.53,58.11,42.03,57.91L42.03,57.91z"/>
						<path class="st0" d="M47.13,57.11c-0.5,0.3-1.1,0.4-1.7,0.2c-0.6-0.2-1.1-0.6-1.4-1.1c-0.1-0.3-0.2-0.5-0.3-0.8
							c0-0.1-0.1-0.3-0.1-0.4v-0.4c0-0.5,0-1,0.1-1.6c0.3,0.5,0.5,1,0.6,1.4c0,0.1,0.1,0.2,0.1,0.4c0,0.1,0.1,0.2,0.1,0.3
							c0.1,0.2,0.2,0.4,0.3,0.6c0.2,0.4,0.5,0.7,0.8,0.9C46.13,56.81,46.53,57.01,47.13,57.11z"/>
					</g>
					<path class="st4" d="M17.53,54.31c0.3,1.9,3,3.1,6.1,2.6c3-0.5,5.2-2.5,4.9-4.4c-0.3-1.9-3-3.1-6.1-2.6
						C19.43,50.41,17.23,52.41,17.53,54.31z"/>
					
						<ellipse transform="matrix(0.9864 -0.1644 0.1644 0.9864 -6.843 10.9128)" class="st4" cx="62.52" cy="46.81" rx="5.6" ry="3.5"/>
					<path class="st0" d="M51.93,38.71c0.6-1.2,1.9-2,3.3-2.2c0.7-0.1,1.4-0.1,2.1,0c0.3,0.1,0.7,0.2,1,0.3s0.6,0.3,0.9,0.4
						l-0.4,0.1l1.2-1.2c-0.2,0.5-0.5,1.1-0.7,1.6c-0.1,0.1-0.2,0.2-0.3,0.1h-0.1c-0.6-0.1-1.2-0.3-1.8-0.3c-0.6-0.1-1.2-0.1-1.8,0
						C54.23,37.61,53.03,38.01,51.93,38.71z"/>
					<path class="st0" d="M30.43,42.31c-1.3-0.3-2.5-0.3-3.7-0.1c-0.6,0.1-1.1,0.3-1.7,0.6c-0.6,0.2-1.1,0.6-1.6,0.9h-0.1
						c-0.1,0.1-0.2,0-0.3,0l-1.2-1.2c0.5,0.2,1.1,0.5,1.6,0.7h-0.4l0.7-0.7c0.3-0.2,0.5-0.4,0.8-0.6c0.6-0.3,1.3-0.6,1.9-0.7
						C27.93,41.11,29.43,41.41,30.43,42.31z"/>
				</g>
			</g>
			<g>
				<path class="st0" d="M41.53,155.01c0,2.7,3.1,6.4,41,0.8c-29.8,0-35-4-35-4S41.53,152.11,41.53,155.01z"/>
				<path class="st2" d="M81.43,110.01l-5.9-3.4c0,0-20.3-2.1-30.1,15.6s2.1,29.6,2.1,29.6s5.1,4,35,4c1.8-0.3,3.6-0.5,5.6-0.8
					c0.3-0.3,0.6-0.7,0.9-1C101.13,140.51,97.23,119.11,81.43,110.01z"/>
			</g>
			<g>
				<path class="st1" d="M86.43,109.91c0.5,1.4,0.7,3.5,2.1,4.2c0.3,0.1,1-0.1,0.9-0.5c-0.1-0.8-0.5-1.4-0.7-2.2
					c-0.2-0.7-0.3-1.4-0.6-2.1c-0.2-0.6-0.4-1.1-0.7-1.6c-0.3-0.6-0.2-1.3-0.8-1.7c-0.3-0.2-0.8-0.1-1,0.2
					C85.03,107.31,86.03,108.91,86.43,109.91z"/>
				<path class="st1" d="M41.43,29.01c0-1.3-0.1-2.6-0.2-4c0-1.2,0.2-2.7-0.3-3.9c-0.2-0.4-0.9-0.6-1.1-0.1
					c-0.5,1.2-0.3,2.7-0.3,4.1c0,1.3,0.1,2.7,0.4,3.9C40.03,29.71,41.33,29.81,41.43,29.01z"/>
				<path class="st1" d="M34.03,29.91c0.2,0.4,1.1,0.6,1.3,0.1c0.4-0.9,0.3-1.8,0.2-2.8c-0.1-1.3-0.2-2.6-0.6-3.8
					c-0.1-0.4-1-0.6-1.1-0.1c-0.3,1.2-0.3,2.4-0.2,3.7C33.73,27.81,33.53,29.01,34.03,29.91z"/>
				<path class="st1" d="M28.13,24.51c0.2,0.4,1.1,0.6,1.3,0.1c0.4-0.9,0.3-1.8,0.2-2.8c-0.1-1.3-0.2-2.6-0.6-3.8
					c-0.1-0.4-1-0.6-1.1-0.1c-0.3,1.2-0.3,2.4-0.2,3.7C27.83,22.51,27.63,23.71,28.13,24.51z"/>
				<path class="st1" d="M92.33,131.01c0.1,0.5,0.8,0.9,1.2,0.5c0.7-0.7,0.9-1.6,1.2-2.6c0.4-1.2,0.7-2.5,0.7-3.8
					c0-0.4-0.7-0.9-1-0.5c-0.7,1-1.1,2.2-1.4,3.4C92.83,128.91,92.13,130.01,92.33,131.01L92.33,131.01z"/>
				<path class="st1" d="M43.93,26.41c0,0-0.1,0.9-0.1,1.2v2.5c0,1-0.4,3.3,0.7,3.9c0.4,0.2,0.9,0.2,1.1-0.2c0.6-1.1,0.2-3,0.1-4.2
					c0-1,0.2-2.3-0.2-3.2C45.33,25.81,44.13,25.61,43.93,26.41z"/>
				<path class="st1" d="M48.23,14.61c0,0-0.1,0.9-0.1,1.2v2.5c0,1-0.4,3.3,0.7,3.9c0.4,0.2,0.9,0.2,1.1-0.2c0.6-1.1,0.2-3,0.1-4.2
					c0-1,0.2-2.3-0.2-3.2C49.53,14.01,48.43,13.91,48.23,14.61z"/>
				<path class="st1" d="M41.23,10.51c0,0-0.1,0.9-0.1,1.2v2.5c0,1-0.4,3.3,0.7,3.9c0.4,0.2,0.9,0.2,1.1-0.2c0.6-1.1,0.2-3,0.1-4.2
					c0-1,0.2-2.3-0.2-3.2C42.53,9.91,41.43,9.81,41.23,10.51z"/>
				<path class="st1" d="M86.33,123.51c0.4-1.5-0.2-3.2-0.5-4.7c-0.3-1.3-0.5-2.7-1.1-4c-0.2-0.5-1.3-0.5-1.3,0.1
					c0,1.3,0.2,2.5,0.3,3.8c0.2,1.5,0.2,3.9,1.2,5C85.33,124.11,86.23,124.11,86.33,123.51z"/>
				<path class="st1" d="M81.83,110.91c0.4,0.6,1.8,0.1,1.5-0.6c-0.4-0.9-0.7-1.9-0.9-2.8c-0.3-1-0.4-2.1-0.8-3s-1.9-0.2-1.8,0.7
					C80.03,107.11,80.83,109.31,81.83,110.91z"/>
				<path class="st1" d="M77.43,90.51c0.8,0.9,1.3,2,1.8,3.1c0.5,1,1.5,2.7,1.1,3.8c-0.2,0.4-0.8,0.8-1.2,0.4
					c-0.9-0.8-1.1-2.1-1.5-3.2s-0.9-2.2-1.4-3.2C76.03,90.81,76.93,90.01,77.43,90.51z"/>
				<path class="st1" d="M79.63,111.21c-0.1-0.4-1.1-0.6-1.2,0c-0.2,1,0,2,0.1,2.9c0.1,1,0.3,2.2,0.8,3c0.3,0.5,1.6,0.4,1.5-0.3
					c-0.1-0.8-0.4-1.6-0.6-2.4C80.03,113.31,79.93,112.21,79.63,111.21z"/>
				<path class="st1" d="M75.33,96.81c-0.1-0.4-1.1-0.6-1.2,0c-0.2,1,0,2,0.1,2.9c0.1,1,0.3,2.2,0.8,3c0.3,0.5,1.6,0.4,1.5-0.3
					c-0.1-0.8-0.4-1.6-0.6-2.4C75.73,98.91,75.63,97.81,75.33,96.81z"/>
				<path class="st1" d="M73.43,80.41c-0.1-0.4-1.1-0.6-1.2,0c-0.2,1,0,2,0.1,2.9c0.1,1,0.3,2.2,0.8,3c0.3,0.5,1.6,0.4,1.5-0.3
					c-0.1-0.8-0.4-1.6-0.6-2.4C73.83,82.61,73.73,81.51,73.43,80.41z"/>
				<path class="st1" d="M80.43,122.01c0,1.3,0.3,2.6,0.4,4c0.1,1.2-0.1,2.7,0.5,3.9c0.2,0.4,0.9,0.6,1.1,0.1
					c0.5-1.3,0.2-2.8,0.1-4.1c-0.1-1.3-0.2-2.7-0.6-3.9C81.73,121.21,80.43,121.21,80.43,122.01z"/>
				<path class="st1" d="M71.73,106.51c0,1.3,0.3,2.6,0.4,4c0.1,1.2-0.1,2.7,0.5,3.9c0.2,0.4,0.9,0.6,1.1,0.1
					c0.5-1.3,0.2-2.8,0.1-4.1c-0.1-1.3-0.2-2.7-0.6-3.9C73.13,105.81,71.73,105.81,71.73,106.51z"/>
				<path class="st1" d="M86.43,133.41c0.3-1.8,0.2-4.1-0.5-5.8c-0.2-0.4-1.2-0.6-1.3,0c-0.2,1.9,0.5,3.7,0.3,5.6
					C84.93,134.01,86.33,134.11,86.43,133.41z"/>
				<path class="st1" d="M80.33,134.01c-0.2-0.6-1.1-0.7-1.4-0.1c-0.4,0.7-0.3,1.6-0.4,2.4c-0.1,1,0,2.1,0,3.1c0,0.8,1.6,0.9,1.6,0
					c0-0.8,0-1.7,0.1-2.5C80.43,135.91,80.63,134.81,80.33,134.01z"/>
				<path class="st1" d="M73.23,124.01c-0.2-0.6-1.1-0.7-1.4-0.1c-0.4,0.7-0.3,1.6-0.4,2.4c-0.1,1,0,2.1,0,3.1c0,0.8,1.6,0.9,1.6,0
					c0-0.8,0-1.7,0.1-2.5C73.23,125.91,73.43,124.91,73.23,124.01z"/>
				<path class="st1" d="M76.93,146.91c-0.2-0.6-1.1-0.7-1.4-0.1c-0.4,0.7-0.3,1.6-0.4,2.4c-0.1,1,0,2.1,0,3.1c0,0.8,1.6,0.9,1.6,0
					c0-0.8,0-1.7,0.1-2.5C76.93,148.81,77.13,147.81,76.93,146.91z"/>
				<path class="st1" d="M70.63,139.91c-0.1-0.6-1-0.8-1.3-0.3c-0.5,0.6-0.6,1.5-0.7,2.3c-0.2,1-0.3,2.1-0.5,3.1
					c-0.1,0.8,1.4,1.1,1.6,0.2c0.1-0.8,0.3-1.7,0.5-2.5C70.43,141.81,70.83,140.91,70.63,139.91z"/>
				<path class="st1" d="M91.33,145.51c-0.2-0.6-1.1-0.7-1.4-0.1c-0.4,0.7-0.3,1.6-0.4,2.4c-0.1,1,0,2.1,0,3.1c0,0.8,1.6,0.9,1.6,0
					c0-0.8,0-1.7,0.1-2.5C91.43,147.41,91.63,146.31,91.33,145.51z"/>
				<path class="st1" d="M35.33,12.81c-0.3-0.5-1.2-0.4-1.4,0.1c-0.2,0.8,0,1.6,0.1,2.4c0.1,1,0.4,2.1,0.6,3.1
					c0.2,0.8,1.7,0.5,1.5-0.3s-0.3-1.7-0.4-2.5C35.63,14.71,35.73,13.61,35.33,12.81z"/>
				<path class="st1" d="M92.73,117.61c-0.1-0.6-1-0.8-1.3-0.3c-0.5,0.6-0.6,1.5-0.7,2.3c-0.2,1-0.3,2.1-0.5,3.1
					c-0.1,0.8,1.4,1.1,1.6,0.2c0.1-0.8,0.3-1.7,0.5-2.5C92.53,119.51,92.93,118.51,92.73,117.61z"/>
				<path class="st1" d="M41.23,34.01c-0.3-0.5-1.2-0.4-1.4,0.1c-0.2,0.8,0,1.6,0.1,2.4c0.1,1,0.4,2.1,0.6,3.1
					c0.2,0.8,1.7,0.5,1.5-0.3s-0.3-1.7-0.4-2.5C41.63,35.91,41.63,34.81,41.23,34.01z"/>
				<path class="st1" d="M85.93,148.11c-0.1-0.6-1-0.8-1.3-0.3c-0.5,0.6-0.6,1.5-0.7,2.3c-0.2,1-0.3,2.1-0.5,3.1
					c-0.1,0.8,1.4,1.1,1.6,0.2c0.1-0.8,0.3-1.7,0.5-2.5C85.63,150.01,86.03,149.01,85.93,148.11z"/>
				<path class="st1" d="M81.43,145.21c-0.2-0.6-1.1-0.7-1.4-0.1c-0.4,0.7-0.3,1.6-0.4,2.4c-0.1,1,0,2.1,0,3.1c0,0.8,1.6,0.9,1.6,0
					c0-0.8,0-1.7,0.1-2.5C81.43,147.11,81.73,146.01,81.43,145.21z"/>
				<path class="st1" d="M90.83,134.31c-0.2-0.6-1.1-0.7-1.4-0.1c-0.4,0.7-0.3,1.6-0.4,2.4c-0.1,1,0,2.1,0,3.1c0,0.8,1.6,0.9,1.6,0
					c0-0.8,0-1.7,0.1-2.5C90.83,136.21,91.13,135.21,90.83,134.31z"/>
				<path class="st1" d="M86.83,139.81c-0.2-0.6-1.1-0.7-1.4-0.1c-0.4,0.7-0.3,1.6-0.4,2.4c-0.1,1,0,2.1,0,3.1c0,0.8,1.6,0.9,1.6,0
					c0-0.8,0-1.7,0.1-2.5C86.83,141.71,87.03,140.71,86.83,139.81z"/>
			</g>
		</g>
		<path class="st9" d="M54.33,42.41c1.9,0,1.9-3,0-3S52.43,42.41,54.33,42.41L54.33,42.41z"/>
		<path class="st9" d="M25.66,46.95c1.9,0,1.9-3,0-3S23.75,46.95,25.66,46.95L25.66,46.95z"/>
	</g>
</g>
</svg>
