<?xml version="1.0" encoding="UTF-8"?>
<svg id="Ebene_2" data-name="Ebene 2" xmlns="http://www.w3.org/2000/svg" viewBox="0 0 97.42 123.46">
  <defs>
    <style>
      .cls-1 {
        fill: #fff;
      }

      .cls-1, .cls-2, .cls-3, .cls-4, .cls-5, .cls-6 {
        stroke-width: 0px;
      }

      .cls-2 {
        fill: #fcbba7;
      }

      .cls-3 {
        fill: #564431;
      }

      .cls-4 {
        fill: #3f3123;
      }

      .cls-5 {
        fill: #e7c28d;
      }

      .cls-6 {
        fill: #7c674a;
      }
    </style>
  </defs>
  <g id="Ebene_1-2" data-name="Ebene 1">
    <g>
      <g>
        <circle class="cls-6" cx="49.01" cy="35.3" r="35.3"/>
        <path class="cls-5" d="M14.61,85.9c-.1-28.6,5.6-50.6,34.4-50.6s34.5,22,34.4,50.6c0,18.9-15.5,34.1-34.4,34.1h0c-18.9.1-34.4-15.2-34.4-34.1Z"/>
        <circle class="cls-5" cx="30.81" cy="34.3" r="12.8"/>
        <circle class="cls-5" cx="67.11" cy="34.3" r="12.8"/>
        <path class="cls-3" d="M48.41,40.3s2.4-27-20.9-27c-6,0-6-8.8-6-8.8,0,0,2.2,4.2,11.9,4.2s17.9,9.1,15,31.6Z"/>
        <path class="cls-3" d="M49.61,40.3s-2.4-27,20.9-27c6,0,6-8.8,6-8.8,0,0-2.2,4.2-11.9,4.2s-18,9.1-15,31.6Z"/>
        <path class="cls-5" d="M48.31,46.2s2.6-29.4-22.7-29.4c-6.5,0-6.5-9.6-6.5-9.6,0,0,2.4,4.5,12.9,4.5s19.6,10,16.3,34.5Z"/>
        <path class="cls-5" d="M49.61,46.2s-2.6-29.4,22.7-29.4c6.5,0,6.5-9.6,6.5-9.6,0,0-2.4,4.5-12.9,4.5-10.4.1-19.5,10-16.3,34.5Z"/>
        <path class="cls-4" d="M32.11,110.7s-4.1-4.5-5,4.2c-.6,6.2,2.8,8.3,5,6.2,1.9,3.5,4.6.8,4.6.8,0,0,2.7,3.5,4.5,0s1.1-13.1-4.1-10.9c-2.3-2.2-5-.3-5-.3Z"/>
        <path class="cls-4" d="M65.81,110.7s4.1-4.5,5,4.2c.6,6.2-2.8,8.3-5,6.2-1.9,3.5-4.6.8-4.6.8,0,0-2.7,3.5-4.5,0s-1.1-13.1,4.1-10.9c2.4-2.2,5-.3,5-.3Z"/>
        <path class="cls-6" d="M2.81,100.5c-5.9-15.2-2.4-32.7,9.5-43.9,2.6-2.4,5-4,6.9-4,7.5,0,18.8,28,14.9,37.6-4,9.6-8.5,0-8.5,0,0,0,3.6,20.3-2.4,20.3s-6.3-8.5-6.3-8.5c0,0,1.1,11.9-5.4,11.9-2.7-.1-5.8-6.2-8.7-13.4Z"/>
        <path class="cls-6" d="M94.61,100.5c5.9-15.2,2.4-32.7-9.5-43.9-2.6-2.4-5-4-6.9-4-7.5,0-18.8,28-14.9,37.6,4,9.6,8.5,0,8.5,0,0,0-3.6,20.3,2.4,20.3s6.3-8.5,6.3-8.5c0,0-1.1,11.9,5.4,11.9,2.7-.1,5.9-6.2,8.7-13.4Z"/>
        <g>
          <circle class="cls-4" cx="33.41" cy="29" r="3.8"/>
          <circle class="cls-4" cx="64.51" cy="29" r="3.8"/>
          <path class="cls-4" d="M48.71,42.7s-12.6-12,0-12,0,12,0,12Z"/>
          <ellipse class="cls-2" cx="27.41" cy="37.1" rx="6" ry="3.8"/>
          <ellipse class="cls-2" cx="70.51" cy="37.1" rx="6" ry="3.8"/>
          <path class="cls-4" d="M60.71,26.5c.9-1.1,2.4-1.7,3.9-1.7.7,0,1.5.1,2.2.4.4.1.7.3,1,.5s.6.4.9.6h-.4c.5-.4,1-.7,1.5-1.1-.3.5-.7,1-1.1,1.5-.1.1-.2.1-.3.1h-.1c-.6-.3-1.2-.5-1.9-.7-.6-.2-1.3-.3-1.9-.3-1.2-.1-2.5.2-3.8.7Z"/>
          <path class="cls-4" d="M37.21,26.5c-1.3-.6-2.6-.8-3.9-.8-.6.1-1.3.1-1.9.3-.6.2-1.2.4-1.9.7h-.1c-.1,0-.2,0-.3-.1-.4-.5-.7-1-1.1-1.5.5.3,1,.7,1.5,1.1h-.4c.3-.2.6-.4.9-.6.3-.1.6-.3,1-.5.7-.3,1.4-.4,2.2-.4,1.6.2,3.1.7,4,1.8Z"/>
        </g>
        <g>
          <path class="cls-3" d="M10.11,81.3c-.5-1.4-.2-2.9-.1-4.3.1-1.2.2-2.6.5-3.8.1-.5,1.1-.6,1.2,0,.2,1.2.1,2.3.1,3.5,0,1.4.3,3.6-.6,4.7-.2.4-1,.4-1.1-.1Z"/>
          <path class="cls-3" d="M15.91,62.3c-.8,1.1-1.4,2.9-2.9,3.2-.3,0-.8-.3-.7-.6.3-.7.8-1.1,1.2-1.8.3-.6.6-1.2,1-1.7.3-.5.6-.9,1-1.3.4-.5.5-1.1,1.1-1.3.3-.1.7.1.8.5.3,1-.9,2.2-1.5,3Z"/>
          <path class="cls-3" d="M19.21,66.8c.1-1.2.4-2.4.6-3.6.2-1.1.1-2.5.7-3.5.2-.4.9-.5,1,0,.3,1.2,0,2.6-.2,3.8-.2,1.2-.4,2.4-.8,3.6-.1.5-1.4.4-1.3-.3Z"/>
          <path class="cls-3" d="M19.31,101.6c-.1-1.2,0-2.4,0-3.7,0-1.1-.3-2.5.1-3.6.2-.4.8-.6,1-.2.5,1.1.5,2.5.5,3.7s.1,2.5-.2,3.6c-.1.7-1.3.9-1.4.2Z"/>
          <path class="cls-3" d="M19.41,74.7c.1,1.6-.1,3.8-.8,5.3-.2.4-1.1.4-1.2-.1,0-1.7.7-3.4.7-5.1,0-.8,1.3-.8,1.3-.1Z"/>
          <path class="cls-3" d="M7.01,99.3c.5,1.6.7,3.8.3,5.4-.1.4-1,.6-1.2.1-.4-1.7,0-3.5-.4-5.2-.1-.6,1.1-.9,1.3-.3Z"/>
          <path class="cls-3" d="M12.71,96.2c.5,1.6.7,3.8.3,5.4-.1.4-1,.6-1.2.1-.4-1.7,0-3.5-.4-5.2-.1-.6,1.1-.9,1.3-.3Z"/>
          <path class="cls-3" d="M12.51,106.4c.5,1.6.7,3.8.3,5.4-.1.4-1,.6-1.2.1-.4-1.7,0-3.5-.4-5.2-.1-.7,1.1-1,1.3-.3Z"/>
          <path class="cls-3" d="M4.01,89c.5,1.6.7,3.8.3,5.4-.1.4-1,.6-1.2.1-.4-1.7,0-3.5-.4-5.2-.1-.6,1.1-.9,1.3-.3Z"/>
          <path class="cls-3" d="M11.31,67.9c-.4.9-.9,1.9-1.4,2.8-.5,1-.8,2.2-1.5,3-.3.4-1.1.1-1.1-.4.1-2,1.6-4.3,2.7-6,.5-.6,1.6,0,1.3.6Z"/>
          <path class="cls-3" d="M6.61,77.9c-.1,1-.3,2-.4,3.1s-.1,2.3-.5,3.3c-.2.4-1,.4-1.1,0-.5-2,.2-4.6.7-6.5.1-.8,1.4-.7,1.3.1Z"/>
          <path class="cls-3" d="M25.21,70.5c-.3.3-1.1.4-1.2-.1-.3-.9-.1-1.7.1-2.6.2-1.2.4-2.3.9-3.4.2-.3,1-.5,1,0,.1,1.1,0,2.2-.2,3.4-.1.9,0,2-.6,2.7Z"/>
          <path class="cls-3" d="M25.01,75.9c.2,1.1-.2,2.2-.4,3.3-.2,1.1-.3,2-.8,3-.2.3-.9.5-1,0-.2-1.2-.1-2.1.2-3.3.2-1,.3-2.3,1-3.1.2-.4,1-.4,1,.1Z"/>
          <path class="cls-3" d="M16.51,66.2v1.1c-.1.8-.2,1.5-.2,2.3-.1.9,0,3.1-1.1,3.5-.4.1-.8.1-1-.3-.5-1.1.2-2.7.3-3.8.1-.9.1-2.1.5-2.9.4-.5,1.4-.5,1.5.1Z"/>
          <path class="cls-3" d="M15.71,84.6s.1.8.1,1.1v2.3c0,.9.4,3.1-.6,3.6-.3.2-.8.2-1-.2-.6-1-.2-2.7-.1-3.8,0-.9-.2-2.1.2-2.9.1-.6,1.2-.7,1.4-.1Z"/>
          <path class="cls-3" d="M9.61,86.9s.1.8.1,1.1v2.3c0,.9.4,3.1-.6,3.6-.3.2-.8.2-1-.2-.6-1-.2-2.7-.1-3.8,0-.9-.2-2.1.2-2.9.1-.6,1.2-.8,1.4-.1Z"/>
          <path class="cls-3" d="M88.31,81.3c.5-1.4.2-2.9.1-4.3-.1-1.2-.2-2.6-.5-3.8-.1-.5-1.1-.6-1.2,0-.2,1.2-.1,2.3-.1,3.5,0,1.4-.3,3.6.6,4.7.2.4.9.4,1.1-.1Z"/>
          <path class="cls-3" d="M82.51,62.3c.8,1.1,1.4,2.9,2.9,3.2.3,0,.8-.3.7-.6-.3-.7-.8-1.1-1.2-1.8-.3-.6-.6-1.2-1-1.7-.3-.5-.6-.9-1-1.3-.4-.5-.5-1.1-1.1-1.3-.3-.1-.7.1-.8.5-.4,1,.9,2.2,1.5,3Z"/>
          <path class="cls-3" d="M79.21,66.8c-.1-1.2-.4-2.4-.6-3.6-.2-1.1-.1-2.5-.7-3.5-.2-.4-.9-.5-1,0-.3,1.2,0,2.6.2,3.8.2,1.2.4,2.4.8,3.6.1.5,1.4.4,1.3-.3Z"/>
          <path class="cls-3" d="M80.11,102.5c.1-1.2,0-2.4,0-3.7,0-1.1.3-2.5-.1-3.6-.2-.4-.8-.6-1-.2-.5,1.1-.5,2.5-.5,3.7s-.1,2.5.2,3.6c.1.8,1.4.9,1.4.2Z"/>
          <path class="cls-3" d="M77.01,74.7c-.1,1.6.1,3.8.8,5.3.2.4,1.1.4,1.2-.1,0-1.7-.7-3.4-.7-5.1,0-.8-1.3-.8-1.3-.1Z"/>
          <path class="cls-3" d="M88.81,96.7c-.5,1.6-.7,3.8-.3,5.4.1.4,1,.6,1.2.1.4-1.7,0-3.5.4-5.2.1-.6-1.1-.9-1.3-.3Z"/>
          <path class="cls-3" d="M85.81,106.4c-.5,1.6-.7,3.8-.3,5.4.1.4,1,.6,1.2.1.4-1.7,0-3.5.4-5.2.1-.7-1.1-1-1.3-.3Z"/>
          <path class="cls-3" d="M94.31,89c-.5,1.6-.7,3.8-.3,5.4.1.4,1,.6,1.2.1.4-1.7,0-3.5.4-5.2.1-.6-1.1-.9-1.3-.3Z"/>
          <path class="cls-3" d="M84.41,93.7c-.5,1.6-.7,3.8-.3,5.4.1.4,1,.6,1.2.1.4-1.7,0-3.5.4-5.2.1-.7-1.1-1-1.3-.3Z"/>
          <path class="cls-3" d="M87.11,67.9c.4.9.9,1.9,1.4,2.8.5,1,.8,2.2,1.5,3,.3.4,1.1.1,1.1-.4-.1-2-1.6-4.3-2.7-6-.5-.6-1.6,0-1.3.6Z"/>
          <path class="cls-3" d="M91.81,77.9c.1,1,.3,2,.4,3.1.1,1.1.1,2.3.5,3.3.2.4,1,.4,1.1,0,.5-2-.2-4.6-.7-6.5-.1-.8-1.4-.7-1.3.1Z"/>
          <path class="cls-3" d="M73.11,70.5c.3.3,1.1.4,1.2-.1.3-.9.1-1.7-.1-2.6-.2-1.2-.4-2.3-.9-3.4-.2-.3-1-.5-1,0-.1,1.1,0,2.2.2,3.4.2.9.1,2,.6,2.7Z"/>
          <path class="cls-3" d="M69.11,75.9c-.2,1.1.2,2.2.4,3.3.2,1.1.3,2,.8,3,.2.3.9.5,1,0,.2-1.2.1-2.1-.2-3.3-.2-1-.3-2.3-1-3.1-.2-.4-1-.4-1,.1Z"/>
          <path class="cls-3" d="M80.61,70.5v1.1c.1.8.2,1.5.2,2.3.1.9,0,3.1,1.1,3.5.4.1.8.1,1-.3.5-1.1-.2-2.7-.3-3.8-.1-.9-.1-2.1-.5-2.9-.3-.5-1.4-.5-1.5.1Z"/>
          <path class="cls-3" d="M81.01,83.2s-.1.8-.1,1.1v2.3c0,.9-.4,3.1.6,3.6.3.2.8.2,1-.2.6-1,.2-2.7.1-3.8,0-.9.2-2.1-.2-2.9-.1-.6-1.2-.8-1.4-.1Z"/>
          <path class="cls-3" d="M88.81,86.9s-.1.8-.1,1.1v2.3c0,.9-.4,3.1.6,3.6.3.2.8.2,1-.2.6-1,.2-2.7.1-3.8,0-.9.2-2.1-.2-2.9-.2-.6-1.2-.8-1.4-.1Z"/>
        </g>
      </g>
      <path class="cls-1" d="M31.71,30.7c1.9,0,1.9-3,0-3s-1.9,3,0,3h0Z"/>
      <path class="cls-1" d="M62.71,30.6c1.9,0,1.9-3,0-3-2,0-2,3,0,3h0Z"/>
    </g>
  </g>
</svg>